<svg width="661" height="72" viewBox="0 0 661 72" fill="none" xmlns="http://www.w3.org/2000/svg">
<g clip-path="url(#clip0_505_20614)">
<path d="M614.98 62.4151C606.925 56.6402 598.595 51.2573 590.017 46.2334C580.725 40.7879 571.143 35.776 560.946 32.2408C547.936 27.7319 534.56 26.7278 520.846 28.8277C507.551 30.8677 495.165 35.2522 482.733 39.736C467.809 45.1101 452.155 47.6852 436.248 48.993C422.607 50.1162 408.94 51.025 395.286 52.0061C391.502 52.2761 387.648 52.4946 384.242 54.0748C375.327 58.2186 372.873 65.9545 380.103 73.8837C385.505 79.8076 392.882 81.8472 400.443 82.7471C420.834 85.1694 441.127 83.3698 461.401 81.7444C475.545 80.609 489.633 78.7517 503.918 79.37C505.68 79.4452 507.432 79.6073 509.19 79.7327" stroke="#C0CCD8" stroke-linecap="round" stroke-linejoin="round"/>
<path d="M464.623 82.3577C460.748 84.6105 456.378 85.8547 452.269 87.6246C442.21 91.9569 431.935 95.81 421.627 99.5872C419.474 100.377 417.548 100.391 415.243 99.6985C406.633 97.1195 397.93 94.8211 389.254 92.4516C378.774 89.5927 368.228 87.0133 357.301 86.7168C352.95 86.5994 348.576 86.6744 344.55 88.6699C342.286 89.7944 340.241 90.9986 339.327 93.415" stroke="#C0CCD8" stroke-linecap="round" stroke-linejoin="round"/>
<path d="M656.6 73.5147C644.97 69.5098 633.403 65.3517 621.945 60.8971C619.041 59.7727 616.856 60.6264 614.799 63.3269C609.162 70.7361 604.851 78.8932 600.286 86.9129C593.748 98.3857 588.161 110.3 582.971 122.372C580.967 127.044 579.24 131.903 578.646 137.091C578.234 140.658 579.634 142.949 582.587 144.832C588.422 148.553 595.007 150.721 601.327 153.436C606.432 155.627 611.661 157.549 616.84 159.596" stroke="#C0CCD8" stroke-linecap="round" stroke-linejoin="round"/>
<path d="M50.7312 61.9426C47.2842 59.8032 45.4282 57.1612 43.7022 54.4546C41.4009 50.8517 39.1996 47.1959 34.2317 44.454C33.1361 43.8487 31.9204 43.3902 30.4746 43.1316C28.5234 42.7878 27.8631 43.0963 27.703 44.31C27.4778 46.0645 28.3583 47.7073 29.7842 49.1384C33.1661 52.5298 37.6487 55.3715 43.5121 57.3552C43.9623 57.508 44.6928 58.0458 45.4832 57.5345" stroke="#C0CCD8" stroke-linecap="round" stroke-linejoin="round"/>
<path d="M62.2389 75.9018C64.8604 75.2846 66.3613 73.8975 67.637 72.6339C70.2785 70.0184 72.1646 67.1795 71.7694 63.9998C71.6293 62.8625 71.2691 61.8545 69.5031 61.1433C65.3257 62.4775 64.0449 64.8902 62.7742 67.2412C61.2783 70.0184 61.6786 72.8983 61.9838 75.7578" stroke="#C0CCD8" stroke-linecap="round" stroke-linejoin="round"/>
<path d="M54.2329 68.5549C50.0906 65.9982 44.8926 64.4877 39.2043 63.606C37.2532 63.3033 35.0519 63.5032 32.9757 63.5855C32.1202 63.6178 31.695 64.1791 31.0996 64.5905C33.1358 67.1619 37.1331 68.167 41.2505 68.7988C46.1983 69.56 51.2662 69.1779 56.2391 68.5549" stroke="#C0CCD8" stroke-linecap="round" stroke-linejoin="round"/>
<path d="M52.4814 63.7058C54.7377 62.9036 55.1729 61.4518 55.9434 60.1705C57.6944 57.267 58.3998 54.2842 57.2641 51.2102C57.049 50.6254 56.8089 50.0024 55.9534 49.782C54.9428 49.5205 54.1173 50.0406 53.492 50.4844C50.4052 52.6649 49.2395 55.1658 49.9749 57.9753C50.3352 59.3447 50.4102 60.7583 51.0506 62.0778C51.6459 63.3062 52.6115 64.514 53.7721 65.6013C56.8789 68.5107 59.1002 71.6434 60.9963 74.8702C61.0913 75.0318 61.3215 75.167 61.4866 75.3139" stroke="#C0CCD8" stroke-linecap="round" stroke-linejoin="round"/>
<path d="M399.343 26.4464C394.9 19.2229 389.05 13.5631 380.767 11.163C373.977 9.1977 367.18 9.33995 360.349 11.89C352.441 14.8434 347.293 20.3614 343.603 27.8073C334.146 27.0062 324.618 26.1671 315.092 25.3937C300.894 24.2446 286.703 23.0245 272.471 22.3502C271.086 22.2828 270.355 22.7594 269.465 23.5278C266.175 26.385 262.87 29.2267 259.509 32.0035C257.461 33.695 257.369 34.1662 259.041 35.9284C262.45 39.5123 265.865 43.0865 269.183 46.7536C269.734 47.3625 270.189 47.5727 270.917 47.5643C271.935 47.5526 273.005 47.4013 273.967 47.6399C278.364 48.7258 281.37 46.8452 283.579 43.2603C284.771 41.3239 286.32 40.5324 288.634 40.9297C290.611 41.2673 292.714 41.6655 294.636 41.3314C297.159 40.893 298.13 42.06 299.21 43.9518C300.378 46.0053 301.058 48.4855 303.348 49.8484C304.802 48.1361 306.246 46.5632 307.546 44.8789C309.275 42.6445 311.161 41.513 314.243 42.1582C317.058 42.7512 320.04 42.6357 322.948 42.6234C324.303 42.6173 324.855 43.2803 325.409 44.2817C326.509 46.2711 327.286 48.6773 328.906 50.0875C330.986 51.8934 334.019 50.8388 336.628 51.115C338.895 51.3575 341.18 51.3779 343.412 51.4956C346.075 61.3586 352.699 67.4988 362.046 71.0062" stroke="#C0CCD8" stroke-linecap="round" stroke-linejoin="round"/>
<path d="M439.798 40.9713C435.937 34.757 430.327 30.4256 423.619 27.5947C416.002 24.3856 408.123 24.2917 400.305 26.5812C396.706 27.6344 393.312 29.4608 390.389 31.9362C389.66 32.5515 389.41 32.9686 388.115 32.3949C383.11 30.1931 376.742 31.6995 374.27 35.4906C370.877 40.6987 372.253 47.1044 376.614 51.0663" stroke="#C0CCD8" stroke-linecap="round" stroke-linejoin="round"/>
<path d="M431.5 44.4999C425 35.4999 416.273 31.2053 405.083 33.7865C395.599 35.9714 390 42.4999 388 48" stroke="#C0CCD8" stroke-linecap="round" stroke-linejoin="round"/>
<path d="M388.467 33.3313C385.485 36.7862 382.338 40.0699 380.594 44.4711C379.688 46.7644 379.104 49.0711 378.619 51.4426" stroke="#C0CCD8" stroke-linecap="round" stroke-linejoin="round"/>
<path d="M176.5 47C206.041 47.015 213.01 47.025 242.55 47C244.686 47 246.112 47.5859 247.436 49.2334C257.781 62.128 267.722 75.2579 277.778 88.3228C284.089 96.5202 290.423 104.708 296.854 112.83C297.581 113.746 297.95 114.548 297.95 115.614C297.933 145.074 297.939 174.539 297.933 203.998C297.933 204.339 298.127 204.75 297.655 205C230.814 205 163.966 205 97 205C97.5908 203.863 97.392 202.917 97.392 201.995" stroke="#C0CCD8" stroke-linecap="round" stroke-linejoin="round"/>
<path d="M244.824 47.5159C228.065 69.6345 232.321 62.9215 215.5 85" stroke="#C0CCD8" stroke-linecap="round" stroke-linejoin="round"/>
<path d="M107.041 44.8047C105.321 42.6353 104.093 40.2613 104.228 37.4028C104.298 35.9036 104.546 34.4124 106.104 33.6453C106.648 33.3789 106.774 32.7921 106.86 32.4126C107.722 28.6713 110.518 26.8544 113.789 25.9016C116.714 25.0484 119.653 24.1305 122.657 23.5841C125.064 23.1454 127.454 23.0781 129.548 24.9838C131.284 26.5637 131.709 29.5595 130.186 31.885C128.899 33.8499 126.867 34.7677 124.792 35.4891C122.2 36.3907 119.487 36.738 116.728 36.598C115.74 36.5469 114.774 36.0704 113.649 36.4607C114.23 39.5614 113.858 42.6003 113.108 45.7091C112.198 45.1142 111.444 44.4225 110.411 44.1022C107.452 43.187 106.567 44.7831 106.683 47.4909C106.737 48.7936 107.345 50.0156 108.365 51.0115C109.401 52.0262 110.478 52.1904 111.829 51.6117C112.214 53.8457 112.074 56.0663 111.956 58.2546C111.902 59.2774 111.802 60.319 111.746 61.3526C111.681 62.5558 111.18 63.1533 110.268 63.0995C107.829 62.9514 105.458 62.3916 103.283 61.3257C99.3454 59.3985 95.9217 56.7015 92.6326 53.8215C84.9669 47.1087 79.0885 38.9074 73.2773 30.655C72.5371 29.6025 71.7915 28.5447 70.9329 27.6081C70.4081 27.0348 70.2573 26.5099 70.295 25.8262C70.4861 22.4644 69.8428 19.2291 69.0138 15.9858C68.7716 15.0383 68.5697 13.9536 68.6854 12.9066C68.7797 12.0614 68.5993 11.3778 67.738 11.0225C66.6506 11.3993 66.2038 12.266 65.9885 13.3103C65.7516 14.4677 65.5013 15.6143 65.4071 16.8067C65.3506 17.5388 65.216 18.2548 64.7127 19.0111C63.4826 20.8602 62.8447 22.9974 63.5633 25.2879" stroke="#C0CCD8" stroke-linecap="round" stroke-linejoin="round"/>
<path d="M175.675 16.4083C175.336 15.7542 175.756 15.0544 175.549 14.3869C175.498 14.2227 175.581 14.0182 175.535 13.854C175.293 13.0034 175.226 11.9376 174.061 11.8568C172.952 11.7814 173.164 12.85 173.011 13.4556C172.079 17.0839 170.82 20.6556 170.968 24.4858C170.997 25.2421 170.553 25.8154 170.15 26.3618C165.377 32.8513 160.514 39.2626 155.241 45.3618C152.703 48.2956 150.226 51.286 147.398 53.9399C144.297 56.8495 140.997 59.5223 137.188 61.5006C134.101 63.1021 130.86 63.9876 127.361 63.7831" stroke="#C0CCD8" stroke-linecap="round" stroke-linejoin="round"/>
<path d="M93.9858 55.571C91.2862 61.3015 87.5099 66.1679 82.3555 70.0195C85.2247 73.602 88.3039 76.9719 91.8191 79.9461C92.9792 80.9286 93.9536 82.129 95.2051 83.0172C95.7892 83.4317 95.625 83.9405 95.6196 84.5057C95.5874 89.2617 95.7112 94.0178 95.5685 98.7711C95.4555 102.496 95.4151 106.219 95.3047 109.941C95.1621 114.7 94.7853 119.451 94.5349 124.209C94.4811 125.211 95.0221 125.806 96.0072 125.814C98.0986 125.827 100.136 126.309 102.187 126.573C104.567 126.879 106.951 127.106 109.333 127.27C114.571 127.63 119.828 127.695 125.076 127.555C129.076 127.45 133.071 127.211 137.059 126.804C139.751 126.53 142.448 126.312 145.129 125.954C145.495 125.905 145.85 125.797 146.286 125.701C145.74 122.296 145.885 118.859 145.433 115.456C145.196 113.685 145.358 111.877 145.177 110.073C144.905 107.309 145.024 104.51 144.844 101.735C144.588 97.7887 144.456 93.8401 144.251 89.8943C144.165 88.2362 144.3 86.5459 144.017 84.9175C143.673 82.9419 143.969 80.9501 143.651 78.9906" stroke="#C0CCD8" stroke-linecap="round" stroke-linejoin="round"/>
<path d="M53.2075 21.7915C52.4673 21.5843 52.0932 20.9302 51.6033 20.435C50.5213 19.3395 49.092 18.8065 47.8108 18.0448C47.3425 17.7649 46.6427 17.6061 46.2309 18.1713C45.8917 18.637 45.9617 19.2372 46.212 19.7701C46.5593 20.5103 47.103 21.1052 47.6924 21.6516C50.3759 24.1332 52.941 26.7494 55.8991 28.9216C56.5208 29.3791 57.1076 29.9174 57.7913 30.2485C59.7265 31.1852 60.9055 32.7732 61.9713 34.5631C65.823 41.0364 69.6801 47.507 73.7767 53.8323C76.7347 58.3999 79.8597 62.8356 83.3534 67.0049C83.7006 67.4194 84.0693 67.8151 84.4273 68.2188" stroke="#C0CCD8" stroke-linecap="round" stroke-linejoin="round"/>
<path d="M186.845 21.7913C187.252 22.1332 187.583 21.7832 187.919 21.6514C189.601 20.9865 189.967 21.0727 191.119 22.4265C190.508 23.9554 189.348 25.0428 188.18 26.0844C185.744 28.2511 183.292 30.4044 180.523 32.1567C179.486 32.8134 178.916 33.8766 178.229 34.8429C174.353 40.3149 171.159 46.2149 167.474 51.808C163.864 57.2854 160.018 62.5851 155.886 67.6803C155.749 67.8499 155.534 67.9549 155.354 68.0894" stroke="#C0CCD8" stroke-linecap="round" stroke-linejoin="round"/>
<path d="M130.861 31.2119C132.223 32.3262 132.716 33.8981 132.988 35.5239C133.157 36.5413 132.869 37.6583 132.293 38.4442C131.577 39.4213 131.744 40.4064 131.978 41.2946C132.764 44.2635 133.2 47.2646 132.993 50.3195C132.797 53.1915 131.879 55.875 130.032 58.109C128.504 59.9528 126.409 60.7629 124 60.8329C121.979 60.8894 120.038 60.6768 118.208 59.7536C117.847 59.5706 117.411 59.5356 117.271 59.0699" stroke="#C0CCD8" stroke-linecap="round" stroke-linejoin="round"/>
<path d="M110.404 63.242C111.435 66.9106 114.003 69.01 117.545 69.9413C119.814 70.5389 122.142 70.5577 124.403 69.7045C125.033 69.4676 125.641 69.2119 126.153 68.7597C127.13 67.8957 127.781 66.9644 127.383 65.5217C126.923 63.8556 127.116 62.1222 127.092 60.4131" stroke="#C0CCD8" stroke-linecap="round" stroke-linejoin="round"/>
<path d="M64.9154 18.5615C64.7216 17.9129 64.4767 17.3126 63.9814 16.8039C61.6747 14.4434 59.4111 12.0425 57.099 9.69003C56.5876 9.17055 55.9578 8.76143 55.3549 8.34154C54.8623 7.99971 54.2378 7.83821 53.7641 8.22311C53.2393 8.64838 53.2285 9.28898 53.4627 9.95381C53.7991 10.9066 54.4397 11.6684 54.943 12.5135C55.0722 12.7315 55.0453 13.0438 55.0911 13.3129" stroke="#C0CCD8" stroke-linecap="round" stroke-linejoin="round"/>
<path d="M145.665 55.8401C150.068 59.6245 153.403 64.2029 155.925 69.4165C156.208 70.0033 156.113 70.2267 155.769 70.6546C154.482 72.2454 153.336 73.9545 151.968 75.4726C149.444 78.2772 146.911 81.0846 144.047 83.5662" stroke="#C0CCD8" stroke-linecap="round" stroke-linejoin="round"/>
<path d="M181.865 14.5241C181.833 14.0503 181.792 13.5928 182.129 13.1729C182.694 12.4704 182.734 11.5525 183.052 10.7451C183.286 10.1502 182.856 9.63343 182.395 9.28621C181.913 8.92554 181.311 9.06012 180.939 9.42348C179.618 10.7155 178.751 12.3546 177.688 13.8431C177.05 14.734 176.713 15.7891 175.852 16.5831C175.276 17.1161 175.629 18.1766 175.327 18.9813C175.211 19.2882 175.728 19.8077 176.067 20.1818C177.54 21.8156 177.857 24.3861 176.886 26.3617" stroke="#C0CCD8" stroke-linecap="round" stroke-linejoin="round"/>
<path d="M182.942 19.5036C184.931 18.1174 185.865 15.9264 187.09 13.9696C187.478 13.3506 187.747 12.4704 187.095 11.854C186.385 11.1812 185.515 11.4934 184.837 11.9832C183.117 13.2268 181.658 14.7341 180.509 16.5374C180.17 17.0704 179.712 17.5306 179.309 18.0232" stroke="#C0CCD8" stroke-linecap="round" stroke-linejoin="round"/>
<path d="M184.691 23.4063C186.476 22.1386 187.948 20.5478 189.24 18.8118C189.789 18.077 190.478 17.1834 189.795 16.1471C189.431 15.5953 188.026 15.8079 186.982 16.5481C186.433 16.9357 186.016 17.5494 185.23 17.4848" stroke="#C0CCD8" stroke-linecap="round" stroke-linejoin="round"/>
<path d="M58.8586 16.6774C57.9731 16.3006 57.424 15.5092 56.7134 14.9198C54.8993 13.4205 53.1444 11.846 51.3087 10.371C50.7219 9.89994 49.9064 9.52581 49.185 10.1018C48.4448 10.694 48.6871 11.4907 49.0343 12.2362C49.5107 13.2617 50.337 13.9481 51.1687 14.6829C52.6383 15.9829 53.7769 17.6356 55.3622 18.8307" stroke="#C0CCD8" stroke-linecap="round" stroke-linejoin="round"/>
<path d="M49.3045 13.1783C48.8039 13.3505 48.4324 12.9199 47.9587 12.8984C46.8794 12.8445 46.5456 13.3236 46.8713 14.3949C47.2804 15.738 48.2602 16.6424 49.1511 17.6383C49.5306 18.0608 50.3758 18.2412 50.112 19.1025" stroke="#C0CCD8" stroke-linecap="round" stroke-linejoin="round"/>
<path d="M129.244 33.3652C130.846 34.6437 130.959 36.5628 131.4 38.3447C131.467 38.6192 131.578 38.883 131.667 39.1522" stroke="#C0CCD8" stroke-linecap="round" stroke-linejoin="round"/>
</g>
<defs>
<clipPath id="clip0_505_20614">
<rect width="661" height="72" fill="white"/>
</clipPath>
</defs>
</svg>
