<svg width="661" height="72" viewBox="0 0 661 72" fill="none" xmlns="http://www.w3.org/2000/svg">
<g clip-path="url(#clip0_1416_59855)">
<path d="M96.9038 56.999C96.6481 56.927 96.2875 56.9379 96.1543 56.7677C93.7965 53.7988 90.6805 51.6174 88.0321 48.9474C86.0218 46.9209 83.8738 45.0252 81.7804 43.086C79.4008 40.8828 77.0169 38.6774 74.6176 36.4894C73.4769 35.4489 72.4368 34.2557 71.2809 33.2871C69.3383 31.6576 67.5268 29.8994 65.6607 28.1979C61.4937 24.3979 57.3528 20.5674 53.2011 16.7521C52.2921 15.9145 51.3765 15.0834 50.4718 14.2413C50.1332 13.925 49.8141 13.9141 49.4864 14.2413C49.2678 14.4595 49.0493 14.6776 48.8308 14.8958C45.4439 18.2769 42.0656 21.6668 38.6678 25.0371C28.6205 35.0039 18.5645 44.9598 8.51946 54.9288C8.04528 55.4 7.50993 55.8101 7.18216 56.4405C6.96583 56.8572 6.45669 56.8942 6 56.8877" stroke="#C0CCD8" stroke-linecap="round" stroke-linejoin="round"/>
<path d="M7.31323 56.6719C7.75463 56.9576 8.25065 56.8878 8.73357 56.89C10.4467 56.89 12.1577 56.89 13.9779 56.89V82.7396" stroke="#C0CCD8" stroke-linecap="round" stroke-linejoin="round"/>
<path d="M81.8263 42.9267C82.189 42.5537 82.1562 42.0847 82.1562 41.6179C82.1519 36.5287 82.1562 31.4373 82.1541 26.3481C82.1541 25.1505 82.1475 25.1483 80.9522 25.1483C78.1837 25.1483 75.4173 25.1723 72.6487 25.1331C71.8162 25.1222 71.543 25.469 71.5496 26.239C71.5671 28.0932 71.5496 29.9474 71.5605 31.8016C71.5627 32.2553 71.5562 32.6982 71.3376 33.1104" stroke="#C0CCD8" stroke-linecap="round" stroke-linejoin="round"/>
<path d="M58.3354 51.2214C57.988 50.7241 57.9639 50.2136 57.9661 49.5854C57.977 45.9861 58.1344 42.3846 57.9049 38.7874C57.8612 38.0981 57.8984 37.4023 57.8984 36.606C55.3876 36.606 52.9774 36.5341 50.5825 36.6649C50.0865 36.6933 49.6342 36.5777 49.1578 36.5864C47.1912 36.6279 45.2246 36.6148 43.258 36.5995C42.6352 36.5951 42.2528 36.6846 42.2594 37.4786C42.2921 42.3148 42.2834 47.1487 42.2659 51.9849C42.2637 52.6415 42.5303 52.8793 43.1509 52.8596C45.4453 52.7898 47.7397 52.8597 50.0362 52.7898C51.7778 52.7375 53.5303 52.9142 55.2806 52.7615C55.5668 52.7375 55.8465 52.936 56.0432 53.1847" stroke="#C0CCD8" stroke-linecap="round" stroke-linejoin="round"/>
<path d="M50.1426 36.9297V52.5267" stroke="#C0CCD8" stroke-linecap="round" stroke-linejoin="round"/>
<path d="M57.7893 44.6719H42.4934" stroke="#C0CCD8" stroke-linecap="round" stroke-linejoin="round"/>
<path d="M96.0302 56.8906C95.3703 57.2746 94.6492 57.0695 93.9544 57.1044C92.6804 57.1677 91.3999 56.9997 90.1304 57.2178" stroke="#C0CCD8" stroke-linecap="round" stroke-linejoin="round"/>
<path d="M486.387 83.7966C486.387 60.7029 486.379 37.6092 486.401 14.5155C486.402 12.0681 484.499 10.0008 481.863 10.0008C458.417 9.99905 434.97 10.0008 411.524 10.0008C408.864 10.0008 406.722 12.2317 407.082 14.9433C407.111 15.1666 407.085 15.3967 407.085 15.625C407.085 33.2938 407.085 50.9609 407.082 68.6297C407.082 69.141 407.029 69.6523 407 70.1636" stroke="#C0CCD8" stroke-linecap="round" stroke-linejoin="round"/>
<path d="M430.56 90.355C431.733 89.7977 432.253 88.6712 432.759 87.6179C434.961 83.0247 433.401 76.9692 428.776 74.4042C424.414 71.984 418.273 73.3049 415.7 77.8248C413.841 81.092 413.793 84.4308 415.311 87.7849C415.743 88.7393 416.548 89.5097 417.279 90.3141C418.454 91.6043 419.854 92.4105 421.431 92.8877C424.53 93.8233 427.364 93.1842 429.885 91.1373C430.142 90.9294 430.302 90.6942 430.471 90.442" stroke="#C0CCD8" stroke-linecap="round" stroke-linejoin="round"/>
<path d="M430.56 62.6664C431.82 61.9267 432.409 60.6911 432.949 59.4265C434.625 55.4878 433.608 50.8452 430.555 48.0995C429.174 46.857 427.569 46.0765 425.698 45.7782C422.164 45.2141 419.11 46.1122 416.75 48.7914C413.425 52.5717 413.336 58.484 416.819 62.2386C418.333 63.8714 420.09 65.044 422.364 65.4087C425.553 65.9217 428.252 65.0985 430.477 62.7499" stroke="#C0CCD8" stroke-linecap="round" stroke-linejoin="round"/>
<path d="M464.108 23.2109C463.595 23.2399 463.083 23.2927 462.571 23.2927C455.059 23.2979 447.547 23.2944 440.035 23.2996C439.523 23.2996 439.011 23.3524 438.499 23.3814" stroke="#C0CCD8" stroke-linecap="round" stroke-linejoin="round"/>
<path d="M464.108 50.9919C463.595 50.9629 463.083 50.9101 462.571 50.9101C455.059 50.905 447.547 50.905 440.035 50.9101C439.523 50.9101 439.011 50.9629 438.499 50.9919" stroke="#C0CCD8" stroke-linecap="round" stroke-linejoin="round"/>
<path d="M460.181 28.7503C453.466 28.7503 446.75 28.7486 440.035 28.7537C439.523 28.7537 439.011 28.8065 438.499 28.8355" stroke="#C0CCD8" stroke-linecap="round" stroke-linejoin="round"/>
<path d="M460.181 56.3596C453.466 56.3596 446.75 56.3579 440.035 56.3631C439.523 56.3631 439.011 56.4159 438.499 56.4449" stroke="#C0CCD8" stroke-linecap="round" stroke-linejoin="round"/>
<path d="M424.072 17.9219C425.16 18.0838 426.245 18.094 427.328 18.4877C430.997 19.8188 432.969 22.5065 433.605 26.193C434.111 29.1244 433.447 31.8633 431.497 34.1965C429.566 36.5059 427.099 37.9137 424.074 37.9103C421.47 37.9069 419.181 37.0189 417.284 35.0095C416.128 33.7841 415.172 32.5127 414.706 30.9549C413.156 25.7788 415.599 20.2875 420.745 18.4332C421.796 18.0548 422.899 18.0429 423.988 17.9236" stroke="#C0CCD8" stroke-linecap="round" stroke-linejoin="round"/>
<path d="M424.756 56.7012C424.944 56.3535 425.314 56.2001 425.618 56.0365C427.373 55.094 427.559 53.5141 427.382 52.3585C427.175 51.0087 425.551 49.5498 424.244 49.3725C423.172 49.2277 421.468 50.2997 420.918 51.5047C420.071 53.3607 420.715 55.1468 422.277 56.0246C422.612 56.2137 422.907 56.4728 423.219 56.7012" stroke="#C0CCD8" stroke-linecap="round" stroke-linejoin="round"/>
<path d="M424.841 28.8344C425.223 28.3503 425.848 28.2378 426.31 27.8322C428.279 26.1057 427.403 23.2612 425.243 22.0699C423.403 21.0558 420.67 23.0533 420.567 24.9996C420.487 26.5097 420.96 27.6499 422.351 28.4373C423.026 28.819 423.707 28.8906 424.393 29.0866C425.563 29.4207 426.857 29.678 427.828 30.5438C428.859 31.4641 429.759 32.4816 430.145 33.8621C430.251 34.2405 430.275 34.6598 430.563 34.9717" stroke="#C0CCD8" stroke-linecap="round" stroke-linejoin="round"/>
<path d="M453.864 61.8118C449.254 61.8118 444.645 61.8152 440.035 61.8084C439.523 61.8084 439.011 61.7555 438.499 61.7266" stroke="#C0CCD8" stroke-linecap="round" stroke-linejoin="round"/>
<path d="M453.864 34.2031H438.669" stroke="#C0CCD8" stroke-linecap="round" stroke-linejoin="round"/>
<path d="M423.218 29.1719C422.947 29.4054 422.612 29.5144 422.278 29.5928C419.94 30.1433 418.532 31.6619 417.752 33.8571C417.629 34.2048 417.47 34.5405 417.328 34.8814" stroke="#C0CCD8" stroke-linecap="round" stroke-linejoin="round"/>
<path d="M430.475 62.5766C430.097 61.0887 429.548 59.7099 428.349 58.6464C427.588 57.9698 426.758 57.4381 425.775 57.2301C425.269 57.1228 424.897 56.7444 424.327 56.7666C421.402 56.8773 418.515 58.7913 417.751 61.6392C417.672 61.9324 417.527 62.2085 417.414 62.4931" stroke="#C0CCD8" stroke-linecap="round" stroke-linejoin="round"/>
<path d="M476.571 25.8516C475.432 27.0736 474.293 28.2939 473.161 29.521C473.119 29.567 473.156 29.6863 473.156 29.7715" stroke="#C0CCD8" stroke-linecap="round" stroke-linejoin="round"/>
<path d="M471.278 27.4688C471.92 28.0806 472.293 28.9396 473.07 29.4287" stroke="#C0CCD8" stroke-linecap="round" stroke-linejoin="round"/>
<path d="M472.814 21.9297C471.107 22.4018 469.743 23.3221 468.887 24.9123C467.12 28.1948 468.879 32.3414 472.551 33.2124C475.592 33.9316 478.854 31.3001 479.165 28.5817C479.523 25.4287 477.809 22.7597 474.695 22.0098C474.094 21.8649 473.497 21.9825 472.901 21.9314" stroke="#C0CCD8" stroke-linecap="round" stroke-linejoin="round"/>
<path d="M132.435 13.9994C132.223 13.5426 131.83 13.5078 131.389 13.5078C121.508 13.5134 111.626 13.512 101.745 13.512C100.633 13.512 100.004 14.1582 100.002 15.3224C99.9981 18.1773 100.001 21.0322 100.001 23.8871C100.001 26.742 100.001 29.7361 100.001 32.6607C100.001 33.9349 100.612 34.5407 101.884 34.5407H131.18C132.337 34.5407 132.993 33.8862 132.993 32.7303C132.993 26.9049 132.989 21.0782 133 15.2528C133 14.7695 132.944 14.3504 132.505 14.069" stroke="#C0CCD8" stroke-linecap="round" stroke-linejoin="round"/>
<path d="M132.365 14.0703C129.761 16.2289 127.162 18.393 124.552 20.5433C123.353 21.5306 122.095 22.4512 120.94 23.4845C120.053 24.2783 119.149 25.0568 118.19 25.7461C116.88 26.6903 116.102 26.7112 114.796 25.6876C112.926 24.2212 111.116 22.6782 109.276 21.1727C106.605 18.9877 103.929 16.8082 101.256 14.626C101.065 14.47 100.884 14.3015 100.698 14.1399" stroke="#C0CCD8" stroke-linecap="round" stroke-linejoin="round"/>
<path d="M112.416 24.0234C110.913 25.5108 109.174 26.7224 107.593 28.1192C106.158 29.3865 104.624 30.541 103.141 31.7539C102.273 32.4642 101.42 33.1911 100.559 33.9111" stroke="#C0CCD8" stroke-linecap="round" stroke-linejoin="round"/>
<path d="M120.508 24.0938C123.717 26.7161 126.929 29.3342 130.131 31.9649C130.894 32.5916 131.622 33.2614 132.366 33.9118" stroke="#C0CCD8" stroke-linecap="round" stroke-linejoin="round"/>
<path d="M336.267 41.6077C338.45 40.3265 340.056 38.4881 341.272 36.3063C342.831 33.5104 343.08 30.4928 342.65 27.383C342.613 27.1181 342.569 26.8356 342.448 26.6021C342.086 25.9056 341.624 25.8232 340.983 26.3039C339.612 27.332 338.603 28.6642 337.735 30.1259C335.811 33.3652 335.227 36.8733 335.919 40.5188C336.247 42.2513 335.439 43.6208 335.068 45.1335C334.771 46.3342 334.333 47.5036 333.894 48.6651C333.704 49.1713 333.655 49.6383 333.81 50.1425" stroke="#C0CCD8" stroke-linecap="round" stroke-linejoin="round"/>
<path d="M314.254 86.4361C313.552 85.5454 313.923 84.4722 313.784 83.4892C313.222 79.4984 311.822 75.9668 308.55 73.3906C308.143 73.0708 307.727 72.7491 307.271 72.5156C306.353 72.0447 305.718 72.3743 305.303 73.3848C304.696 74.8661 305.122 76.3043 305.525 77.6993C306.793 82.0863 309.537 85.3335 313.467 87.6134" stroke="#C0CCD8" stroke-linecap="round" stroke-linejoin="round"/>
<path d="M327.814 63.9709C328.675 64.7969 329.829 64.7655 330.863 64.8205C334.634 65.0206 338.186 64.2142 341.372 62.1011C341.894 61.7558 342.376 61.3594 342.759 60.8375C343.376 59.9978 343.268 59.4229 342.36 58.8657C340.888 57.9612 339.243 57.9651 337.643 58.1123C334.656 58.3889 332.15 59.7918 329.976 61.8127C329.505 62.2502 329.058 62.6642 328.42 62.9291C327.655 63.2449 327.429 64.071 327.069 64.8263C326.279 66.4843 325.44 68.1324 324.562 69.753C323.856 71.0538 323.074 72.3134 322.305 73.5809C322.075 73.9596 322.123 74.3598 322.115 74.762" stroke="#C0CCD8" stroke-linecap="round" stroke-linejoin="round"/>
<path d="M327.716 63.2869C327.278 62.9278 327.244 62.4393 327.217 61.9134C326.953 57.079 324.89 53.1824 321.034 50.2394C320.572 49.8862 320 49.5252 319.479 49.7822C318.844 50.0942 318.595 50.7535 318.565 51.5128C318.477 53.7495 319.263 55.7233 320.358 57.5911C321.836 60.1143 323.803 62.1803 326.334 63.693C326.629 63.8696 326.896 63.9834 327.227 63.9736" stroke="#C0CCD8" stroke-linecap="round" stroke-linejoin="round"/>
<path d="M332.826 50.532C332.459 50.218 332.435 49.8021 332.427 49.3548C332.345 44.8382 330.562 41.0927 327.221 38.077C326.073 37.0411 325.344 37.7062 325.081 38.8618C324.672 40.6551 325.167 42.4151 325.79 44.0416C326.854 46.8257 328.687 49.0997 331.156 50.8243C331.626 51.152 332.123 51.409 332.728 51.3148" stroke="#C0CCD8" stroke-linecap="round" stroke-linejoin="round"/>
<path d="M332.924 51.8107C334.135 52.6033 335.53 52.5523 336.853 52.468C340.387 52.2443 343.36 50.7473 345.801 48.1849C346.359 47.5982 346.979 46.9037 346.635 46.1424C346.249 45.2889 345.235 45.3615 344.424 45.4478C340.725 45.8383 337.409 47.1273 334.691 49.7486C334.575 49.8604 334.445 49.984 334.298 50.039C333.421 50.3647 333.113 50.9768 332.751 51.8794C331.857 54.1102 331.047 56.3803 330.07 58.5777C329.644 59.5391 329.172 60.4848 328.693 61.4227C328.463 61.87 328.296 62.3036 328.502 62.8" stroke="#C0CCD8" stroke-linecap="round" stroke-linejoin="round"/>
<path d="M321.034 76.0865C321.087 75.3429 321.57 74.9191 322.217 74.7798C323.398 74.5247 324.09 73.5516 325.055 72.9826C328.267 71.0833 331.631 70.328 335.281 71.4385C335.794 71.5954 336.307 71.8269 336.749 72.1271C337.545 72.6667 337.573 73.5339 336.853 74.2697C335.421 75.7353 333.569 76.42 331.645 76.9125C328.434 77.7366 325.222 77.6561 322.013 76.836C321.527 76.7124 321.27 76.2984 320.837 76.1356" stroke="#C0CCD8" stroke-linecap="round" stroke-linejoin="round"/>
<path d="M321.427 75.0596C320.68 74.4514 320.889 73.5587 320.861 72.8033C320.708 68.32 318.747 64.8159 315.234 62.1122C314.598 61.6217 313.843 61.0664 313.098 61.5589C312.276 62.1024 312.094 63.1168 312.202 64.0723C312.491 66.6602 313.444 69.0166 314.949 71.1316C316.229 72.9289 317.697 74.5397 319.643 75.6757C320.002 75.8856 320.421 75.9661 320.739 76.2388" stroke="#C0CCD8" stroke-linecap="round" stroke-linejoin="round"/>
<path d="M628.021 48.3289C630.461 46.6301 631.185 44.0141 631.702 41.3214C632.266 38.3957 631.947 35.5378 630.831 32.7684C630.715 32.4794 630.686 32.1461 630.523 31.8895C629.667 30.5447 628.653 30.4562 627.743 31.748C626.706 33.2167 625.988 34.8919 625.542 36.6114C624.703 39.8526 624.697 43.0762 626.219 46.2025C626.641 47.0725 627.141 47.7627 627.894 48.3201C627.708 53.2631 627.212 58.268 627.43 63.2936" stroke="#C0CCD8" stroke-linecap="round" stroke-linejoin="round"/>
<path d="M626.248 86.0095C627.997 86.5964 629.321 85.4432 630.494 84.6292C634.937 81.5502 637.581 77.0643 639.484 72.1272C639.64 71.7231 640.078 70.9593 639.404 70.3664C638.657 69.7087 638.042 70.2839 637.484 70.5493C633.162 72.6079 630.116 75.9141 628.16 80.2554C627.764 81.1343 627.392 82.0604 626.393 82.4704" stroke="#C0CCD8" stroke-linecap="round" stroke-linejoin="round"/>
<path d="M627.135 67.2754C628.178 67.5939 629.117 67.1103 629.927 66.6561C635.469 63.5446 638.134 58.4069 639.685 52.526C639.747 52.2959 639.697 52.0364 639.691 51.7916C639.664 50.5647 639.283 50.314 638.219 50.9127C635.445 52.4729 633.15 54.5404 631.401 57.2331C630.42 58.7431 629.581 60.2944 628.869 61.949C628.488 62.8338 627.728 63.5976 626.547 63.5151" stroke="#C0CCD8" stroke-linecap="round" stroke-linejoin="round"/>
<path d="M626.248 63.0028C625.788 62.6784 625.788 62.1711 625.619 61.6904C624.284 57.874 622.647 54.2169 619.303 51.6539C618.795 51.2646 618.248 50.9137 617.678 50.6246C616.304 49.9227 615.648 50.3651 615.823 51.7896C616.57 57.9625 618.93 63.2712 624.629 66.539C625.359 66.9578 625.43 66.9284 626.759 66.6806C627.427 67.8426 626.81 69.0666 626.792 70.2316C626.751 73.0363 626.408 75.8352 626.275 78.64C626.237 79.4776 626.121 80.2297 625.66 80.9257" stroke="#C0CCD8" stroke-linecap="round" stroke-linejoin="round"/>
<path d="M616.794 69.4922C615.867 71.5567 616.599 73.5593 617.108 75.5323C618.068 79.2514 619.926 82.4249 623.146 84.6811C623.988 85.2709 624.866 85.7546 626.157 85.501C625.69 89.6418 625.823 93.7236 625.805 97.8054" stroke="#C0CCD8" stroke-linecap="round" stroke-linejoin="round"/>
<path d="M625.953 85.4155C626.505 83.4926 626.272 81.8351 624.981 80.1333C623.941 78.7649 623.598 76.8861 622.668 75.4085C621.17 73.0344 619.613 70.6425 616.942 69.3418C616.599 69.1737 616.653 68.8847 616.65 68.6016" stroke="#C0CCD8" stroke-linecap="round" stroke-linejoin="round"/>
<path d="M593.296 22.3281C593.346 22.6732 593.287 23.089 593.458 23.3486C597.299 29.1321 597.16 35.1517 594.637 41.354C593.798 43.4156 592.826 45.3651 591.317 47.0196C589.641 45.7426 589.65 45.7455 589.816 44.0025C589.848 43.6633 589.842 43.2947 589.739 42.9732C588.244 38.3133 588.557 33.6741 590.082 29.1203C590.773 27.0588 591.42 24.8734 593.293 23.4312" stroke="#C0CCD8" stroke-linecap="round" stroke-linejoin="round"/>
<path d="M581.479 36.4829C581.198 31.534 579.325 27.1513 576.424 23.2346C574.37 20.4623 571.948 17.9967 568.772 16.4306C568.435 16.2654 568.078 16.1445 567.717 16C567.076 16.525 566.973 17.2712 567.005 18.0498C567.327 26.0483 570.418 32.3244 578.081 35.7485C579.077 36.1938 580.055 36.6775 581.183 36.6274C581.818 36.6008 582.244 36.9371 582.666 37.3618C584.513 39.2228 586.22 41.2047 587.819 43.2751C588.271 43.8591 588.687 44.4283 589.455 44.5934" stroke="#C0CCD8" stroke-linecap="round" stroke-linejoin="round"/>
<path d="M600.83 60.2258C600.88 58.996 601.001 57.7661 600.965 56.5392C600.776 50.2513 602.366 44.5119 606.156 39.4392C606.381 39.1383 606.724 38.923 607.087 38.6016C608.372 39.8108 608.641 41.4506 608.922 42.9783C609.87 48.1543 608.874 52.9646 606.032 57.4446C604.945 59.1582 604.038 60.9602 602.307 62.1429" stroke="#C0CCD8" stroke-linecap="round" stroke-linejoin="round"/>
<path d="M579.854 60.5234C581.189 62.47 583.248 63.3961 585.328 64.1894C590.454 66.1448 595.491 65.9206 600.401 63.3548C600.966 63.0598 601.415 62.703 601.864 62.293" stroke="#C0CCD8" stroke-linecap="round" stroke-linejoin="round"/>
<path d="M589.603 45.776C588.941 46.0267 588.309 45.9706 587.68 45.6315C582.581 42.8768 577.348 42.753 572.028 44.903C570.834 45.3867 569.49 45.6905 568.674 47.0294C570.347 48.8875 572.571 49.8873 574.843 50.4359C580.14 51.7159 585.245 50.8901 590.04 48.2711C590.274 48.1443 590.439 47.8877 590.637 47.6901" stroke="#C0CCD8" stroke-linecap="round" stroke-linejoin="round"/>
<path d="M611.761 80.3523C610.939 78.8924 610.804 77.1995 610.032 75.6865C607.43 70.5842 604.824 65.4966 601.276 60.9606C601.125 60.766 600.983 60.4002 600.833 60.3973C598.094 60.3383 596.02 58.4242 593.456 57.8344C588.581 56.7136 584.099 57.6161 579.883 60.1201C579.668 60.2469 579.484 60.3177 579.266 60.3708" stroke="#C0CCD8" stroke-linecap="round" stroke-linejoin="round"/>
<path d="M591.523 47.5391C594.333 50.7273 596.773 54.2015 599.314 57.5962C599.725 58.1418 600.064 58.6255 600.682 58.8939" stroke="#C0CCD8" stroke-linecap="round" stroke-linejoin="round"/>
<path d="M257.179 37.2688C258.528 36.9448 259.389 35.9641 260.126 34.9182C262.03 32.2139 261.925 28.9343 260.157 25.9862C259.134 24.2799 257.834 22.783 256.732 21.1395C255.823 19.7831 255.24 18.3194 254.828 16.7573C254.312 14.8008 253.835 12.821 252.852 11.0309C251.196 8.01376 249.047 5.43641 246.01 3.69806C244.513 2.84182 242.908 2.26155 241.196 2.08045C239.61 1.9129 238.022 1.97326 236.508 2.58803C235.775 2.88494 235.065 3.22621 234.479 3.76582C234.311 3.92106 234.139 3.90258 233.98 3.87424C231.498 3.43811 229.379 4.26725 227.507 5.79985C225.164 7.71808 223.843 10.3361 222.681 13.0576C221.869 14.9573 221.553 16.9778 221.155 18.9761C220.641 21.5633 219.702 23.925 217.944 25.9418C216.888 27.1541 215.975 28.4822 215.412 30.0025C214.518 32.4197 214.486 34.7863 216.091 36.9559C217.12 38.3481 218.516 39.1057 220.28 39.1168" stroke="#C0CCD8" stroke-linecap="round" stroke-linejoin="round"/>
<path d="M195.782 20.081C195.193 19.7003 195.333 19.0116 195.114 18.4744C194.933 18.0309 194.844 17.5504 194.609 17.1242C194.393 16.7336 194.129 16.3295 193.627 16.4638C193.117 16.5993 192.956 17.0601 193.01 17.5554C193.14 18.7479 193.262 19.943 193.444 21.1282C193.795 23.4074 194.023 25.705 194.485 27.967C194.707 29.0536 194.925 30.1415 195.354 31.169C196.041 32.8186 196.121 34.5348 195.969 36.283C195.819 38.0078 195.673 39.7314 195.537 41.4574C195.346 43.9004 195.152 46.3435 194.985 48.7878C194.86 50.6136 194.759 52.4419 194.676 54.2702C194.572 56.5482 194.421 58.8261 194.495 61.1078C194.55 62.8116 194.669 64.5241 195.42 66.0937C196.303 67.9368 197.822 68.8447 199.854 68.9322C202.477 69.0456 204.855 68.1597 207.195 67.1372C208.323 66.6444 209.404 66.0407 210.536 65.5553C211.302 65.2276 211.941 64.6646 212.752 64.4342" stroke="#C0CCD8" stroke-linecap="round" stroke-linejoin="round"/>
<path d="M286.18 49.3399C285.219 47.742 283.896 46.558 282.171 45.8275C281.161 45.4 280.084 45.2509 279.024 45.0267C278.296 44.8727 278.217 44.2049 278.056 43.6678C277.922 43.2181 278.201 42.7881 278.599 42.5811C279.021 42.3631 279.504 42.5393 279.947 42.6317C281.567 42.9705 283.063 43.616 284.522 44.3983C286.241 45.3211 287.611 47.8923 287.363 49.8352C287.178 51.2766 286.733 52.6343 286.175 53.9587C285.523 55.5097 284.707 56.982 283.911 58.4653C283.184 59.8205 282.651 61.2706 282.115 62.7108C281.09 65.468 279.942 68.1759 278.85 70.906C277.981 73.0781 277.192 75.2833 276.119 77.3667C274.982 79.5732 273.667 81.6626 271.865 83.4047C271.124 84.1205 270.281 84.6872 269.273 84.941C267.66 85.3476 266.22 84.941 264.957 83.8963C263.689 82.8466 262.789 81.4865 262.007 80.0734C260.547 77.4356 259.223 74.7265 258.041 71.9508C257.942 71.7167 257.837 71.4715 257.55 71.3951" stroke="#C0CCD8" stroke-linecap="round" stroke-linejoin="round"/>
<path d="M284.761 44.4799C285.151 43.3797 285.292 42.2204 285.558 41.0907C285.769 40.1938 285.91 39.2796 286.128 38.384C286.253 37.869 286.133 37.4181 285.934 36.9647C285.669 36.3672 285.065 36.3857 284.575 36.3007C281.796 35.8214 279.014 35.357 276.246 34.8149C275.146 34.5993 274.632 34.9874 274.396 36.1023C273.409 40.763 272.421 45.4249 271.434 50.0855C271.199 51.1931 270.879 52.2834 270.759 53.4119C270.67 54.2509 270.819 54.8854 272.113 55.1318C273.611 55.4176 275.115 55.6665 276.616 55.9375C277.954 56.179 279.29 56.4291 280.627 56.6755" stroke="#C0CCD8" stroke-linecap="round" stroke-linejoin="round"/>
<path d="M205.223 54.3357C204.931 53.8995 205.015 53.3956 204.981 52.9189C204.845 51.0302 204.723 49.1416 204.608 47.2517C204.515 45.7326 204.444 44.2123 204.359 42.6933C204.238 40.5582 204.097 38.4232 203.996 36.2869C203.953 35.385 203.955 34.4783 204.003 33.5777C204.028 33.1194 204.273 32.7005 204.477 32.2804C205.527 30.1219 206.36 27.876 207.196 25.6301C207.798 24.01 208.405 22.3911 208.977 20.7612C209.138 20.2992 209.14 19.7842 208.856 19.3518C208.515 18.8331 207.938 18.7617 207.448 19.167C207.03 19.512 206.747 19.9604 206.512 20.4532C206.089 21.3415 205.779 22.2975 205.097 23.0404C204.576 23.6084 204.043 24.1652 203.492 24.7036C202.72 25.4588 202.026 26.2756 201.528 27.2354C201.209 27.8477 201.118 28.5364 200.966 29.2029" stroke="#C0CCD8" stroke-linecap="round" stroke-linejoin="round"/>
<path d="M244.344 36.1016C244.708 36.4404 244.599 36.9245 244.699 37.3373C244.889 38.1294 244.814 39.0054 245.516 39.6128C245.875 41.186 247.272 41.5901 248.492 41.9006C250.018 42.2899 251.577 42.5893 253.108 42.9934C254.763 43.4307 256.234 44.218 257.543 45.2874C259.775 47.1132 261.218 49.4934 262.384 52.1077C263.743 55.1557 264.948 58.2628 266.189 61.3576C266.494 62.1189 266.813 62.8742 267.111 63.638C267.288 64.0926 267.048 64.4129 266.559 64.3723C266.226 64.3439 265.93 64.4523 265.633 64.5632C263.061 65.5353 260.665 66.8473 258.353 68.3221C258.209 68.4145 258.142 68.5783 258.103 68.7496C257.912 69.5898 257.738 70.4522 257.492 71.2579C257.197 72.2287 257.08 73.1885 256.997 74.1704C256.859 75.8114 256.733 77.4549 256.627 79.0984C256.508 80.9451 256.442 82.7956 256.301 84.6411C256.254 85.246 256.501 85.7672 256.647 86.2994C257.614 89.8512 258.348 93.4536 258.886 97.0892C259.285 99.7836 259.565 102.498 259.774 105.217C259.819 105.813 259.895 106.408 259.956 107.003" stroke="#C0CCD8" stroke-linecap="round" stroke-linejoin="round"/>
<path d="M237.464 7.08594C237.826 7.68839 237.474 8.30439 237.396 8.86741C237.027 11.51 235.813 13.7745 233.979 15.7112C233.089 16.6512 232.231 17.5949 231.732 18.8417C231.366 19.7521 230.636 20.463 229.906 21.132C229.594 21.4178 229.282 21.3168 228.982 21.1295C228.413 20.7747 227.843 20.4519 227.128 20.511C226.569 20.5579 226.152 20.7735 225.826 21.2502C224.479 23.2251 225.211 27.0875 228.428 27.8969C229.056 28.0546 229.674 27.7909 230.277 27.6" stroke="#C0CCD8" stroke-linecap="round" stroke-linejoin="round"/>
<path d="M237.68 7.64062C238.256 8.23568 238.809 8.85538 239.413 9.4221C241.07 10.9806 243.03 11.9539 245.27 12.3888C246.699 12.666 248.137 12.8015 249.59 12.7485C250.009 12.7325 250.209 12.8273 250.285 13.3054C250.562 15.0523 250.899 16.7882 251.148 18.5414C251.363 20.0604 251.585 21.5758 251.776 23.0985C251.903 24.1125 251.935 25.1252 251.853 26.1182C251.604 29.0663 250.699 31.7619 248.417 33.8169C247.438 34.6978 246.268 35.2226 245.039 35.7019C243.868 36.1602 242.772 36.0284 241.633 35.7906C240.377 35.5282 239.203 35.0575 238.117 34.3726C237.875 34.2198 237.666 34.0103 237.375 33.9438" stroke="#C0CCD8" stroke-linecap="round" stroke-linejoin="round"/>
<path d="M230.399 27.2891C230.237 27.8546 230.681 28.2402 230.848 28.6997C231.168 29.5781 231.686 30.3715 232.265 31.0959C232.758 31.7156 232.935 32.3624 233.016 33.1374C233.171 34.6195 233.088 36.0966 233.103 37.575C233.11 38.2871 232.895 38.9413 232.599 39.6251C232.06 40.8669 231.121 41.5125 229.969 42.0176C229.408 42.264 228.812 42.2295 228.237 42.301C226.271 42.5412 224.307 42.7987 222.378 43.2508C219.911 43.8299 217.708 44.9855 215.647 46.4417C212.688 48.5349 209.895 50.8449 207.02 53.0489C206.462 53.4764 205.992 54.021 205.343 54.3265C205.044 54.467 205.1 54.7134 205.1 54.9475C205.096 56.0969 205.102 57.2476 205.096 58.3971C205.095 58.6644 205.058 58.9305 205.037 59.1979" stroke="#C0CCD8" stroke-linecap="round" stroke-linejoin="round"/>
<path d="M221.081 61.4141C221.404 62.5635 221.477 63.7573 221.693 64.9265C222.086 67.0652 222.49 69.2015 222.923 71.3341C223.477 74.0605 224.214 76.7488 224.555 79.5232C224.745 81.0657 224.746 82.6082 224.709 84.1445C224.694 84.7469 224.194 85.3358 223.919 85.9321C222.512 88.9801 221.374 92.1241 220.449 95.352C219.761 97.7494 219.362 100.204 218.796 102.624C218.782 102.687 218.756 102.748 218.736 102.809" stroke="#C0CCD8" stroke-linecap="round" stroke-linejoin="round"/>
<path d="M248.417 42.0156C248.003 44.8739 246.332 46.7477 243.721 47.79C241.986 48.4824 240.169 48.6167 238.295 48.3136C234.406 47.6865 231.572 45.6439 229.72 42.2004" stroke="#C0CCD8" stroke-linecap="round" stroke-linejoin="round"/>
<path d="M220.835 32.5859C220.785 33.7169 220.696 34.843 220.89 35.9752C221.326 38.518 222.891 39.8757 225.216 40.472C227.117 40.9598 228.936 40.4596 230.772 40.0506C231.327 39.9274 231.821 39.527 232.435 39.6699" stroke="#C0CCD8" stroke-linecap="round" stroke-linejoin="round"/>
<path d="M256.994 52.1797C256.938 52.4372 257.099 52.6343 257.175 52.8585C257.91 55.0342 258.604 57.2321 258.888 59.5126C259.207 62.0702 259.12 64.6303 258.48 67.1497C258.388 67.5095 258.195 67.8741 258.413 68.2573" stroke="#C0CCD8" stroke-linecap="round" stroke-linejoin="round"/>
<path d="M256.685 33.3281C256.685 36.041 254.924 38.5272 252.309 39.6224C251.012 40.1657 249.711 40.1842 248.354 39.9969C247.607 39.8935 246.868 39.7789 246.132 39.6212C245.959 39.5842 245.763 39.6532 245.578 39.6742" stroke="#C0CCD8" stroke-linecap="round" stroke-linejoin="round"/>
<path d="M277.356 56.2422C277.077 57.1255 276.503 57.8499 276.058 58.6434C274.057 62.2063 271.824 65.6214 269.523 68.9958C268.654 70.2722 267.841 71.5867 266.98 72.868C266.844 73.0701 266.729 73.2475 266.743 73.4902" stroke="#C0CCD8" stroke-linecap="round" stroke-linejoin="round"/>
<path d="M204.482 23.5283C203.917 22.4257 203.758 21.2208 203.623 20.0171C203.375 17.786 203.29 15.5437 203.182 13.304C203.134 12.3134 202.234 11.6913 201.524 12.141C201.27 12.3023 201.068 12.5451 200.841 12.7496" stroke="#C0CCD8" stroke-linecap="round" stroke-linejoin="round"/>
<path d="M206.272 53.8984C207.1 54.7978 207.991 55.6331 208.75 56.6014C210.373 58.6712 211.597 60.9566 212.557 63.3885C212.824 64.0624 212.978 64.7807 213.183 65.4792" stroke="#C0CCD8" stroke-linecap="round" stroke-linejoin="round"/>
<path d="M278.467 44.7846C278.014 45.0064 277.567 44.8709 277.108 44.792C276.329 44.6578 275.976 45.2738 276.064 45.8934C276.187 46.7682 276.443 46.9591 277.355 47.1316C280.5 47.7279 283.209 49.0856 285.193 51.6838" stroke="#C0CCD8" stroke-linecap="round" stroke-linejoin="round"/>
<path d="M197.818 13.2431C197.716 13.1815 197.606 13.1286 197.511 13.0571C196.785 12.515 195.96 12.8218 195.789 13.7372C195.599 14.7573 195.741 15.7909 195.789 16.8159C195.833 17.7215 195.994 18.622 196.009 19.5276C196.018 20.0364 195.783 20.5477 195.967 21.0663C196.173 21.6466 196.156 22.254 196.213 22.8527" stroke="#C0CCD8" stroke-linecap="round" stroke-linejoin="round"/>
<path d="M200.935 20.329C200.916 18.1717 200.726 16.0194 200.778 13.861C200.793 13.2487 200.756 12.6585 200.492 12.0659C200.203 11.4167 199.545 10.9534 199.175 11.0224C198.637 11.1235 198.231 11.7345 198.116 12.4417C197.846 14.0987 198.223 15.7287 198.268 17.3709C198.302 18.6436 198.423 19.915 198.374 21.1901" stroke="#C0CCD8" stroke-linecap="round" stroke-linejoin="round"/>
<path d="M224.105 59.6328C223.359 59.7178 222.814 60.2266 222.198 60.5679C219.427 62.103 216.675 63.6713 213.927 65.2458C213.542 65.4663 213.122 65.5994 212.739 65.8359C212.255 66.1341 211.683 65.9049 211.207 65.3616" stroke="#C0CCD8" stroke-linecap="round" stroke-linejoin="round"/>
<path d="M276.369 46.875C275.724 47.3308 275.592 47.9912 276.068 48.6565C276.393 49.1099 276.654 49.5115 276.589 50.1435C276.535 50.6696 276.896 51.1587 277.292 51.5591C278.172 52.4486 279.186 53.1754 280.204 53.8851C281.006 54.4444 281.261 55.0752 280.885 55.9955C280.663 56.5388 280.613 57.1289 280.752 57.7166" stroke="#C0CCD8" stroke-linecap="round" stroke-linejoin="round"/>
<path d="M276.74 49.5859C277.616 49.6549 278.412 50.0122 279.203 50.3375C280.955 51.0606 282.397 52.2569 283.765 53.5382C283.881 53.6466 283.97 53.6343 284.084 53.6515" stroke="#C0CCD8" stroke-linecap="round" stroke-linejoin="round"/>
<path d="M240.58 27.7188C242.318 29.0185 244.944 29.1651 246.566 27.9035" stroke="#C0CCD8" stroke-linecap="round" stroke-linejoin="round"/>
<path d="M266.743 64.4922C267.32 65.909 267.891 67.327 268.475 68.7414C268.597 69.0383 268.76 69.3179 268.903 69.605" stroke="#C0CCD8" stroke-linecap="round" stroke-linejoin="round"/>
<path d="M239.654 16.4453C238.925 16.449 238.21 16.4527 237.488 16.672C236.775 16.8888 236.217 17.2363 235.828 17.8621" stroke="#C0CCD8" stroke-linecap="round" stroke-linejoin="round"/>
<path d="M248.911 15.4607C248.613 15.5284 248.428 15.2734 248.173 15.2069C247.143 14.9383 246.22 15.2118 245.332 15.7071" stroke="#C0CCD8" stroke-linecap="round" stroke-linejoin="round"/>
<path d="M229.35 24.9503C229.242 23.9746 228.354 22.9914 226.696 23.1023" stroke="#C0CCD8" stroke-linecap="round" stroke-linejoin="round"/>
<path d="M244.406 21.25C244.677 21.7995 245.165 22.1789 245.521 22.6631C245.793 23.0315 246.093 23.3752 246.199 23.8532C245.824 24.5715 245.118 24.7181 244.406 24.8536" stroke="#C0CCD8" stroke-linecap="round" stroke-linejoin="round"/>
<path d="M521.67 11.3984C519.624 12.296 518.223 14.4605 518.308 16.6251C518.345 17.5803 518.807 18.404 519.197 19.2348C521.079 23.2594 523.874 26.5378 527.251 29.3313C528.05 29.9928 528.886 30.5875 529.818 31.0471C531.875 32.0636 534.882 31.3247 536.092 29.4088C536.449 28.8411 536.538 28.1418 536.023 27.5272C534.968 26.271 533.583 25.433 532.3 24.4651C531.985 24.2272 531.682 24.384 531.42 24.5625C531.216 24.7012 531.064 24.9175 530.883 25.0941C529.666 26.2818 528.978 25.9376 528.156 25.1644C526.743 23.8361 525.366 22.4628 524.305 20.7848C523.685 19.8044 523.536 18.7248 524.588 17.7011C525.846 16.4773 525.832 16.4197 524.95 14.9111C524.496 14.1361 524.09 13.3323 523.61 12.5753C523.185 11.9049 522.615 11.402 521.759 11.3984" stroke="#C0CCD8" stroke-linecap="round" stroke-linejoin="round"/>
<path d="M525.833 5C523.856 5.17663 521.948 5.65604 520.169 6.54278C516.394 8.42438 513.74 11.4324 512.216 15.3741C510.439 19.9717 510.608 24.591 512.734 29.0571C515.217 34.2712 519.259 37.3874 524.947 38.2615C532.365 39.4005 539.488 34.5541 541.796 27.2656C543.24 22.7076 543.135 18.301 540.976 14.0151C537.966 8.04409 533.147 5.03425 526.542 5.0018C526.335 5.0018 526.129 5.0018 525.922 5.0018" stroke="#C0CCD8" stroke-linecap="round" stroke-linejoin="round"/>
</g>
<defs>
<clipPath id="clip0_1416_59855">
<rect width="661" height="72" fill="white"/>
</clipPath>
</defs>
</svg>
