<svg width="661" height="72" viewBox="0 0 661 72" fill="none" xmlns="http://www.w3.org/2000/svg">
<g clip-path="url(#clip0_1587_106870)">
<path d="M46.4571 7.61911C46.134 7.23277 45.745 7.30096 45.3192 7.41505C35.7764 9.9778 26.2305 12.5342 16.6863 15.0915C15.6124 15.3793 15.1719 16.1663 15.4719 17.2912C16.2067 20.0499 16.9483 22.8068 17.6872 25.5644C18.4261 28.3221 19.2011 31.2142 19.958 34.0391C20.2878 35.2699 21.0348 35.6969 22.2637 35.3676L50.5608 27.7854C51.6792 27.4858 52.1431 26.6838 51.844 25.5673C50.3362 19.9405 48.8241 14.3133 47.3272 8.68354C47.2021 8.21677 47.0397 7.82631 46.5425 7.66832" stroke="#C0CCD8" stroke-linecap="round" stroke-linejoin="round"/>
<path d="M46.4077 7.70245C44.4506 10.4616 42.5003 13.2246 40.5357 15.9771C39.6338 17.241 38.6566 18.4558 37.8084 19.7529C37.1568 20.7493 36.4851 21.7352 35.7378 22.6491C34.7169 23.9002 33.9704 24.1218 32.4443 23.4711C30.2577 22.5388 28.1107 21.5166 25.9437 20.5387C22.7978 19.1195 19.6492 17.7069 16.5026 16.2907C16.2777 16.1895 16.0589 16.0737 15.8378 15.9657" stroke="#C0CCD8" stroke-linecap="round" stroke-linejoin="round"/>
<path d="M29.7158 22.4857C28.6482 24.3116 27.2828 25.9318 26.1163 27.6904C25.0591 29.2857 23.8756 30.798 22.7572 32.3535C22.1029 33.2641 21.4664 34.1872 20.8213 35.1055" stroke="#C0CCD8" stroke-linecap="round" stroke-linejoin="round"/>
<path d="M37.5498 20.4609C41.3277 22.1635 45.1086 23.8609 48.8819 25.5733C49.7812 25.9812 50.658 26.4397 51.5445 26.8755" stroke="#C0CCD8" stroke-linecap="round" stroke-linejoin="round"/>
<path d="M169.467 40.6077C167.283 39.3265 165.677 37.4881 164.461 35.3063C162.902 32.5104 162.653 29.4928 163.083 26.383C163.12 26.1181 163.164 25.8356 163.286 25.6021C163.647 24.9056 164.109 24.8232 164.75 25.3039C166.122 26.332 167.13 27.6642 167.999 29.1259C169.923 32.3652 170.506 35.8733 169.815 39.5188C169.486 41.2513 170.294 42.6208 170.666 44.1335C170.962 45.3342 171.401 46.5036 171.839 47.6651C172.03 48.1713 172.079 48.6383 171.923 49.1425" stroke="#C0CCD8" stroke-linecap="round" stroke-linejoin="round"/>
<path d="M191.48 85.4361C192.181 84.5454 191.81 83.4722 191.949 82.4892C192.512 78.4984 193.911 74.9668 197.183 72.3906C197.59 72.0708 198.007 71.7491 198.463 71.5156C199.381 71.0447 200.015 71.3743 200.43 72.3848C201.037 73.8661 200.611 75.3043 200.208 76.6993C198.94 81.0863 196.197 84.3335 192.266 86.6134" stroke="#C0CCD8" stroke-linecap="round" stroke-linejoin="round"/>
<path d="M177.919 62.9709C177.058 63.7969 175.905 63.7655 174.871 63.8205C171.099 64.0206 167.548 63.2142 164.362 61.1011C163.839 60.7558 163.358 60.3594 162.974 59.8375C162.357 58.9978 162.465 58.4229 163.373 57.8657C164.845 56.9612 166.49 56.9651 168.09 57.1123C171.078 57.3889 173.583 58.7918 175.757 60.8127C176.229 61.2502 176.675 61.6642 177.314 61.9291C178.078 62.2449 178.304 63.071 178.664 63.8263C179.454 65.4843 180.293 67.1324 181.172 68.753C181.877 70.0538 182.66 71.3134 183.428 72.5809C183.658 72.9596 183.611 73.3598 183.619 73.762" stroke="#C0CCD8" stroke-linecap="round" stroke-linejoin="round"/>
<path d="M178.017 62.2869C178.455 61.9278 178.489 61.4393 178.516 60.9134C178.78 56.079 180.843 52.1824 184.699 49.2394C185.161 48.8862 185.733 48.5252 186.254 48.7822C186.889 49.0942 187.139 49.7535 187.168 50.5128C187.256 52.7495 186.47 54.7233 185.376 56.5911C183.898 59.1143 181.93 61.1803 179.399 62.693C179.104 62.8696 178.837 62.9834 178.507 62.9736" stroke="#C0CCD8" stroke-linecap="round" stroke-linejoin="round"/>
<path d="M172.907 49.532C173.274 49.218 173.298 48.8021 173.306 48.3548C173.388 43.8382 175.171 40.0927 178.512 37.077C179.66 36.0411 180.389 36.7062 180.653 37.8618C181.061 39.6551 180.566 41.4151 179.943 43.0416C178.88 45.8257 177.046 48.0997 174.578 49.8243C174.108 50.152 173.611 50.409 173.005 50.3148" stroke="#C0CCD8" stroke-linecap="round" stroke-linejoin="round"/>
<path d="M172.809 50.8107C171.598 51.6033 170.203 51.5523 168.88 51.468C165.346 51.2443 162.373 49.7473 159.932 47.1849C159.374 46.5982 158.755 45.9037 159.098 45.1424C159.484 44.2889 160.498 44.3615 161.31 44.4478C165.008 44.8383 168.324 46.1273 171.042 48.7486C171.158 48.8604 171.288 48.984 171.435 49.039C172.312 49.3647 172.62 49.9768 172.982 50.8794C173.876 53.1102 174.686 55.3803 175.663 57.5777C176.089 58.5391 176.561 59.4848 177.04 60.4227C177.27 60.87 177.437 61.3036 177.231 61.8" stroke="#C0CCD8" stroke-linecap="round" stroke-linejoin="round"/>
<path d="M184.699 75.0865C184.646 74.3429 184.163 73.9191 183.516 73.7798C182.335 73.5247 181.643 72.5516 180.678 71.9826C177.467 70.0833 174.102 69.328 170.452 70.4385C169.939 70.5954 169.426 70.8269 168.984 71.1271C168.188 71.6667 168.161 72.5339 168.88 73.2697C170.313 74.7353 172.164 75.42 174.088 75.9125C177.3 76.7366 180.511 76.6561 183.721 75.836C184.206 75.7124 184.464 75.2984 184.896 75.1356" stroke="#C0CCD8" stroke-linecap="round" stroke-linejoin="round"/>
<path d="M184.306 74.0596C185.053 73.4514 184.845 72.5587 184.872 71.8033C185.026 67.32 186.987 63.8159 190.499 61.1122C191.136 60.6217 191.891 60.0664 192.636 60.5589C193.457 61.1024 193.64 62.1168 193.532 63.0723C193.243 65.6602 192.29 68.0166 190.784 70.1316C189.505 71.9289 188.037 73.5397 186.091 74.6757C185.731 74.8856 185.313 74.9661 184.994 75.2388" stroke="#C0CCD8" stroke-linecap="round" stroke-linejoin="round"/>
<path d="M637.676 48.8507C639.607 47.5062 640.18 45.4358 640.589 43.3047C641.035 40.9892 640.783 38.7274 639.899 36.5356C639.808 36.3069 639.785 36.0431 639.656 35.84C638.978 34.7757 638.176 34.7056 637.456 35.728C636.635 36.8904 636.067 38.2162 635.714 39.5771C635.05 42.1423 635.045 44.6936 636.249 47.1678C636.584 47.8564 636.979 48.4026 637.575 48.8437C637.428 52.7558 637.035 56.7169 637.208 60.6943" stroke="#C0CCD8" stroke-linecap="round" stroke-linejoin="round"/>
<path d="M636.273 78.6679C637.657 79.1324 638.705 78.2197 639.633 77.5755C643.15 75.1386 645.242 71.5883 646.748 67.6809C646.872 67.3611 647.218 66.7566 646.685 66.2874C646.093 65.7669 645.607 66.2221 645.165 66.4321C641.744 68.0614 639.334 70.678 637.786 74.1139C637.472 74.8095 637.178 75.5424 636.388 75.8669" stroke="#C0CCD8" stroke-linecap="round" stroke-linejoin="round"/>
<path d="M636.975 63.8447C637.8 64.0968 638.543 63.714 639.184 63.3545C643.571 60.892 645.68 56.8258 646.907 52.1715C646.956 51.9894 646.916 51.784 646.912 51.5903C646.891 50.6193 646.589 50.4209 645.747 50.8947C643.552 52.1295 641.735 53.7657 640.351 55.8968C639.575 57.0919 638.911 58.3197 638.347 59.6292C638.045 60.3294 637.445 60.934 636.509 60.8686" stroke="#C0CCD8" stroke-linecap="round" stroke-linejoin="round"/>
<path d="M636.273 60.4622C635.908 60.2054 635.908 59.8039 635.775 59.4235C634.718 56.403 633.423 53.5087 630.776 51.4803C630.374 51.1722 629.941 50.8944 629.49 50.6657C628.403 50.1101 627.884 50.4602 628.022 51.5876C628.613 56.4731 630.482 60.6746 634.992 63.2609C635.569 63.5923 635.626 63.569 636.678 63.3729C637.206 64.2926 636.717 65.2612 636.703 66.1832C636.671 68.403 636.399 70.6182 636.294 72.838C636.264 73.5009 636.173 74.0961 635.808 74.647" stroke="#C0CCD8" stroke-linecap="round" stroke-linejoin="round"/>
<path d="M628.791 65.6016C628.057 67.2355 628.637 68.8204 629.039 70.3819C629.799 73.3253 631.269 75.8369 633.818 77.6226C634.484 78.0894 635.179 78.4722 636.201 78.2715C635.831 81.5487 635.936 84.7791 635.922 88.0096" stroke="#C0CCD8" stroke-linecap="round" stroke-linejoin="round"/>
<path d="M636.039 78.2056C636.477 76.6837 636.292 75.3719 635.27 74.0251C634.447 72.942 634.176 71.4551 633.439 70.2857C632.254 68.4067 631.022 66.5137 628.908 65.4843C628.637 65.3513 628.679 65.1225 628.676 64.8984" stroke="#C0CCD8" stroke-linecap="round" stroke-linejoin="round"/>
<path d="M262.964 65.7901C263.294 64.9483 263.223 64.0483 263.323 63.1767C263.706 59.823 264.049 56.4634 264.378 53.1037C264.721 49.5978 265.017 46.0875 265.36 42.5831C265.466 41.5055 264.667 40.7876 263.561 40.7891C249.283 40.7935 235.005 40.7906 220.726 40.7935C219.708 40.7935 219.117 41.3876 219.088 42.4338C219.043 43.9845 219.28 45.5188 219.398 47.0591C219.62 49.974 219.926 52.8814 220.205 55.7918C220.449 58.329 220.758 60.8633 220.926 63.405C221.004 64.5737 221.261 65.7229 221.194 66.9124C221.125 68.1214 222.065 69.0005 223.265 69.0005C235.802 69.0005 248.339 69.0005 260.876 69.0005C262.188 69.0005 263.017 68.2064 263.034 66.9109C263.039 66.5632 263.223 66.2139 263.04 65.8662" stroke="#C0CCD8" stroke-linecap="round" stroke-linejoin="round"/>
<path d="M249.606 21.0156C249.839 21.3902 249.75 21.8081 249.753 22.2096C249.762 23.329 249.781 24.4499 249.744 25.5678C249.729 26.0036 249.929 26.2081 250.28 26.311C253.338 27.2125 256.403 28.0901 259.456 29.0065C262.073 29.7931 264.603 30.711 266.796 32.4781C268.434 33.799 269.588 35.4198 270.325 37.2959C272.139 41.9107 273.67 46.6286 275.046 51.3912C275.79 53.9642 276.451 56.5627 277.14 59.1507C277.204 59.3895 277.212 59.6447 277.243 59.8791C276.954 60.0089 276.673 59.9701 276.398 59.9701C273.761 59.9716 271.125 59.9701 268.488 59.9731C268.239 59.9731 267.981 59.9268 267.742 60.0462" stroke="#C0CCD8" stroke-linecap="round" stroke-linejoin="round"/>
<path d="M234.905 21.1641C234.697 21.4088 234.759 21.7044 234.758 21.9849C234.753 23.1297 234.728 24.2744 234.768 25.4177C234.788 25.9625 234.568 26.2446 234.085 26.3893C232.84 26.761 231.597 27.1311 230.353 27.5087C227.358 28.4191 224.33 29.2236 221.397 30.3385C217.794 31.7086 215.31 34.1623 214.009 37.8055C212.155 42.995 210.424 48.2217 209 53.5485" stroke="#C0CCD8" stroke-linecap="round" stroke-linejoin="round"/>
<path d="M262.89 65.7934C249.283 65.7934 235.677 65.7934 222.07 65.7979C221.822 65.7979 221.56 65.7098 221.324 65.868" stroke="#C0CCD8" stroke-linecap="round" stroke-linejoin="round"/>
<path d="M253.935 6.98842C254.357 5.12278 254.262 3.25566 253.929 1.39301C253.789 0.609439 253.636 -0.175621 253.338 -0.921875" stroke="#C0CCD8" stroke-linecap="round" stroke-linejoin="round"/>
<path d="M231.323 -1C230.362 1.59995 229.859 4.23721 230.652 6.98492" stroke="#C0CCD8" stroke-linecap="round" stroke-linejoin="round"/>
<path d="M251.77 26.9062C251.175 28.9719 249.876 30.4524 248.043 31.542C245.639 32.9718 243.079 33.3076 240.351 32.8867C237.23 32.4047 234.818 30.9062 233.178 28.1823C232.947 27.7973 232.872 27.3659 232.666 26.9824" stroke="#C0CCD8" stroke-linecap="round" stroke-linejoin="round"/>
<path d="M253.637 11.4618C253.585 13.9005 252.676 16.0706 251.552 18.181C251.027 19.1691 250.373 20.0929 249.582 20.8392C247.999 22.3347 246.139 23.3958 243.936 23.7839C241.857 24.1511 239.872 23.863 237.971 23.0153C237.135 22.6421 236.38 22.1048 235.648 21.5407C234.189 20.4153 233.156 18.9377 232.311 17.3482C231.317 15.4751 230.722 13.4572 230.651 11.3125" stroke="#C0CCD8" stroke-linecap="round" stroke-linejoin="round"/>
<path d="M230.13 5.79303C229.931 5.79303 229.73 5.81243 229.533 5.79004C228.422 5.66617 227.828 6.00198 227.525 7.06465C226.994 8.92879 227.474 11.778 229.16 13.1048C229.64 13.4824 230.155 13.7615 230.8 13.5541" stroke="#C0CCD8" stroke-linecap="round" stroke-linejoin="round"/>
<path d="M253.487 13.5528C254.392 13.7229 255.447 13.1946 256.025 12.2841C257.004 10.7394 257.274 9.06331 256.916 7.28423C256.681 6.1156 255.887 5.62755 254.68 5.86187C254.56 5.88575 254.432 5.86486 254.307 5.86486" stroke="#C0CCD8" stroke-linecap="round" stroke-linejoin="round"/>
<path d="M374.969 28.5724C374.974 22.9859 374.974 17.4021 374.971 11.8156C374.971 8.8149 373.198 7.04642 370.202 7.04642C349.277 7.04642 328.354 7.07994 307.429 7.00002C305.098 6.99229 302.99 9.0959 303 11.429C303.088 27.9279 303.077 44.4268 303.008 60.9258C302.997 63.1067 304.936 65.597 307.687 65.5867C321.435 65.5403 335.186 65.5661 348.934 65.5661C355.938 65.5661 362.943 65.5197 369.944 65.5893C372.561 65.6151 375.023 63.4186 375 60.5365C374.922 51.3435 374.997 37.7654 374.969 28.5698" stroke="#C0CCD8" stroke-linecap="round" stroke-linejoin="round"/>
<path d="M361.309 58.6077V32.5703H353.188V58.6077" stroke="#C0CCD8" stroke-linecap="round" stroke-linejoin="round"/>
<path d="M343.519 58.6083V41.3359H335.527V58.6083" stroke="#C0CCD8" stroke-linecap="round" stroke-linejoin="round"/>
<path d="M361.049 17.7422C359.418 19.0312 357.775 20.3098 356.154 21.6117C351.294 25.5147 346.44 29.4255 341.596 33.3491C341.39 33.5167 341.307 33.8338 341.202 34.022C339.08 33.112 337.242 32.3154 335.399 31.5394C334.832 31.2997 334.252 31.2404 333.726 31.6657C328.784 35.6616 323.842 39.6548 318.902 43.6532C318.655 43.8543 318.428 44.0812 318.191 44.2952" stroke="#C0CCD8" stroke-linecap="round" stroke-linejoin="round"/>
<path d="M326.118 58.6069V50.6797H317.998C318.018 50.7003 318.062 50.7287 318.059 50.7441C317.776 51.6851 318.059 52.6338 318.01 53.5825C317.923 55.2556 317.912 56.9338 317.869 58.6095" stroke="#C0CCD8" stroke-linecap="round" stroke-linejoin="round"/>
<path d="M311.812 58.8672H366.722" stroke="#C0CCD8" stroke-linecap="round" stroke-linejoin="round"/>
<path d="M361.824 16.8438H354.606" stroke="#C0CCD8" stroke-linecap="round" stroke-linejoin="round"/>
<path d="M361.178 17.1016C361.756 19.5326 361.011 21.9146 360.92 24.3198" stroke="#C0CCD8" stroke-linecap="round" stroke-linejoin="round"/>
<path d="M119.964 12.006C119.365 12.0569 118.766 12.1497 118.167 12.1497C103.146 12.1587 88.1284 12.2006 73.1074 12.1198C69.9936 12.1018 67.9607 14.2515 67.9757 17.2455C68.0625 34.5599 68.0206 51.8772 68.0116 69.1916C68.0116 70.6168 68.2691 71.9102 69.3589 72.9401C70.1254 73.6647 70.9727 74.003 72.0565 74C80.3888 73.97 88.7242 73.982 97.0565 73.982C111.778 73.982 126.497 73.9641 141.218 73.994C144.577 74 145.643 72.0299 145.598 69.6377C145.482 63.7515 145.559 57.8623 145.559 51.973C145.559 39.9461 145.509 27.9222 145.61 15.8952C145.625 13.9132 144.015 12.1138 141.817 12.1317C135.179 12.1856 128.545 12.1557 121.907 12.1437C121.359 12.1437 120.808 12.0509 120.26 12" stroke="#C0CCD8" stroke-linecap="round" stroke-linejoin="round"/>
<path d="M126.326 44.0457C127.036 46.3841 126.269 48.6745 125.578 50.7583C122.856 58.941 117.308 64.5008 108.871 66.5936C101.662 68.3811 94.9072 66.911 88.985 62.3002C84.5479 58.8451 81.6976 54.3422 80.4401 48.8392C78.9132 42.1625 80.2215 35.9559 84.0898 30.4619C87.9281 25.0128 93.3922 21.7943 100.057 21.0218C109.216 19.9649 116.656 23.0547 122.234 30.5547C124.814 34.0248 125.979 37.929 126.539 42.1026C126.62 42.7074 126.62 43.3451 126.251 43.896" stroke="#C0CCD8" stroke-linecap="round" stroke-linejoin="round"/>
<path d="M87.0293 60.0613C92.1191 54.9715 97.2419 49.9146 102.263 44.7589C103.035 43.9655 103.772 43.8906 104.694 43.8906C111.829 43.8966 118.966 43.8936 126.101 43.8936" stroke="#C0CCD8" stroke-linecap="round" stroke-linejoin="round"/>
<path d="M102.898 21.1406C103.216 21.6137 103.036 22.1406 103.039 22.6376C103.054 29.1257 103.045 35.6107 103.057 42.0987C103.057 42.6466 103.15 43.1975 103.201 43.7454" stroke="#C0CCD8" stroke-linecap="round" stroke-linejoin="round"/>
<path d="M428.024 38C428.374 38.2157 428.765 38.1506 429.143 38.1506C432.805 38.1506 436.469 38.2319 440.127 38.1119C441.578 38.0651 443.012 39.4323 443 40.9988C442.947 47.3056 442.984 53.6123 442.973 59.9191C442.971 61.7216 441.753 62.8589 439.824 62.865C436.128 62.8772 432.433 62.8691 428.736 62.8691H419.48C417.175 62.8691 414.864 62.7735 412.565 62.8955C410.369 63.0115 408.978 61.9414 409 59.3088C409.015 57.7484 409.002 56.19 409.002 54.6296C409.002 50.2901 409.002 45.9486 409.002 41.6091C409.002 41.0578 409.049 40.5146 409.204 39.9816C409.558 38.765 410.388 38.1526 411.751 38.1526C416.701 38.1505 421.652 38.1526 426.602 38.1465C427.009 38.1465 427.416 38.0834 427.823 38.0488" stroke="#C0CCD8" stroke-linecap="round" stroke-linejoin="round"/>
<path d="M437.484 50.6641C437.043 50.6986 436.603 50.7617 436.162 50.7617C429.108 50.7678 422.057 50.7658 415.003 50.7658" stroke="#C0CCD8" stroke-linecap="round" stroke-linejoin="round"/>
<path d="M436.975 44.3047C433.551 44.321 430.125 44.3535 426.701 44.3515C422.801 44.3515 418.903 44.321 415.003 44.3047" stroke="#C0CCD8" stroke-linecap="round" stroke-linejoin="round"/>
<path d="M430.161 56.9688H414.902" stroke="#C0CCD8" stroke-linecap="round" stroke-linejoin="round"/>
<path d="M514.893 11.0708C515.38 11.371 515.924 11.2804 516.451 11.2804C519.708 11.2832 522.968 11.3654 526.223 11.2549C528.531 11.1756 529.789 12.2887 529.891 14.8237C529.964 16.6138 529.905 18.4095 529.905 20.2053C529.905 31.2035 529.882 42.2045 529.922 53.2027C529.93 55.9133 528.644 57.675 525.515 57.8733C525.231 57.8903 524.948 57.8733 524.665 57.8733C501.723 57.8733 478.78 57.8733 455.838 57.8733C454.92 57.8733 454.022 57.8591 453.141 57.4654C451.697 56.8197 451.02 55.7547 451.02 54.194C451.026 40.8818 451.04 27.5695 451 14.2573C450.994 12.7872 452.419 11.2493 454.28 11.2606C462.211 11.3116 470.141 11.2832 478.072 11.2832C489.685 11.2832 501.298 11.2832 512.911 11.2832C513.536 11.2832 514.179 11.371 514.752 11" stroke="#C0CCD8" stroke-linecap="round" stroke-linejoin="round"/>
<path d="M473.824 18.364C471.623 17.9221 469.555 18.5651 467.604 19.3837C462.001 21.7346 458.54 25.935 457.557 31.9623C456.416 38.9612 459.585 46.45 467.023 49.8093C473.781 52.8626 482.386 50.7751 486.737 45.0055C489.665 41.1251 490.963 36.8425 490.206 32.1068C489.385 26.9547 486.623 22.9751 482.038 20.3438C480.01 19.1797 477.823 18.5226 475.52 18.2394C475.016 18.1771 474.464 18.0808 473.965 18.364" stroke="#C0CCD8" stroke-linecap="round" stroke-linejoin="round"/>
<path d="M473.823 18.5078C473.52 23.6033 473.764 28.7044 473.676 33.8027C473.665 34.457 473.919 34.7488 474.511 35.1113C478.157 37.3461 481.85 39.4987 485.575 41.5975C486.303 42.0082 486.994 42.4897 487.702 42.9372" stroke="#C0CCD8" stroke-linecap="round" stroke-linejoin="round"/>
<path d="M498.04 26.2969C498.541 26.5348 499.076 26.4328 499.597 26.4357C507.293 26.4413 514.986 26.4385 522.681 26.4385" stroke="#C0CCD8" stroke-linecap="round" stroke-linejoin="round"/>
<path d="M522.681 35.5H498.606" stroke="#C0CCD8" stroke-linecap="round" stroke-linejoin="round"/>
<path d="M515.034 44.2822C509.887 44.2822 504.744 44.2851 499.597 44.2766C499.172 44.2766 498.748 44.1888 498.323 44.1406" stroke="#C0CCD8" stroke-linecap="round" stroke-linejoin="round"/>
<path d="M400.866 29.2214C400.76 28.5482 401.057 27.9424 401.187 27.3095C401.364 26.4558 401.693 25.6338 401.754 24.7324C400.819 24.2127 399.736 24.1736 398.73 23.8981C397.593 23.5862 396.448 23.2672 395.297 23.0299C393.953 22.7516 392.669 22.2611 391.307 22.0499C388.522 21.6202 387.424 19.7383 388.088 17.3388C388.819 14.7021 389.496 12.0469 390.104 9.37891C390.491 7.68324 392.27 6.26603 394.334 6.8582C397.04 7.6351 399.79 8.26534 402.521 8.95876C405.486 9.71162 408.442 10.5019 411.419 11.2049C413.584 11.7162 414.68 13.2287 414.124 15.5595C413.465 18.3257 412.759 21.0815 412.024 23.8303C411.471 25.9041 409.678 26.962 407.629 26.1246C407.073 25.8969 406.573 25.9294 405.998 26.2702C404.283 27.285 402.686 28.499 400.848 29.308" stroke="#C0CCD8" stroke-linecap="round" stroke-linejoin="round"/>
<path d="M406.68 19.7328C407.586 20.0294 408.487 19.3626 408.592 18.3926C408.687 17.5132 407.908 16.6758 407.043 16.6687C406.157 16.6631 405.407 17.4527 405.455 18.342C405.495 19.0864 405.966 19.4951 406.582 19.791" stroke="#C0CCD8" stroke-linecap="round" stroke-linejoin="round"/>
<path d="M395.034 16.8611C396.008 16.8225 396.581 16.4814 396.796 15.8132C397.063 14.9809 396.701 14.1314 395.963 13.8577C395.161 13.5611 394.259 13.8901 393.949 14.5922C393.597 15.3899 393.897 16.2649 394.664 16.684C394.762 16.7371 394.859 16.7882 394.956 16.8413" stroke="#C0CCD8" stroke-linecap="round" stroke-linejoin="round"/>
<path d="M400.906 18.2713C401.844 18.4263 402.609 17.9711 402.765 17.1653C402.912 16.4035 402.393 15.5308 401.659 15.3063C400.885 15.07 400.015 15.5002 399.76 16.2361C399.475 17.0575 399.763 17.9129 400.671 18.215C400.724 18.2316 400.763 18.2915 400.808 18.3295" stroke="#C0CCD8" stroke-linecap="round" stroke-linejoin="round"/>
<path d="M612.389 11C612.622 11.1109 612.872 11.0647 613.115 11.0647C617.364 11.0674 621.611 11.0779 625.859 11.0607C627.169 11.0555 627.851 12.0235 627.846 13.0483C627.831 16.5256 627.846 20.0043 627.838 23.4816C627.835 24.9079 627.07 25.6593 625.661 25.6606C623.24 25.6606 620.818 25.6606 618.398 25.6606H605.125C603.849 25.6606 603.034 24.9515 603.022 23.6797C602.991 20.0703 602.995 16.4596 603.021 12.8502C603.029 11.7383 603.796 11.07 604.927 11.0687C607.15 11.066 609.374 11.0687 611.596 11.066C611.817 11.066 612.045 11.107 612.257 11.0013" stroke="#C0CCD8" stroke-linecap="round" stroke-linejoin="round"/>
<path d="M621.765 14.9609C620.401 16.1931 619.038 17.4292 617.669 18.6575C616.683 19.5423 615.69 20.4205 614.698 21.3001C614.183 21.7571 613.665 22.2114 613.084 22.7238C612.63 22.2695 612.211 21.8508 611.793 21.4322C610.891 20.5302 609.996 19.6189 609.076 18.7354C608.949 18.6139 608.972 18.5162 608.953 18.3947" stroke="#C0CCD8" stroke-linecap="round" stroke-linejoin="round"/>
<path d="M573.414 8C573.131 8.13428 572.829 8.07833 572.535 8.07833C561.612 8.08152 550.688 8.09751 539.765 8.05434C538.662 8.04955 538.062 8.73373 538.069 9.76C538.106 15.8616 538.08 21.9617 538.101 28.0633C538.101 28.4981 537.818 28.9617 538.2 29.4221H538.886C551.754 29.4221 564.622 29.4221 577.491 29.4221C578.776 29.4221 579.166 29.0432 579.167 27.7436C579.172 21.3223 579.169 14.9025 579.167 8.48116C579.167 8.40124 579.151 8.31971 579.143 8.24138C578.849 8.02878 578.525 8.08952 578.21 8.07993C576.666 8.03517 575.117 8.17744 573.574 8" stroke="#C0CCD8" stroke-linecap="round" stroke-linejoin="round"/>
<path d="M574.613 13.875C573.361 14.9812 572.105 16.0826 570.856 17.1936C568.769 19.0511 566.684 20.9134 564.544 22.8236C562.349 20.8287 560.212 18.888 558.033 16.909C556.423 18.3173 554.815 19.7225 553.183 21.15C552.03 20.2228 550.892 19.3084 549.692 18.3445C547.161 20.5921 544.621 22.8492 542.081 25.1064" stroke="#C0CCD8" stroke-linecap="round" stroke-linejoin="round"/>
<path d="M585.774 62.7953C586.119 62.5644 586.508 62.6091 586.891 62.6091C593.501 62.6091 600.111 62.5942 606.721 62.6184C608.979 62.6258 609.741 61.2499 609.724 59.63C609.665 53.4558 609.7 47.2798 609.7 41.1038C609.7 39.1823 609.022 38.432 607.097 38.1043C606.779 38.0503 606.471 38.0373 606.162 38.0373C587.947 38.0298 569.73 38.0484 551.515 38C549.964 37.9963 549.005 38.7857 549.003 40.5453C548.997 46.8758 549.001 53.2063 549.001 59.5369C549.001 61.5627 550.022 62.5942 552.073 62.6053C554.339 62.6184 556.603 62.6091 558.869 62.6091C567.434 62.6091 575.999 62.6091 584.564 62.6109C584.94 62.6109 585.329 62.5346 585.681 62.7487" stroke="#C0CCD8" stroke-linecap="round" stroke-linejoin="round"/>
<path d="M604.207 43.8984C594.65 43.8984 585.09 43.8984 575.533 43.9022C574.975 43.9022 574.416 43.9599 573.857 43.9915" stroke="#C0CCD8" stroke-linecap="round" stroke-linejoin="round"/>
<path d="M604.114 50.3203H573.857" stroke="#C0CCD8" stroke-linecap="round" stroke-linejoin="round"/>
<path d="M595.642 56.7422H574.043" stroke="#C0CCD8" stroke-linecap="round" stroke-linejoin="round"/>
<path d="M565.386 46.5033C564.416 44.2597 561.588 43.5801 559.432 44.3733C557.67 45.0213 556.711 46.6002 557.38 48.4584C557.648 49.205 558.273 49.5308 558.962 49.7599C560.48 50.2644 561.994 50.7895 563.526 51.2401C564.706 51.5883 565.565 52.2734 565.73 53.4893C565.913 54.8187 565.185 55.7906 564.077 56.4591C563.256 56.9562 562.366 57.2727 561.381 57.2094" stroke="#C0CCD8" stroke-linecap="round" stroke-linejoin="round"/>
<path d="M561.383 50.875C561.192 51.8935 561.29 52.9231 561.301 53.9472C561.32 55.5615 561.173 57.1776 561.383 58.7882" stroke="#C0CCD8" stroke-linecap="round" stroke-linejoin="round"/>
<path d="M561.29 42.5C561.29 44.766 561.294 47.0301 561.286 49.296C561.286 49.6368 561.228 49.9793 561.197 50.3201" stroke="#C0CCD8" stroke-linecap="round" stroke-linejoin="round"/>
<path d="M556.728 54.5078C557.631 56.379 559.204 57.1387 561.197 57.2076" stroke="#C0CCD8" stroke-linecap="round" stroke-linejoin="round"/>
<path d="M175.011 16.387C175.008 19.3368 175.024 22.2856 175 25.2354C174.993 26.1856 175.575 27.0017 176.77 27C183.479 26.9924 190.189 26.9975 196.899 26.9958C197.914 26.9958 198.576 26.329 198.576 25.3192V9.63547C198.576 8.63993 197.936 8 196.941 8H176.644C175.632 8 175.008 8.624 175.008 9.63547C175.008 11.5226 175.008 13.4096 175.009 15.2967V16.387H175.011Z" stroke="#C0CCD8" stroke-linecap="round" stroke-linejoin="round"/>
<path d="M188.597 24.7734C188.597 22.9845 188.597 21.1947 188.597 19.4057C188.597 18.9461 188.595 18.9453 188.136 18.9444C187.115 18.9444 186.094 18.9562 185.075 18.9377C184.745 18.9319 184.646 19.035 184.648 19.3638C184.663 21.167 184.655 22.9702 184.655 24.7734" stroke="#C0CCD8" stroke-linecap="round" stroke-linejoin="round"/>
<path d="M179.12 16.9766C179.401 17.1292 179.707 17.0344 180 17.0604C180.181 17.0764 180.368 17.0252 180.597 17.1242V24.8604H192.66C192.727 24.7111 192.706 24.5534 192.706 24.3991C192.706 22.1069 192.706 19.8139 192.706 17.5217C192.706 17.0629 192.707 17.0722 193.167 17.0571C193.461 17.0479 193.766 17.1292 194.048 16.9766" stroke="#C0CCD8" stroke-linecap="round" stroke-linejoin="round"/>
<path d="M194.342 17.0345C193.932 16.7996 193.69 16.3887 193.342 16.0834C191.872 14.7876 190.427 13.4649 188.975 12.1482C188.301 11.5368 187.625 10.927 186.967 10.2988C186.743 10.085 186.599 10.0908 186.37 10.2988C184.729 11.79 183.079 13.2712 181.425 14.7473C180.62 15.4652 179.766 16.1287 179.033 16.9271C178.984 16.9808 178.897 16.9992 178.826 17.0345" stroke="#C0CCD8" stroke-linecap="round" stroke-linejoin="round"/>
<path d="M27.0858 50.6328C27.1146 50.8308 27.0807 51.0693 27.179 51.2182C29.3823 54.5361 29.3026 57.9894 27.8552 61.5475C27.3739 62.7302 26.8163 63.8486 25.9502 64.7978C24.9893 64.0651 24.9943 64.0668 25.0892 63.0669C25.1079 62.8723 25.1045 62.6608 25.0452 62.4764C24.1876 59.8031 24.3672 57.1417 25.2418 54.5294C25.6384 53.3467 26.0095 52.093 27.0841 51.2656" stroke="#C0CCD8" stroke-linecap="round" stroke-linejoin="round"/>
<path d="M20.306 58.7506C20.145 55.9115 19.0705 53.3972 17.4062 51.1503C16.2283 49.5599 14.8385 48.1454 13.0165 47.247C12.8233 47.1523 12.6183 47.0829 12.4115 47C12.0437 47.3012 11.9844 47.7292 12.003 48.1759C12.1878 52.7645 13.9606 56.3649 18.357 58.3293C18.9281 58.5847 19.4891 58.8622 20.1366 58.8335C20.501 58.8182 20.745 59.0111 20.9874 59.2547C22.0466 60.3224 23.0263 61.4593 23.9432 62.6471C24.2025 62.9821 24.4415 63.3086 24.8821 63.4034" stroke="#C0CCD8" stroke-linecap="round" stroke-linejoin="round"/>
<path d="M31.4077 72.3741C31.4365 71.6685 31.506 70.963 31.4857 70.2592C31.3772 66.6519 32.289 63.3594 34.4635 60.4493C34.5923 60.2767 34.7889 60.1532 34.9974 59.9688C35.7346 60.6624 35.8889 61.6032 36.0499 62.4796C36.5939 65.4489 36.0228 68.2085 34.3923 70.7786C33.7686 71.7616 33.2483 72.7954 32.2551 73.4738" stroke="#C0CCD8" stroke-linecap="round" stroke-linejoin="round"/>
<path d="M19.3735 72.5391C20.1396 73.6557 21.3209 74.187 22.5141 74.6421C25.4546 75.7639 28.3443 75.6353 31.1611 74.1633C31.4849 73.9941 31.7425 73.7894 32.0001 73.5542" stroke="#C0CCD8" stroke-linecap="round" stroke-linejoin="round"/>
<path d="M24.9667 64.0815C24.5871 64.2254 24.2244 64.1932 23.8634 63.9986C20.9381 62.4184 17.9365 62.3473 14.8841 63.5807C14.1994 63.8582 13.4282 64.0325 12.9604 64.8006C13.9197 65.8665 15.1959 66.4401 16.4993 66.7548C19.5381 67.4891 22.4668 67.0154 25.2175 65.5129C25.3514 65.4402 25.4463 65.293 25.5599 65.1796" stroke="#C0CCD8" stroke-linecap="round" stroke-linejoin="round"/>
<path d="M37.6782 83.917C37.207 83.0795 37.129 82.1084 36.6867 81.2404C35.1935 78.3133 33.6987 75.3947 31.6632 72.7925C31.5767 72.6808 31.4954 72.471 31.409 72.4693C29.8378 72.4355 28.6481 71.3374 27.1769 70.999C24.3805 70.3561 21.8094 70.8738 19.3908 72.3103C19.2671 72.3831 19.162 72.4237 19.0366 72.4541" stroke="#C0CCD8" stroke-linecap="round" stroke-linejoin="round"/>
<path d="M26.0684 65.0938C27.6802 66.9227 29.0801 68.9158 30.5377 70.8633C30.7732 71.1763 30.9681 71.4538 31.3224 71.6077" stroke="#C0CCD8" stroke-linecap="round" stroke-linejoin="round"/>
</g>
<defs>
<clipPath id="clip0_1587_106870">
<rect width="661" height="72" fill="white"/>
</clipPath>
</defs>
</svg>
