<svg width="358" height="247" viewBox="0 0 358 247" fill="none" xmlns="http://www.w3.org/2000/svg">
<path d="M310.34 144.23C322.192 144.129 331.389 149.158 338.4 158.579C344.13 166.28 346.885 175.06 347.936 184.44C348.82 192.319 348.601 200.174 346.879 207.963C344.656 218.016 340.943 227.407 334.983 235.872C333.217 238.38 331.156 240.655 329.428 243.157C328.298 244.794 327.025 244.899 325.385 244.899C279.236 244.879 233.091 244.885 186.943 244.885H138.925" stroke="#C0CCD8" stroke-width="2" stroke-linecap="round" stroke-linejoin="round"/>
<path d="M261.378 94.7988C262.374 95.3272 263.478 95.0042 264.529 95.1876C273.961 96.8385 280.78 102.076 283.97 110.976C287.318 120.312 285.561 129.216 278.702 136.599C274.336 141.3 268.74 143.898 262.199 144.022C250.542 144.238 242.503 138.773 238.044 128.142C236.76 125.082 236.319 121.75 236.557 118.316C236.768 115.305 237.343 112.479 238.504 109.692C240.425 105.085 243.557 101.583 247.697 98.9C251.319 96.551 255.267 95.2232 259.598 95.0617C260.102 95.0425 260.603 94.8892 261.104 94.7988" stroke="#C0CCD8" stroke-width="2" stroke-linecap="round" stroke-linejoin="round"/>
<path d="M185.717 180.88C184.534 177.242 182.667 174.088 179.143 172.281C174.177 169.735 169.252 170.794 165.219 174.072C162.423 176.341 160.515 179.243 159.973 182.931C159.823 183.947 159.905 184.941 159.877 185.943C159.861 186.597 160.362 186.917 160.956 186.887C165.334 186.682 169.714 186.915 174.089 186.846C182.207 186.717 190.324 186.86 198.439 186.742C199.236 186.731 200.049 187.155 200.835 186.693C201.092 182.731 197.979 179.027 193.653 178.145C191.4 177.688 189.385 178.384 187.513 179.536C186.957 179.878 186.453 180.314 185.856 180.607" stroke="#C0CCD8" stroke-width="2" stroke-linecap="round" stroke-linejoin="round"/>
<path d="M58.2169 178.827C58.4715 180.3 57.7159 181.595 57.3463 182.915C55.5996 189.105 54.729 195.432 54.1294 201.803C53.2998 210.597 52.5634 219.399 51.7913 228.195C51.3314 233.438 50.8495 238.678 50.4471 243.924C50.3731 244.893 49.8557 244.882 49.1904 244.879C46.4992 244.879 43.8107 244.879 41.1194 244.879C37.5165 244.879 33.9136 244.865 30.3134 244.885C29.0677 244.89 28.219 244.707 27.3456 243.439C26.0588 241.569 24.408 239.916 23.0527 238.046C19.6442 233.345 16.9557 228.258 14.8585 222.856C12.6847 217.255 11.2392 211.475 10.604 205.491C9.87577 198.602 10.207 191.807 12.1071 185.11C13.528 180.1 15.7565 175.567 19.6442 171.988C22.2561 169.584 25.3005 167.997 28.8048 167.334" stroke="#C0CCD8" stroke-width="2" stroke-linecap="round" stroke-linejoin="round"/>
<path d="M115.265 74.893C118.654 74.6767 120.428 72.314 121.792 69.6775C123.262 66.8384 123.188 63.7721 122.536 60.6674C121.748 56.9221 119.944 53.5656 118.646 50.0202C117.57 47.0743 116.987 44.0901 116.907 40.98C116.806 37.106 117.211 33.2101 116.62 29.3581C115.547 22.3904 113.135 16.047 107.593 11.3188C105.803 9.7911 103.777 8.41673 101.439 8.10189C99.621 7.85549 98.1591 7.17104 96.6478 6.26757C93.5404 4.41135 90.0634 4.05544 86.5399 4.21149C82.2936 4.4004 78.2225 5.32851 74.3567 7.18473C68.8729 9.81848 65.0455 14.0785 62.0476 19.2337C58.8773 24.6819 56.8869 30.5709 55.9506 36.7501C55.0307 42.8198 53.2018 48.5171 50.4668 53.9927C49.4812 55.9639 48.6133 58.0118 48.2026 60.2568C46.9925 66.8685 50.0725 72.5303 55.351 75.446C55.4934 75.5254 55.6248 75.6267 55.7617 75.7171" stroke="#C0CCD8" stroke-width="2" stroke-linecap="round" stroke-linejoin="round"/>
<path d="M162.459 93.3555C162.259 91.9346 162.982 90.6943 163.324 89.4021C164.019 86.782 164.367 84.151 164.225 81.4598C164.126 79.5817 163.061 77.6926 160.268 77.4982C158.817 77.3969 157.435 78.837 157.273 80.7781C156.876 85.5938 154.908 89.8046 152.321 93.7607C149.807 97.6018 148.302 101.714 148.512 106.352C148.608 108.501 149.235 110.656 148.367 112.78C147.735 114.332 147.061 115.868 146.459 117.432C144.926 121.421 143.045 125.248 141.098 129.045C140.857 129.516 140.685 130.14 140.022 130.286" stroke="#C0CCD8" stroke-width="2" stroke-linecap="round" stroke-linejoin="round"/>
<path d="M161.366 122.482C161.125 124.421 160.391 126.228 159.855 128.087C158.031 134.389 156.145 140.675 153.829 146.819C152.55 150.213 151.154 153.54 148.802 156.414C144.893 161.192 139.62 161.542 134.56 158.032C129.676 154.646 126.489 149.833 123.612 144.773C123.461 144.508 123.407 144.135 123.188 143.968C121.58 142.742 121.898 141.061 122.117 139.443C122.607 135.84 123.439 132.308 124.195 128.755C125.843 120.998 126.215 113.19 122.81 105.653C121.808 103.436 121.071 101.097 120.168 98.8333C120.069 98.5841 120.099 98.3679 120.053 98.1406" stroke="#C0CCD8" stroke-width="2" stroke-linecap="round" stroke-linejoin="round"/>
<path d="M347.002 117.835C347.043 115.237 346.405 112.792 344.645 110.889C342.104 108.138 338.852 106.892 335.104 107.606C331.542 108.285 329.108 110.443 327.851 113.87C327.736 114.183 327.682 114.514 327.567 114.823C327.525 114.933 327.391 115.009 327.208 115.193C325.779 114.393 324.177 114.185 322.513 114.276C319.09 114.459 315.871 117.068 315.375 120.02C315.257 120.715 315.178 121.421 315.301 122.067C315.46 122.913 315.816 123.781 317.048 123.321C317.327 123.217 317.68 123.305 318.001 123.305C330.222 123.305 342.444 123.305 354.662 123.297C355.166 123.297 355.736 123.513 356.168 123.034" stroke="#C0CCD8" stroke-width="2" stroke-linecap="round" stroke-linejoin="round"/>
<path d="M124.428 128.775C124.803 128.721 125.14 128.742 125.539 128.534C128.943 126.769 132.346 124.986 135.929 123.604C137.005 123.19 138.037 122.714 139.168 122.158C138.27 119.812 137.413 117.435 136.458 115.103C133.838 108.71 131.25 102.304 128.504 95.9657C126.897 92.256 124.992 88.6859 121.556 86.2411C118.605 84.1412 115.245 82.9283 111.831 81.8989C109.603 81.2282 107.287 80.8339 104.995 80.3877C104.527 80.2973 104.037 80.2042 103.487 80.322C102.509 80.5328 101.989 79.7717 101.581 78.9941" stroke="#C0CCD8" stroke-width="2" stroke-linecap="round" stroke-linejoin="round"/>
<path d="M211.566 213.824C203.125 216.409 196.694 221.583 191.87 228.879C188.949 233.298 186.981 238.163 185.177 243.105C185.018 243.537 184.985 244.014 184.895 244.468" stroke="#C0CCD8" stroke-width="2" stroke-linecap="round" stroke-linejoin="round"/>
<path d="M122.241 143.271C121.778 143.671 121.688 144.191 121.688 144.775C121.682 150.028 121.786 155.268 122.317 160.509C122.528 162.592 123.021 164.593 123.662 166.502C127.119 176.804 129.211 187.413 130.815 198.118C131.656 203.719 131.875 209.397 131.664 215.067C131.39 222.552 130.944 230.032 130.304 237.495C130.074 240.189 129.764 242.875 129.49 245.563" stroke="#C0CCD8" stroke-width="2" stroke-linecap="round" stroke-linejoin="round"/>
<path d="M103.087 80.499C104.01 83.5955 103.922 86.6098 102.115 89.3804C100.415 91.9895 97.8305 93.4186 94.8737 94.0127C85.3051 95.9401 77.0616 93.1914 69.9899 86.6454C68.3171 85.0958 66.8168 83.3847 66.0146 81.1835" stroke="#C0CCD8" stroke-width="2" stroke-linecap="round" stroke-linejoin="round"/>
<path d="M47.1377 133.972C49.9248 129.134 52.4654 124.148 55.5619 119.412C56.5721 120.135 56.4051 121.088 56.5338 121.808C58.3298 131.916 60.0026 142.048 61.804 152.156C62.2037 154.396 62.3735 156.693 63.1428 158.864" stroke="#C0CCD8" stroke-width="2" stroke-linecap="round" stroke-linejoin="round"/>
<path d="M13.8268 79.9545C11.5462 78.4816 7.37656 78.6075 5.02207 80.3898C3.38761 81.6273 2.14465 83.2508 1.59436 85.2905C1.46568 85.7696 1.47116 86.2843 1.42188 86.7196C1.98586 87.1795 2.54984 87.07 3.08645 87.0618C9.10411 86.9769 15.1272 86.9906 21.1449 87.0043C26.5274 87.0153 31.9071 86.7333 37.2869 86.9441C37.8755 86.966 38.3793 86.7333 38.9296 86.6566" stroke="#C0CCD8" stroke-width="2" stroke-linecap="round" stroke-linejoin="round"/>
<path d="M99.1198 16.2236C102.153 18.6603 104.984 21.3296 107.298 24.4507C109.918 27.9879 111.347 32.0398 111.563 36.4641C111.886 43.0567 112.625 49.6712 110.613 56.157C108.428 63.2068 104.48 68.9398 97.3019 71.36C92.6996 72.9123 87.9277 72.0581 83.6595 69.4216C81.7129 68.2197 79.9525 66.7742 78.2578 65.2492" stroke="#C0CCD8" stroke-width="2" stroke-linecap="round" stroke-linejoin="round"/>
<path d="M41.1857 131.373C39.5677 133.517 37.9305 135.644 36.3371 137.807C35.5733 138.844 34.8943 139.945 34.1523 141.057C35.8799 143.031 37.4979 144.969 39.2118 146.82C43.6607 151.624 47.9371 156.591 52.6105 161.188C52.7036 161.278 52.7885 161.376 52.8843 161.461C55.6632 163.857 54.6009 163.736 57.7931 161.982C60.8239 160.317 63.7862 158.554 67.1071 157.486C71.4492 156.09 75.6216 156.657 79.6872 158.477C80.3498 158.776 80.9193 159.326 81.4695 159.83C83.1013 161.327 83.115 161.459 82.2964 163.515" stroke="#C0CCD8" stroke-width="2" stroke-linecap="round" stroke-linejoin="round"/>
<path d="M106.646 172.4C106.926 176.228 106.835 180.061 106.753 183.888C106.655 188.608 106.452 193.347 104.714 197.832C104.21 199.132 103.621 200.449 102.132 200.983" stroke="#C0CCD8" stroke-width="2" stroke-linecap="round" stroke-linejoin="round"/>
<path d="M217.315 78.7227C217.701 84.1572 219.199 89.2412 221.8 94.0543C224.305 98.6921 227.771 102.407 231.952 105.526" stroke="#C0CCD8" stroke-width="2" stroke-linecap="round" stroke-linejoin="round"/>
<path d="M98.8461 205.906C98.2081 209.233 97.5511 212.559 96.9433 215.891C96.7708 216.833 96.7462 217.802 96.6586 218.76C96.5573 219.833 96.2671 220.8 95.766 221.802C95.1719 222.987 94.994 224.4 94.7558 225.739C93.6388 232.027 92.2617 238.261 90.7805 244.473C90.7395 244.646 90.7751 244.838 90.7751 245.018" stroke="#C0CCD8" stroke-width="2" stroke-linecap="round" stroke-linejoin="round"/>
<path d="M304.596 86.3809C304.065 89.9427 302.693 93.1925 301.056 96.3738C298.565 101.214 295.183 105.304 291.049 108.806C290.986 108.861 290.871 108.855 290.778 108.877C290.8 108.899 290.825 108.924 290.847 108.946" stroke="#C0CCD8" stroke-width="2" stroke-linecap="round" stroke-linejoin="round"/>
<path d="M27.71 244.607C27.2035 244.947 26.6313 244.881 26.0673 244.881C19.639 244.881 13.2079 244.878 6.77956 244.887C6.18546 244.887 5.5941 244.972 5 245.018" stroke="#C0CCD8" stroke-width="2" stroke-linecap="round" stroke-linejoin="round"/>
<path d="M122.103 161.733C118.342 163.08 114.41 163.589 110.473 164.049C107.158 164.438 103.82 164.574 100.491 164.777C96.8281 165.002 93.1841 164.758 89.5483 164.544C87.0816 164.399 84.5409 164.413 82.1536 163.518C81.9948 163.457 81.732 163.433 81.6197 163.52C80.3795 164.479 79.1666 163.622 78.2194 163.173C74.3317 161.333 70.3783 161.18 66.2881 162.141" stroke="#C0CCD8" stroke-width="2" stroke-linecap="round" stroke-linejoin="round"/>
<path d="M54.5238 63.4033C54.2007 70.5544 59.5202 76.3476 65.7432 78.0313C66.9533 78.3599 68.2976 77.9875 69.4365 78.7212" stroke="#C0CCD8" stroke-width="2" stroke-linecap="round" stroke-linejoin="round"/>
<path d="M13.7588 79.6813C14.3474 78.515 14.6486 77.231 15.385 76.1167C17.5096 72.8971 20.6224 71.2654 24.2965 70.8328C29.3614 70.236 33.8487 71.5474 37.134 75.7307C37.8486 76.6397 38.3961 77.6937 38.9109 78.7341C39.3051 79.528 39.7924 79.8319 40.7068 79.8538C42.3002 79.8922 43.7677 80.4014 44.8108 81.7347" stroke="#C0CCD8" stroke-width="2" stroke-linecap="round" stroke-linejoin="round"/>
<path d="M328.673 244.607C329.179 244.947 329.752 244.881 330.316 244.881C336.106 244.881 341.899 244.881 347.69 244.881" stroke="#C0CCD8" stroke-width="2" stroke-linecap="round" stroke-linejoin="round"/>
<path d="M175.592 98.6898C175.676 97.8904 176.599 97.6878 176.739 96.7843C177.108 94.3997 175.682 92.5599 172.854 92.4258C169.44 92.2642 166.007 92.3108 162.738 93.5099C161.232 94.063 160.161 95.1937 159.45 96.6392C159.042 97.466 159.504 98.2271 159.762 98.9499C159.912 99.3743 160.367 99.7192 160.542 100.196" stroke="#C0CCD8" stroke-width="2" stroke-linecap="round" stroke-linejoin="round"/>
<path d="M99.2569 13.627C98.8654 18.3524 96.051 21.6103 92.6999 24.5781C90.3317 26.6725 87.6624 28.2878 84.8918 29.7635C84.5879 29.925 84.3387 30.1002 84.1087 30.3083C83.5694 30.7929 82.5701 31.3815 81.872 31.5759C81.4038 31.7073 80.9329 31.8853 80.5305 32.1152C78.3019 33.3801 75.7722 33.6374 73.3903 34.4643C72.8647 36.0412 72.3171 37.662 71.0769 38.9269C69.5109 40.5257 69.4068 40.1589 67.6738 39.1678C66.743 38.6339 65.8395 37.9796 64.7827 38.007C63.088 38.048 61.8231 39.0145 61.2455 40.5777C59.7205 44.7063 60.8375 51.1593 66.0038 53.1716C67.025 53.5685 67.9531 53.8889 69.0263 53.4371C69.4835 53.2455 70.0721 53.3577 70.2282 53.8396C71.0303 56.32 72.8072 58.4719 73.0755 61.0865C73.5135 65.3547 73.7353 69.6613 73.0919 73.9322C72.7853 75.9691 72.0597 77.8883 69.8421 78.7316C69.0646 79.0272 68.6539 79.7911 67.8134 80.1497C64.6376 81.5104 61.1962 81.7158 57.9273 82.6493C52.8405 84.1031 47.9946 85.9648 43.9919 89.5349C40.274 92.8531 37.3446 96.842 34.6999 101.025C31.2064 106.545 27.3845 111.834 23.6036 117.154C23.3189 117.556 23.0506 117.97 22.6016 118.635C23.0697 118.914 23.5872 119.223 24.1211 119.541C20.6906 124.089 18.0514 128.751 15.6695 133.567C14.6373 135.653 13.7038 137.772 13.4765 140.129C13.1726 143.305 14.5141 145.865 16.4854 148.2C20.6632 153.15 25.6789 157.183 30.7164 161.188C37.4075 166.511 44.6353 171.105 51.3867 176.353C53.3196 177.856 55.6029 178.776 58.0724 178.636C59.3235 178.565 60.5966 177.996 61.7574 177.443C65.2372 175.781 68.758 175.263 72.4485 176.588C72.7387 176.692 73.0344 176.794 73.3328 176.879C76.421 177.752 77.6832 177.273 78.3211 174.729" stroke="#C0CCD8" stroke-width="2" stroke-linecap="round" stroke-linejoin="round"/>
<path d="M124.017 168.571C118.656 170.474 113.115 171.476 107.464 171.996C99.7327 172.708 92.0259 172.582 84.3464 171.43C83.3881 171.284 82.5093 170.614 81.4717 171.033" stroke="#C0CCD8" stroke-width="2" stroke-linecap="round" stroke-linejoin="round"/>
<path d="M24.0166 120.023C25.2294 120.07 25.8838 121.113 26.7133 121.718C31.102 124.921 35.6358 127.856 40.4077 130.463C42.5651 131.64 44.7909 132.645 46.9976 133.701" stroke="#C0CCD8" stroke-width="2" stroke-linecap="round" stroke-linejoin="round"/>
<path d="M176.14 105.8C176.772 104.653 177.9 103.774 177.802 102.243C177.706 100.762 176.594 99.1771 175.184 98.6815C173.172 97.9779 171.078 97.9889 169.03 98.1833C166.319 98.4433 163.612 98.9772 161.112 100.1C160.091 100.557 159.13 101.46 158.944 102.662C158.768 103.804 158.755 105.047 159.992 105.808C160.433 106.079 160.819 106.438 161.227 106.758" stroke="#C0CCD8" stroke-width="2" stroke-linecap="round" stroke-linejoin="round"/>
<path d="M64.3747 167.202C66.0803 166.761 67.7969 166.359 69.5737 166.386C73.8173 166.452 77.694 167.522 80.7877 170.624C81.7432 171.582 81.7213 173.419 80.7905 174.175C80.2374 174.624 78.3155 174.531 77.642 174.041C73.4696 170.994 68.851 170.561 63.964 171.722C63.8572 171.747 63.7806 171.897 63.6875 171.988" stroke="#C0CCD8" stroke-width="2" stroke-linecap="round" stroke-linejoin="round"/>
<path d="M115.673 71.0645C115.234 71.1274 114.931 71.4313 114.725 71.7544C112.081 75.9295 107.801 77.1095 103.377 78.2457C101.499 78.7275 99.5415 78.3607 97.751 79.13" stroke="#C0CCD8" stroke-width="2" stroke-linecap="round" stroke-linejoin="round"/>
<path d="M175.318 112.365C175.729 111.908 176.142 111.456 176.547 110.996C178.294 109.011 177.347 105.953 174.768 105.4C170.319 104.447 165.993 105.06 161.777 106.629C160.485 107.111 160.14 110.287 161.232 111.538C162.034 112.455 162.91 112.789 164.249 112.411C167.277 111.56 170.415 111.486 173.533 111.847C174.458 111.954 175.573 112.22 175.83 113.329C176.085 114.432 175.726 115.48 174.907 116.332C174.228 117.038 173.339 117.356 172.438 117.537C171.198 117.788 170.453 118.771 169.445 119.357C167.337 120.581 165.013 121.189 162.735 121.947C161.519 122.352 160.285 122.344 159.039 122.347" stroke="#C0CCD8" stroke-width="2" stroke-linecap="round" stroke-linejoin="round"/>
<path d="M96.5215 220.948C97.0882 221.422 97.069 222.068 97.0745 222.725C97.1101 227.283 97.1375 231.842 97.2142 236.4C97.2607 239.226 97.6221 242.046 97.4113 244.879" stroke="#C0CCD8" stroke-width="2" stroke-linecap="round" stroke-linejoin="round"/>
<path d="M356.578 123.031C356.255 123.081 356.165 122.944 356.16 122.621C356.102 119.278 351.952 115.623 348.231 117.008C347.93 117.121 347.56 116.858 347.275 117.151" stroke="#C0CCD8" stroke-width="2" stroke-linecap="round" stroke-linejoin="round"/>
<path d="M137.424 123.441C138.333 125.065 138.341 127.022 139.231 128.621C140.392 130.705 139.54 132.268 138.412 133.993C137.131 135.953 136.099 138.075 134.96 140.125" stroke="#C0CCD8" stroke-width="2" stroke-linecap="round" stroke-linejoin="round"/>
<path d="M162.595 112.775C161.744 115.226 162.488 116.595 165.059 117.287C166.403 117.649 167.778 117.739 169.163 117.695C169.713 117.679 170.239 117.703 170.669 118.109" stroke="#C0CCD8" stroke-width="2" stroke-linecap="round" stroke-linejoin="round"/>
<path d="M275.185 42.1406C276.953 42.4473 278.741 42.3268 280.69 42.3104V78.6545H334.693V42.4336C336.56 42.3323 338.293 42.2364 340.029 42.1406" stroke="#C0CCD8" stroke-width="2" stroke-linecap="round" stroke-linejoin="round"/>
<path d="M307.606 9.52441C307.578 9.71058 307.658 9.89675 307.474 10.0774C301.402 16.0869 295.343 22.11 289.273 28.1222C285.128 32.2289 280.972 36.3274 276.827 40.434C276.384 40.8721 275.834 41.2444 275.729 41.9344" stroke="#C0CCD8" stroke-width="2" stroke-linecap="round" stroke-linejoin="round"/>
<path d="M330.176 31.9524C330.526 31.5089 330.595 30.9969 330.592 30.4494C330.581 27.624 330.554 24.7958 330.603 21.9704C330.619 21.0204 330.307 20.6727 329.354 20.7247C328.128 20.7905 326.89 20.774 325.661 20.7275C324.834 20.6974 324.563 21.0122 324.547 21.8336C324.519 23.1559 324.812 24.5084 324.295 25.8006" stroke="#C0CCD8" stroke-width="2" stroke-linecap="round" stroke-linejoin="round"/>
<path d="M299.261 55.4724C298.948 58.7084 299.225 61.9445 299.091 65.1833H315.882V45.6273H303.638C302.499 45.6273 301.358 45.6328 300.219 45.6273C299.636 45.6218 299.105 45.6766 299.126 46.4514C299.209 49.4136 298.948 52.3814 299.261 55.341" stroke="#C0CCD8" stroke-width="2" stroke-linecap="round" stroke-linejoin="round"/>
<path d="M307.742 10.0703C308.435 10.1388 308.692 10.7684 309.1 11.1764C312.903 14.9874 316.585 18.9243 320.495 22.6231C323.797 25.7496 326.959 29.0268 330.211 32.1971C333.08 34.9951 335.939 37.8698 338.666 40.8376C338.969 41.1661 339.24 41.4947 339.345 41.9354" stroke="#C0CCD8" stroke-width="2" stroke-linecap="round" stroke-linejoin="round"/>
<path d="M307.605 55.4727V64.9098" stroke="#C0CCD8" stroke-width="2" stroke-linecap="round" stroke-linejoin="round"/>
<path d="M307.605 46.0391C307.605 48.5907 307.597 51.145 307.61 53.6967C307.61 54.1977 307.695 54.6987 307.742 55.1997" stroke="#C0CCD8" stroke-width="2" stroke-linecap="round" stroke-linejoin="round"/>
<path d="M299.397 55.3369C304.186 55.2904 308.974 55.2466 313.763 55.1973C314.373 55.1918 314.978 55.1781 315.542 55.4738" stroke="#C0CCD8" stroke-width="2" stroke-linecap="round" stroke-linejoin="round"/>
<path d="M228.634 188.947C230.402 189.254 232.19 189.133 234.139 189.117V225.461H288.142V189.24C290.01 189.139 291.743 189.043 293.478 188.947" stroke="#C0CCD8" stroke-width="2" stroke-linecap="round" stroke-linejoin="round"/>
<path d="M261.055 156.331C261.027 156.517 261.107 156.703 260.923 156.884C254.851 162.894 248.792 168.917 242.723 174.929C238.578 179.036 234.422 183.134 230.277 187.241C229.833 187.679 229.283 188.051 229.179 188.741" stroke="#C0CCD8" stroke-width="2" stroke-linecap="round" stroke-linejoin="round"/>
<path d="M283.628 178.758C283.978 178.315 284.047 177.803 284.044 177.255C284.033 174.43 284.006 171.602 284.055 168.776C284.071 167.826 283.759 167.478 282.807 167.53C281.58 167.596 280.342 167.58 279.113 167.533C278.286 167.503 278.015 167.818 277.999 168.639C277.972 169.962 278.265 171.314 277.747 172.606" stroke="#C0CCD8" stroke-width="2" stroke-linecap="round" stroke-linejoin="round"/>
<path d="M252.71 202.281C252.398 205.517 252.674 208.753 252.54 211.992H269.331V192.436H257.088C255.949 192.436 254.807 192.441 253.668 192.436C253.085 192.43 252.554 192.485 252.576 193.26C252.658 196.222 252.398 199.19 252.71 202.15" stroke="#C0CCD8" stroke-width="2" stroke-linecap="round" stroke-linejoin="round"/>
<path d="M261.191 156.877C261.884 156.945 262.141 157.575 262.549 157.983C266.352 161.794 270.034 165.731 273.944 169.43C277.246 172.556 280.408 175.833 283.66 179.004C286.53 181.802 289.388 184.676 292.115 187.644C292.419 187.973 292.69 188.301 292.794 188.742" stroke="#C0CCD8" stroke-width="2" stroke-linecap="round" stroke-linejoin="round"/>
<path d="M261.055 202.282V211.719" stroke="#C0CCD8" stroke-width="2" stroke-linecap="round" stroke-linejoin="round"/>
<path d="M261.055 192.844C261.055 195.395 261.047 197.95 261.061 200.501C261.061 201.002 261.146 201.503 261.192 202.004" stroke="#C0CCD8" stroke-width="2" stroke-linecap="round" stroke-linejoin="round"/>
<path d="M252.847 202.145C257.635 202.098 262.423 202.054 267.212 202.005C267.822 201.999 268.427 201.986 268.991 202.281" stroke="#C0CCD8" stroke-width="2" stroke-linecap="round" stroke-linejoin="round"/>
<path d="M249.739 34.1787C247.97 34.4853 246.183 34.3649 244.233 34.3485C244.233 46.5097 244.233 58.5669 244.233 70.6926C226.164 70.6926 208.267 70.6926 190.23 70.6926C190.23 58.5888 190.23 46.5535 190.23 34.4717C188.363 34.3704 186.63 34.2745 184.895 34.1787" stroke="#C0CCD8" stroke-width="2" stroke-linecap="round" stroke-linejoin="round"/>
<path d="M217.315 1.56348C217.343 1.74965 217.263 1.93582 217.447 2.11651C223.519 8.12596 229.578 14.1491 235.648 20.1613C239.793 24.268 243.949 28.3664 248.094 32.4731C248.537 32.9112 249.087 33.2835 249.191 33.9734" stroke="#C0CCD8" stroke-width="2" stroke-linecap="round" stroke-linejoin="round"/>
<path d="M194.745 23.9915C194.395 23.548 194.326 23.036 194.329 22.4884C194.34 19.663 194.367 16.8349 194.318 14.0095C194.302 13.0595 194.614 12.7118 195.566 12.7638C196.793 12.8295 198.03 12.8131 199.26 12.7665C200.087 12.7364 200.358 13.0513 200.374 13.8726C200.401 15.195 200.108 16.5474 200.626 17.8397" stroke="#C0CCD8" stroke-width="2" stroke-linecap="round" stroke-linejoin="round"/>
<path d="M225.66 47.5144C225.972 50.7504 225.696 53.9865 225.83 57.2253C220.165 57.2253 214.671 57.2253 209.039 57.2253C209.039 50.7997 209.039 44.3029 209.039 37.6693H216.768C218.274 37.6693 219.777 37.6693 221.282 37.6693C222.421 37.6693 223.563 37.6747 224.702 37.6693C225.285 37.6638 225.816 37.7186 225.794 38.4933C225.712 41.4556 225.972 44.4234 225.66 47.3829" stroke="#C0CCD8" stroke-width="2" stroke-linecap="round" stroke-linejoin="round"/>
<path d="M217.178 2.11133C216.486 2.17977 216.228 2.80946 215.821 3.21739C212.018 7.0284 208.335 10.9653 204.426 14.6641C201.124 17.7906 197.962 21.0678 194.709 24.2381C191.84 27.0362 188.982 29.9108 186.255 32.8786C185.951 33.2071 185.68 33.5357 185.576 33.9764" stroke="#C0CCD8" stroke-width="2" stroke-linecap="round" stroke-linejoin="round"/>
<path d="M217.315 47.5137C217.315 50.6594 217.315 53.8051 217.315 56.9508" stroke="#C0CCD8" stroke-width="2" stroke-linecap="round" stroke-linejoin="round"/>
<path d="M217.316 38.0771C217.316 40.6288 217.324 43.1831 217.31 45.7347C217.31 46.2358 217.225 46.7368 217.179 47.2378" stroke="#C0CCD8" stroke-width="2" stroke-linecap="round" stroke-linejoin="round"/>
<path d="M225.524 47.3769C220.735 47.3304 215.947 47.2866 211.158 47.2373C210.548 47.2318 209.943 47.2181 209.379 47.5138" stroke="#C0CCD8" stroke-width="2" stroke-linecap="round" stroke-linejoin="round"/>
<path d="M97.2061 71.7471C97.2526 72.2946 97.3566 72.8449 97.332 73.387C97.1924 76.4615 97.5538 79.506 97.8905 82.5504" stroke="#C0CCD8" stroke-width="2" stroke-linecap="round" stroke-linejoin="round"/>
<path d="M80.6533 164.06C80.9517 164.692 81.3569 165.237 81.8826 165.702C83.5006 167.142 84.4178 168.758 83.1173 170.896" stroke="#C0CCD8" stroke-width="2" stroke-linecap="round" stroke-linejoin="round"/>
<path d="M59.1752 112.365C58.7015 114.293 57.4093 115.815 56.5195 117.534C56.1855 118.178 55.8816 118.777 55.7529 119.478" stroke="#C0CCD8" stroke-width="2" stroke-linecap="round" stroke-linejoin="round"/>
<path d="M116.631 65.5947C116.669 66.8897 116.576 68.1655 116.228 69.4249C115.76 71.1251 116.031 72.8937 115.81 74.6185" stroke="#C0CCD8" stroke-width="2" stroke-linecap="round" stroke-linejoin="round"/>
<path d="M159.176 105.525C158.324 106.796 157.432 108.033 156.304 109.082" stroke="#C0CCD8" stroke-width="2" stroke-linecap="round" stroke-linejoin="round"/>
</svg>
