<svg width="661" height="72" viewBox="0 0 661 72" fill="none" xmlns="http://www.w3.org/2000/svg">
<g clip-path="url(#clip0_1522_75040)">
<path d="M32.9346 50.9495C33.0692 51.1503 32.9943 51.3739 32.9943 51.5848C32.9994 65.5391 33.0057 79.4948 32.9841 93.4491C32.9829 94.5265 33.3526 95.3181 34.2038 95.9305L36.0487 96.3675C56.9275 96.3739 77.8075 96.3714 98.6863 96.3714C98.7918 96.3714 98.8985 96.3803 99.004 96.3701C99.4918 96.3205 100.076 96.4196 100.446 96.1833C101.501 95.5099 102 94.4973 102 93.195C101.987 66.3866 101.99 39.5782 101.99 12.7698C101.99 12.6643 101.992 12.5576 101.99 12.4521C101.927 10.4193 100.543 8.98738 98.4322 9.00008C89.6236 9.05218 80.8136 9.02168 72.005 9.02168C60.1038 9.02168 48.2039 9.03058 36.3028 9.01279C34.4224 9.01025 32.9752 10.8589 32.9841 12.3251C33.021 17.7884 32.9994 23.2517 32.9956 28.7151C32.9956 28.9692 32.9979 78.4134 32.9346 29.4774" stroke="#C0CCD8" stroke-linecap="round" stroke-linejoin="round"/>
<path d="M19.6751 28.9845C18.8912 28.8358 18.1136 28.6478 17.3234 28.5474C15.2371 28.2806 13.2386 28.71 11.3594 29.5715C8.64557 30.814 6.75246 32.9092 5.65471 35.6624C5.04485 37.1922 4.91145 38.8223 5.04993 40.4841C5.224 42.5653 5.84783 44.4558 7.09551 46.138C9.14362 48.9015 11.9401 50.3778 15.2943 50.8225C16.5928 50.994 17.9192 50.8492 19.1618 50.4414C21.5149 49.6676 23.5084 48.3501 25.019 46.3337C26.2032 44.7544 26.9655 42.9846 27.1434 41.0533C27.4458 37.7753 26.639 34.7705 24.4397 32.2256C23.2581 30.8585 21.8096 29.8738 20.1211 29.2373C19.989 29.1878 19.8657 29.1115 19.7387 29.048" stroke="#C0CCD8" stroke-linecap="round" stroke-linejoin="round"/>
<path d="M95.4122 54.312C95.209 54.2103 94.9891 54.2497 94.777 54.2497C82.9609 54.2484 71.1449 54.2484 59.3289 54.2497C59.1167 54.2497 58.8969 54.2103 58.6936 54.312" stroke="#C0CCD8" stroke-linecap="round" stroke-linejoin="round"/>
<path d="M95.2852 36.3281C95.0844 36.4628 94.8608 36.3878 94.6499 36.3878C82.6649 36.3929 70.6786 36.3917 58.6936 36.3917" stroke="#C0CCD8" stroke-linecap="round" stroke-linejoin="round"/>
<path d="M51.2611 45.2248C51.7795 45.0546 52.026 44.6061 52.3487 44.2147C53.8098 42.4461 54.3053 40.365 54.0246 38.1771C53.6447 35.218 52.0209 33.0352 49.2219 31.8981C46.1599 30.6542 43.2796 31.118 40.7893 33.2932C37.6892 36.002 37.1696 40.7614 39.9647 44.1982C41.6266 46.2412 43.8424 47.2767 46.4953 47.1789C48.2029 47.1166 49.7708 46.5424 51.1303 45.4751C51.1747 45.4408 51.176 45.3519 51.1963 45.2883" stroke="#C0CCD8" stroke-linecap="round" stroke-linejoin="round"/>
<path d="M51.2611 64.1549C51.8506 63.9719 52.1225 63.4498 52.4668 63.0101C53.8428 61.2466 54.3434 59.182 54.0182 57.0462C53.5862 54.2091 51.9904 52.1534 49.2994 50.926C44.7394 48.8462 38.9432 51.5969 38.2165 57.3003C37.8759 59.9761 38.8339 62.319 40.9519 64.1765C42.5731 65.5995 44.404 66.2411 46.4966 66.1751C48.2245 66.1204 49.7822 65.5068 51.1315 64.4065C51.176 64.3709 51.1772 64.2832 51.1976 64.2197" stroke="#C0CCD8" stroke-linecap="round" stroke-linejoin="round"/>
<path d="M84.4856 60.2812H58.6936" stroke="#C0CCD8" stroke-linecap="round" stroke-linejoin="round"/>
<path d="M84.4856 42.3672H58.6936" stroke="#C0CCD8" stroke-linecap="round" stroke-linejoin="round"/>
<path d="M51.1966 64.1842C50.9298 63.197 50.588 62.2656 49.8714 61.4754C47.7153 59.0969 43.7398 59.5353 41.9788 62.1157C41.5468 62.7485 41.3105 63.4561 41.031 64.1524" stroke="#C0CCD8" stroke-linecap="round" stroke-linejoin="round"/>
<path d="M51.2288 45.1643C50.976 44.6548 50.9099 44.083 50.6342 43.571C48.7817 40.138 44.2523 40.0071 42.0936 42.9904C41.607 43.6625 41.3745 44.4134 41.0327 45.1325" stroke="#C0CCD8" stroke-linecap="round" stroke-linejoin="round"/>
<path d="M72.0986 19.3152C71.9054 19.1475 71.6653 19.0662 71.5166 18.8133C70.9792 17.8947 69.5155 17.9595 68.8625 18.3064C68.3009 18.6037 68.0036 19.2542 68.0963 19.8247C68.1967 20.4371 68.7621 21.0101 69.4304 21.1562C69.7874 21.2337 70.1508 21.282 70.5091 21.3506C71.3426 21.5081 71.9918 22.146 71.9207 22.8765C71.8432 23.6744 71.2638 24.3554 70.3808 24.4571C69.6578 24.5409 68.9705 24.4596 68.4051 23.8993C68.1459 23.6426 68.0722 23.3936 68.1904 23.0658" stroke="#C0CCD8" stroke-linecap="round" stroke-linejoin="round"/>
<path d="M59.0111 24.5199C58.6935 24.3611 58.574 24.079 58.4241 23.7652C57.7291 22.3155 57.4166 20.7388 56.8486 19.2484C56.7889 19.0909 56.6962 18.9397 56.5958 18.8037C56.1905 18.2625 55.958 18.2422 55.5908 18.8075C55.0877 19.58 54.864 20.491 54.5998 21.3537C54.3393 22.2012 54.0179 23.0092 53.6939 23.8274C53.5325 24.2353 53.2251 24.4043 52.915 24.6152" stroke="#C0CCD8" stroke-linecap="round" stroke-linejoin="round"/>
<path d="M42.3669 18.2969V24.0499C43.4012 24.4501 44.4214 24.1922 45.4162 24.2684" stroke="#C0CCD8" stroke-linecap="round" stroke-linejoin="round"/>
<path d="M21.6441 35.1484C19.3788 37.5409 17.1147 39.9358 14.8442 42.3245C14.5253 42.6599 14.1696 42.9623 13.8303 43.2799" stroke="#C0CCD8" stroke-linecap="round" stroke-linejoin="round"/>
<path d="M51.2614 18.2937C50.4318 18.3357 49.6186 18.0993 48.7839 18.1578C48.0813 18.2073 47.8945 18.356 47.8958 19.0561C47.8983 19.7993 47.9999 20.5515 47.9758 21.2782C47.9517 21.9936 47.9186 22.719 47.8996 23.4394C47.8831 24.1065 48.1715 24.3911 48.8461 24.3199C49.6948 24.2297 50.541 24.2958 51.3885 24.2653" stroke="#C0CCD8" stroke-linecap="round" stroke-linejoin="round"/>
<path d="M9.82764 39.2109C11.1833 40.6085 12.5377 42.0061 13.8934 43.4037" stroke="#C0CCD8" stroke-linecap="round" stroke-linejoin="round"/>
<path d="M48.1487 21.2188H51.0074" stroke="#C0CCD8" stroke-linecap="round" stroke-linejoin="round"/>
<path d="M54.5007 22.5557C55.5654 22.8505 56.6251 22.8835 57.6771 22.4922" stroke="#C0CCD8" stroke-linecap="round" stroke-linejoin="round"/>
<path d="M45.9874 53.0391C43.9609 53.3123 43.055 55.0745 43.4629 56.5928C43.858 58.0641 44.9164 58.7286 46.1158 58.815C47.225 58.895 48.5273 57.9853 48.8932 56.7821C49.1943 55.7924 48.8652 54.3999 47.8386 53.6642C47.2898 53.2716 46.7231 53.0353 46.0522 53.0391" stroke="#C0CCD8" stroke-linecap="round" stroke-linejoin="round"/>
<path d="M45.8616 34.1097C44.0155 34.5722 43.0804 35.9177 43.4501 37.6037C43.7309 38.8831 44.6787 39.5908 45.6087 39.7585C46.9695 40.0025 48.0444 39.4231 48.6377 38.3571C49.1231 37.4855 49.1688 36.4017 48.4751 35.3764C47.8512 34.454 47 34.0817 45.9251 34.111" stroke="#C0CCD8" stroke-linecap="round" stroke-linejoin="round"/>
<path d="M61.8057 18.2305C61.3369 18.2763 61.2302 18.585 61.2315 18.9929C61.2365 20.5175 61.234 22.0422 61.2327 23.5668C61.2327 23.8857 61.2721 24.1602 61.6774 24.2046C62.6926 24.3139 63.723 24.4371 64.5946 23.751C65.6542 22.9176 65.7762 21.7614 65.6212 20.5175C65.4738 19.341 64.808 18.5965 63.7052 18.3169C63.1233 18.1696 62.4829 18.2521 61.868 18.2305" stroke="#C0CCD8" stroke-linecap="round" stroke-linejoin="round"/>
<path d="M257.434 25.8804C257.358 25.0207 257.745 24.2475 257.891 23.4291C258.233 21.507 258.604 19.5797 258.457 17.6202C258.202 14.2188 256.786 11.4706 253.23 10.2907C252.388 10.0119 251.837 9.42715 251.185 8.9547C248.277 6.84415 245.003 5.67463 241.49 5.18282C239.26 4.87172 237.025 4.91045 234.842 5.67076C230.508 7.17977 228.19 10.3282 227.364 14.7158C227.252 15.3096 227.253 15.924 227.148 16.5191C227.116 16.6998 227.142 16.8121 227.224 16.9361C227.388 17.0626 227.528 16.9102 227.679 16.9038C228.205 16.8831 228.267 16.9632 228.199 17.4898C228.042 18.6994 228.153 19.8999 228.316 21.1055C228.519 22.5977 228.848 24.0577 229.288 25.4944C229.305 25.5474 229.25 25.6222 229.229 25.6868" stroke="#C0CCD8" stroke-linecap="round" stroke-linejoin="round"/>
<path d="M255.562 50.7969C256.917 51.2913 258.273 51.787 259.628 52.2814C262.691 53.3992 265.761 54.4991 268.795 55.6995C271.259 56.6754 273.424 58.0115 274.665 60.4796C275.337 61.8143 275.701 63.2614 276.141 64.6774C276.598 66.1464 277.015 67.6322 277.367 69.1296C277.984 71.7462 278.548 74.3744 279.116 77.0025C279.376 78.2017 279.594 79.4113 279.83 80.6156" stroke="#C0CCD8" stroke-linecap="round" stroke-linejoin="round"/>
<path d="M255.724 28.7878C255.903 28.3128 255.49 27.9617 255.472 27.4983C255.414 26.0319 255.268 24.568 255.104 23.1094C254.925 21.51 254.37 20.0449 253.44 18.7153C252.622 17.5445 252.089 16.2356 251.758 14.8466C251.685 14.5368 251.596 14.2425 251.341 13.9766C251.141 14.0914 250.923 14.1986 250.724 14.3328C248.727 15.6844 246.499 16.3866 244.142 16.7984C242.421 17.0991 240.698 17.0785 238.976 17.0204C237.564 16.9726 236.167 16.6887 234.78 16.3969C233.697 16.1697 233.494 16.2782 232.907 17.2979C232.444 18.0996 232.273 18.9864 232.136 19.8809C231.858 21.6998 231.675 23.525 231.586 25.3658C231.552 26.0525 231.538 26.7444 231.484 27.4324C231.443 27.9539 231.09 28.4277 231.23 28.9815" stroke="#C0CCD8" stroke-linecap="round" stroke-linejoin="round"/>
<path d="M231.295 50.8594C229.703 51.4403 228.108 52.0134 226.52 52.6033C224.688 53.2836 222.858 53.9678 221.034 54.67C218.937 55.4781 216.782 56.1519 214.9 57.4402C213.23 58.5826 212.242 60.1845 211.671 62.0885C211.122 63.9203 210.552 65.7455 210.001 67.5772" stroke="#C0CCD8" stroke-linecap="round" stroke-linejoin="round"/>
<path d="M252.335 46.0859C251.997 46.5326 252.254 47.0463 252.242 47.5072C252.203 49.184 251.549 50.5897 250.517 51.8225C248.267 54.5152 246.088 57.2738 243.668 59.8168C242.981 60.5384 242.86 61.3555 242.857 62.2216C242.837 68.0085 242.847 73.7967 242.847 79.5836" stroke="#C0CCD8" stroke-linecap="round" stroke-linejoin="round"/>
<path d="M255.885 33.1743C255.574 35.6501 254.869 38.0059 253.688 40.2081C252.002 43.3514 249.498 45.5097 246.007 46.3978C242.541 47.2807 239.433 46.4301 236.654 44.2718C233.796 42.0515 232.27 39.0257 231.483 35.5637C231.279 34.6678 231.11 33.7719 231.101 32.8516" stroke="#C0CCD8" stroke-linecap="round" stroke-linejoin="round"/>
<path d="M255.756 34.9203C256.506 35.1346 257.111 34.8416 257.623 34.3356C258.796 33.1777 259.383 31.7048 259.746 30.1416C259.946 29.2793 260.119 28.4118 259.903 27.494C259.635 26.3452 258.78 25.6662 257.692 25.8843C257.074 26.0083 256.854 26.544 256.525 26.9777C256.222 27.3766 256.183 27.9123 255.821 28.2724" stroke="#C0CCD8" stroke-linecap="round" stroke-linejoin="round"/>
<path d="M231.166 28.1397C230.776 27.8196 230.767 27.28 230.456 26.9134C230.014 26.3919 229.697 25.7568 228.842 25.7349C228.065 25.7142 227.102 26.3325 226.996 27.626C226.8 30.0089 227.464 32.1982 228.983 34.0686C229.534 34.7476 230.28 35.1684 231.23 34.918" stroke="#C0CCD8" stroke-linecap="round" stroke-linejoin="round"/>
<path d="M220.903 70.2891V81.0032" stroke="#C0CCD8" stroke-linecap="round" stroke-linejoin="round"/>
<path d="M266.018 70.1562C265.89 71.1218 265.956 72.0925 265.958 73.0607C265.965 75.4062 265.997 77.7504 266.017 80.0958C266.018 80.3114 266.057 80.5347 265.953 80.7413" stroke="#C0CCD8" stroke-linecap="round" stroke-linejoin="round"/>
<path d="M235.07 43.1094C234.899 44.1563 234.789 45.207 234.84 46.272C234.864 46.7444 234.861 47.2195 234.84 47.6919C234.788 48.9505 235.217 50.0516 235.944 51.0468C237.444 53.0993 239.136 54.9994 240.714 56.9899C241.562 58.0601 242.374 59.1599 243.203 60.2468" stroke="#C0CCD8" stroke-linecap="round" stroke-linejoin="round"/>
<path d="M252.012 42.9844C252.295 43.5924 252.11 44.2326 252.128 44.8561C252.144 45.3892 252.269 45.8139 252.647 46.2206C253.632 47.2803 254.35 48.5376 255.112 49.7601C255.691 50.6895 255.445 51.7131 255.337 52.6619C255.082 54.9364 254.578 57.1722 253.963 59.3821C253.876 59.6919 253.639 59.9875 253.754 60.3464" stroke="#C0CCD8" stroke-linecap="round" stroke-linejoin="round"/>
<path d="M234.651 45.8906C234.348 45.9745 234.246 46.2534 234.061 46.4638C233.488 47.1131 233.067 47.8734 232.516 48.533C231.559 49.6767 231.367 50.9727 231.541 52.412C231.821 54.7304 232.302 57.0023 232.902 59.2536C233 59.6227 233.368 59.9119 233.231 60.3495" stroke="#C0CCD8" stroke-linecap="round" stroke-linejoin="round"/>
<path d="M239.169 55.1797C238.829 55.3914 238.426 55.2533 238.071 55.3746C237.144 55.6922 236.414 56.2963 235.749 56.9882C235.004 57.764 234.36 58.6224 233.751 59.5066C233.624 59.6899 233.498 59.8577 233.295 59.9559" stroke="#C0CCD8" stroke-linecap="round" stroke-linejoin="round"/>
<path d="M247.882 55.1797C248.541 55.4172 249.258 55.3914 249.896 55.8058C250.997 56.5209 251.736 57.542 252.535 58.5308C252.92 59.0058 253.151 59.6073 253.691 59.9559" stroke="#C0CCD8" stroke-linecap="round" stroke-linejoin="round"/>
<path d="M125.305 49.1012C123.025 51.1251 120.693 53.0976 118.478 55.1915C116.697 56.8749 115.501 58.9415 115.124 61.4187C114.392 66.2431 116.929 70.7561 121.707 72.1281C125.054 73.0896 128.037 72.3625 130.581 70.1967C133.312 67.8717 135.977 65.4613 138.533 62.9276C139.619 61.8498 140.714 60.7019 142.112 59.8277C140.731 58.4523 139.433 57.1572 138.093 55.8245C136.687 56.8424 135.507 58.1323 134.206 59.2854C131.851 61.376 129.527 63.5024 127.187 65.6084C124.989 67.586 121.634 66.6827 120.789 63.8087C120.436 62.6094 120.724 61.4581 121.542 60.4778C122.883 58.8731 124.544 57.6054 126.077 56.2026C128.279 54.1856 130.492 52.1789 132.737 50.1345C131.561 48.5863 130.054 47.4281 128.838 45.9141C127.647 47.0226 126.412 47.943 125.389 49.1012" stroke="#C0CCD8" stroke-linecap="round" stroke-linejoin="round"/>
<path d="M144.209 42.2578C143.041 43.2552 141.924 44.3278 140.682 45.2226C140.018 45.6999 139.645 46.5638 138.735 46.7058" stroke="#C0CCD8" stroke-linecap="round" stroke-linejoin="round"/>
<path d="M144.381 51.7534C143.996 51.9843 143.604 51.9724 143.182 51.8458C142.509 51.6456 141.871 51.6918 141.298 52.1776C140.645 52.7336 139.815 53.1203 139.591 54.0629" stroke="#C0CCD8" stroke-linecap="round" stroke-linejoin="round"/>
<path d="M149 57.1402C148.3 57.2737 147.631 57.313 146.94 56.9845C146.102 56.5876 145.522 57.2942 144.906 57.6706C144.506 57.9169 144.21 58.336 143.868 58.6782" stroke="#C0CCD8" stroke-linecap="round" stroke-linejoin="round"/>
<path d="M125.477 49.1875C126.731 50.4997 127.986 51.8101 129.24 53.1223" stroke="#C0CCD8" stroke-linecap="round" stroke-linejoin="round"/>
<path d="M134.801 58.9375C135.998 60.2206 137.196 61.5036 138.393 62.7867" stroke="#C0CCD8" stroke-linecap="round" stroke-linejoin="round"/>
<path d="M133.517 42C133.969 42.8314 133.545 43.5174 133.074 44.1265C132.698 44.6158 132.178 44.9938 131.721 45.4215" stroke="#C0CCD8" stroke-linecap="round" stroke-linejoin="round"/>
<path d="M339.327 12C341.077 12.2632 342.838 12.0646 344.592 12.1149C345.587 12.1436 346.585 12.1412 347.583 12.1149C349.083 12.0766 349.82 12.7298 349.971 14.3929C350.005 14.7495 349.976 15.1108 349.976 15.4698C349.976 23.2875 349.942 31.1028 350 38.9205C350.014 40.7822 349.079 41.6006 347.344 41.5886C335.499 41.5192 323.654 41.5384 311.809 41.5623C309.176 41.5671 306.539 41.8494 303.914 41.7537C300.921 41.6461 297.93 41.7322 294.938 41.6772C293.936 41.658 292.986 40.5597 293.012 39.6384C293.055 38.1236 293.024 36.6065 293.024 35.0918C293.024 28.3126 293.058 21.5311 293 14.7519C292.986 12.9691 293.874 12.0933 295.656 12.0981C309.696 12.1388 323.733 12.1196 337.772 12.1173C338.212 12.1173 338.665 12.2034 339.088 12" stroke="#C0CCD8" stroke-linecap="round" stroke-linejoin="round"/>
<path d="M334.301 20.4922H299.125" stroke="#C0CCD8" stroke-linecap="round" stroke-linejoin="round"/>
<path d="M325.926 27.5576C325.548 27.304 325.127 27.4452 324.73 27.4476C316.194 27.4763 307.661 27.5194 299.125 27.5576" stroke="#C0CCD8" stroke-linecap="round" stroke-linejoin="round"/>
<path d="M317.79 34.6094H299.125" stroke="#C0CCD8" stroke-linecap="round" stroke-linejoin="round"/>
<path d="M609.486 39.0563C609.936 39.0945 610.386 39.1643 610.836 39.1643C624.378 39.171 637.917 39.1688 651.458 39.1688C653.493 39.1688 654.384 40.06 654.384 42.0945C654.384 48.8843 654.384 55.6719 654.384 62.4618C654.384 64.269 653.603 65.0499 651.796 65.0499C645.308 65.0499 638.817 65.0499 632.329 65.0499H592.719C590.944 65.0499 590.134 64.2464 590.134 62.4618C590.131 55.4851 590.131 48.5085 590.134 41.5318C590.134 40.0713 590.838 39.3308 592.269 39.162C593.811 38.9797 595.346 39.1395 596.883 39.1485C600.934 39.1733 604.985 39.0945 609.036 39.054C609.11 39.054 609.187 39.018 609.261 39" stroke="#C0CCD8" stroke-linecap="round" stroke-linejoin="round"/>
<path d="M648.082 46.5938H619.951" stroke="#C0CCD8" stroke-linecap="round" stroke-linejoin="round"/>
<path d="M639.755 53.125H619.951" stroke="#C0CCD8" stroke-linecap="round" stroke-linejoin="round"/>
<path d="M639.755 59.7614C633.303 59.5161 626.853 59.7794 620.401 59.7614" stroke="#C0CCD8" stroke-linecap="round" stroke-linejoin="round"/>
<path d="M613.649 45.5859C610.239 49.2633 606.677 52.7921 603.072 56.3795C601.35 54.7366 599.68 53.1432 598.008 51.5498C597.72 51.2753 597.49 50.8927 596.995 50.9872" stroke="#C0CCD8" stroke-linecap="round" stroke-linejoin="round"/>
<path d="M411.803 42.598C411.538 42.42 411.243 42.5208 410.964 42.5191C405.201 42.5107 399.436 42.4654 393.673 42.5359C391.292 42.5644 388.917 42.4721 386.538 42.504C383.797 42.5409 381.054 42.5023 378.312 42.5157C376.437 42.5258 374.562 42.556 372.688 42.6047C372.212 42.6164 371.755 42.4335 371.256 42.5829C370.477 42.8145 370.006 43.3014 370.006 44.1072C369.999 49.1434 369.997 54.1797 370.006 59.2159C370.007 60.2618 370.571 60.8091 371.597 60.8108C385.14 60.8108 398.68 60.8108 412.223 60.8108C413.375 60.8108 413.984 60.1997 413.986 59.0481C413.987 54.3761 413.986 49.7025 413.986 45.0305" stroke="#C0CCD8" stroke-linecap="round" stroke-linejoin="round"/>
<path d="M412.559 44.4453C411.187 45.5365 409.796 46.6025 408.451 47.7239C405.889 49.8593 403.354 52.0266 400.808 54.1821" stroke="#C0CCD8" stroke-linecap="round" stroke-linejoin="round"/>
<path d="M383.767 50.8281C380.37 53.264 376.997 55.7334 373.695 58.2986" stroke="#C0CCD8" stroke-linecap="round" stroke-linejoin="round"/>
<path d="M387.629 50.3203C389.812 51.3276 391.992 52.3398 394.178 53.3404C395.18 53.7987 396.191 54.2368 397.198 54.6851" stroke="#C0CCD8" stroke-linecap="round" stroke-linejoin="round"/>
<path d="M387.545 50.2354C387.357 50.002 387.486 49.7318 387.464 49.48C387.389 48.6221 386.731 47.8482 385.95 47.7173C384.877 47.5376 384.028 48.0094 383.595 48.9746C383.214 49.8241 383.608 50.6249 384.271 51.1587C384.973 51.7228 385.989 51.7144 386.707 51.1621C387.026 50.917 387.144 50.4788 387.545 50.3193" stroke="#C0CCD8" stroke-linecap="round" stroke-linejoin="round"/>
<path d="M400.807 54.2684C401.284 55.561 401.091 56.2845 400.228 56.9661C399.62 57.4446 398.393 57.4093 397.782 56.7898C397.231 56.2325 396.993 54.9902 397.365 54.4362C397.928 53.5985 399.032 53.2175 399.88 53.6053C400.186 53.7446 400.444 53.988 400.723 54.1844" stroke="#C0CCD8" stroke-linecap="round" stroke-linejoin="round"/>
<path d="M416 42.9355C415.604 41.3558 414.484 40.644 413.23 41.1728C412.386 41.5287 411.857 42.3396 411.971 43.1034C412.124 44.1241 412.923 44.8879 413.902 44.95C414.733 45.0021 415.621 44.339 415.914 43.4392C415.958 43.3049 415.844 43.1353 416 43.0195" stroke="#C0CCD8" stroke-linecap="round" stroke-linejoin="round"/>
<path d="M481.739 45.7436C484.069 43.8007 486.4 41.8578 488.73 39.9149C481.864 30.7892 467.627 28.3278 457.464 36.2051C447.464 43.9544 445.634 57.6444 453.335 67.7655C461.094 77.9634 474.953 79.8455 485.094 72.1411C495.17 64.4878 496.857 49.9464 489.101 40.299" stroke="#C0CCD8" stroke-linecap="round" stroke-linejoin="round"/>
<path d="M481.099 45.7433C477.722 42.0015 473.612 40.6124 468.613 41.563C459.714 43.2531 455.127 54.1648 461.043 61.9461C465.104 67.2851 473.593 68.9271 479.31 64.4331C485.087 59.8911 486.009 52.1674 481.362 45.9898C478.231 48.5217 475.104 51.0535 471.977 53.5854" stroke="#C0CCD8" stroke-linecap="round" stroke-linejoin="round"/>
<path d="M494.383 31.5008C490.532 27.8775 486.227 24.9871 481.096 23.5051C470.139 20.3394 460.069 22.1479 451.021 29.1162C445.429 33.4245 441.898 39.1957 440.013 45.9207C439.145 49.0159 438.752 52.252 439.165 55.5104L439.862 61.0991C441.511 68.8964 445.637 75.1381 452.118 79.8529C456.837 83.2842 461.958 85.4544 467.809 86.133C472.639 86.6932 477.194 86.0082 481.746 84.4974C488.4 82.2888 493.685 78.2621 497.724 72.6222C503.146 65.0522 504.574 56.5507 502.99 47.5147C502.253 43.312 500.515 39.4357 498.22 35.8252" stroke="#C0CCD8" stroke-linecap="round" stroke-linejoin="round"/>
<path d="M473.737 51.9896C472.694 50.8533 471.497 50.1523 469.896 50.7124C468.533 51.1894 467.771 52.2168 467.502 53.59C467.175 55.2608 468.305 57.0533 470.053 57.7479C471.618 58.3689 473.561 57.8087 474.345 56.2915C475.062 54.9023 474.922 53.4844 473.734 52.3065" stroke="#C0CCD8" stroke-linecap="round" stroke-linejoin="round"/>
<path d="M504.305 29.8984C502.33 31.7133 500.349 33.5154 498.39 35.3463C497.785 35.9096 497.11 36.5178 496.306 36.4282C493.233 36.0825 491.082 37.6541 489.101 39.661" stroke="#C0CCD8" stroke-linecap="round" stroke-linejoin="round"/>
<path d="M499.664 26.3828C496.495 29.1548 493.419 31.9907 492.942 36.5455" stroke="#C0CCD8" stroke-linecap="round" stroke-linejoin="round"/>
<path d="M500.144 25.1016C499.414 26.1546 500.486 27.0029 500.47 27.9823C500.451 29.3779 501.635 29.4547 502.551 29.7108C502.97 29.826 503.364 29.89 503.662 30.2229" stroke="#C0CCD8" stroke-linecap="round" stroke-linejoin="round"/>
<path d="M177.707 -6.74186C175.952 -7.29814 174.195 -6.84969 172.573 -6.38898C164.616 -4.12954 159.21 1.8229 158.164 10.1132C157.477 15.5559 158.955 20.5821 162.491 24.9466C164.66 27.625 167.282 29.5904 170.478 30.8059C173.399 31.916 176.357 32.4233 179.55 32.0973C183.525 31.693 187.009 30.3084 190.068 27.8554C193.986 24.7138 196.314 20.5796 197.054 15.6172C198.441 6.31482 193.614 -1.68877 185.522 -5.40139C183.159 -6.48455 180.574 -7.34225 177.827 -6.80313" stroke="#C0CCD8" stroke-linecap="round" stroke-linejoin="round"/>
<path d="M177.707 -6.67969C177.707 -0.96249 177.754 4.75715 177.673 10.4744C177.653 11.8614 178.136 12.8686 179.053 13.7826C181.996 16.7209 184.978 19.6199 187.853 22.6243C189.014 23.8374 190.293 24.923 191.428 26.158" stroke="#C0CCD8" stroke-linecap="round" stroke-linejoin="round"/>
<path d="M196.944 12.4323C191.227 12.4323 185.508 12.4323 179.79 12.4323C179.335 12.4323 178.864 12.3564 178.443 12.6137" stroke="#C0CCD8" stroke-linecap="round" stroke-linejoin="round"/>
<path d="M543.837 22.1152C542.983 20.1403 542.186 18.1429 541.254 16.2032C540.745 15.1405 539.385 14.8461 538.245 15.5695C535.08 17.5732 532.858 20.9245 534.945 25.9274C537.954 33.1422 543.216 38.4972 550.258 41.9221C553.629 43.5609 557.585 42.5142 559.694 39.5663C560.901 37.8794 560.783 36.5543 559.032 35.578C557.598 34.7778 556.084 34.0992 554.554 33.4974C553.136 32.9405 552.281 33.3054 551.362 34.5985C550.197 36.2342 549.724 36.2982 548.162 35.0819C545.486 32.9981 543.146 30.6263 541.6 27.5599C540.585 25.5465 540.633 25.2552 542.57 24.2182C543.399 23.7732 543.597 23.0402 543.84 22.2784" stroke="#C0CCD8" stroke-linecap="round" stroke-linejoin="round"/>
<path d="M561.442 61.0034C560.731 57.5625 561.339 54.1216 561.054 50.7735C562.463 50.3862 563.465 50.8823 564.482 50.7606C568.89 50.2293 571.083 47.7294 571.012 43.5587C570.836 33.5817 570.961 23.6046 570.865 13.6307C570.843 11.1437 568.548 8.08686 564.643 8.04205C559.896 7.98764 555.146 8.02924 550.399 8.02924C543.517 8.02924 536.635 8.09006 529.753 8.00044C526.495 7.95883 522.958 10.878 522.999 14.751C523.102 24.3536 523.031 33.9562 523.035 43.5587C523.035 47.659 525.976 50.5974 530.077 50.6006C536.478 50.6006 542.88 50.6134 549.282 50.591C550.287 50.5878 551.087 50.7638 551.868 51.5384C554.307 53.9551 556.858 56.2565 559.364 58.6059C559.828 59.0413 560.216 59.6046 560.965 59.5662" stroke="#C0CCD8" stroke-linecap="round" stroke-linejoin="round"/>
<path d="M608.136 6C607.908 6.11403 607.662 6.06984 607.424 6.06984C605.214 6.07269 603.005 6.07697 600.796 6.06841C600.036 6.06556 599.275 6.00571 598.515 6.00428C597.495 6.00428 596.994 6.52881 597 7.49664C597.037 13.697 597.019 19.8973 597.019 26.0977C597.019 26.97 597.49 27.4489 598.373 27.4504C602.482 27.4532 606.593 27.4518 610.702 27.4518C614.052 27.4518 617.401 27.4518 620.751 27.4518C621.921 27.4518 622.248 27.124 622.248 25.9552C622.248 19.8261 622.248 13.697 622.248 7.56791C622.248 6.4889 621.83 6.06699 620.751 6.0727C616.831 6.09408 612.911 6.12115 608.992 6.13968C608.725 6.13968 608.437 6.22093 608.208 6" stroke="#C0CCD8" stroke-linecap="round" stroke-linejoin="round"/>
<path d="M606.996 19.327C605.768 19.5993 604.699 20.1509 603.86 21.1087C602.938 22.1592 602.831 23.4349 602.872 24.7434C602.881 25.0014 603.039 25.1767 603.362 25.1767C607.71 25.1696 612.057 25.1725 616.405 25.1682C616.452 25.1682 616.497 25.1197 616.549 25.0912C617.187 21.8114 614.294 19.1232 611.771 19.3056C610.211 19.4183 608.636 19.327 607.068 19.327" stroke="#C0CCD8" stroke-linecap="round" stroke-linejoin="round"/>
<path d="M609.348 9.99241C607.934 10.1649 606.868 10.8676 606.218 12.1333C604.963 14.575 606.848 17.4157 609.419 17.6196C611.37 17.7735 613.158 16.3866 613.458 14.4068C613.738 12.5695 612.891 10.8533 610.702 10.1321C610.28 9.9924 609.851 9.99098 609.418 9.99241" stroke="#C0CCD8" stroke-linecap="round" stroke-linejoin="round"/>
<path d="M432.486 -6.20135C432.46 -6.51504 432.659 -6.86713 432.006 -6.86073C425.818 -6.82552 419.628 -6.81912 413.441 -6.84473C407.305 -6.87033 401.169 -7.08799 395.036 -6.95995C389.057 -6.83512 383.446 -2.76683 382.277 3.25078C381.051 9.56287 383.903 15.1484 390.881 17.629C397.478 19.9752 403.8 19.2935 409.76 15.5645" stroke="#C0CCD8" stroke-linecap="round" stroke-linejoin="round"/>
<path d="M432.806 2.91786C422.243 2.91786 411.68 2.92107 401.117 2.91147C400.157 2.91147 399.197 2.81223 398.236 2.75781" stroke="#C0CCD8" stroke-linecap="round" stroke-linejoin="round"/>
<path d="M423.523 12.2031H399.037" stroke="#C0CCD8" stroke-linecap="round" stroke-linejoin="round"/>
</g>
<defs>
<clipPath id="clip0_1522_75040">
<rect width="661" height="72" fill="white"/>
</clipPath>
</defs>
</svg>
