<svg width="661" height="72" viewBox="0 0 661 72" fill="none" xmlns="http://www.w3.org/2000/svg">
<g clip-path="url(#clip0_1019_62195)">
<path d="M238.435 45.2535C238.652 45.5252 238.943 45.6957 239.276 45.7163C242.166 45.8811 245.06 45.9804 247.863 45.0606C251.971 43.7118 254.728 40.9823 255.659 36.7204C256.048 34.9426 256.025 33.0692 255.835 31.2015C255.491 27.8351 254.078 24.7852 253.236 21.5687C252.569 19.0228 252.076 16.4544 251.6 13.8767C251.056 10.9336 250.451 8.00184 248.974 5.35853C247.798 3.25288 246.328 1.40388 244.041 0.37728C243.727 0.236778 243.453 -0.0254903 243.199 -0.2709C240.695 -2.71001 237.647 -3.98577 234.23 -4.37917C226.936 -5.22218 220.662 -2.94231 215.381 2.08578C211.441 5.83624 208.977 10.4672 207.718 15.7519C206.805 19.5811 205.444 23.2585 203.969 26.8928C202.768 29.8471 202.04 32.8744 202.31 36.076C202.523 38.6031 203.494 40.8418 205.199 42.7226C207.132 44.8564 209.617 45.9598 212.381 46.5818C214.474 47.052 216.556 46.9583 218.634 46.6342C219.148 46.5537 219.572 46.7316 220.039 46.7541" stroke="#C0CCD8" stroke-linecap="round" stroke-linejoin="round"/>
<path d="M422.177 146.884C422.024 145.282 422.498 143.755 422.741 142.2C423.07 140.106 423.393 138.011 423.772 135.924C424.401 132.455 425.081 128.993 425.723 125.525C426.203 122.936 426.676 120.346 427.122 117.751C427.46 115.788 427.85 113.826 428.031 111.848C428.205 109.956 428.183 108.047 428.097 106.136C428.029 104.656 427.886 103.186 427.652 101.741C427.299 99.5588 427.225 97.3463 426.778 95.1732C426.463 93.639 426.444 92.0447 426.175 90.4973C425.925 89.0605 425.716 87.6142 425.492 86.1774C425.269 84.7518 425.107 83.3055 424.876 81.878C424.573 80.0028 424.276 78.1238 423.998 76.2486C423.748 74.5626 423.445 72.884 423.195 71.198C422.459 66.2055 421.63 61.2393 419.29 56.6739C418.142 54.4296 416.364 52.8597 414.239 51.6214C410.929 49.69 407.338 48.4049 403.784 47.028C402.313 46.4585 400.901 45.6717 399.385 45.2914C396.956 44.6844 395.045 43.1988 393.071 41.8425C392.114 41.185 391.4 40.1546 390.625 39.2517C389.531 37.9759 389.061 37.9422 387.809 38.965C386.861 39.7406 385.81 40.3888 384.835 41.1344C381.87 43.4012 378.915 45.6848 375.967 47.974C375.664 48.2101 375.386 48.4573 375.033 48.6334C374.447 48.9257 374.408 49.4352 374.938 49.838C377.076 51.4641 379.093 53.2475 381.272 54.823C381.94 55.3063 382.465 55.6192 383.059 54.808C383.111 54.7368 383.173 54.6413 383.246 54.6263C385.518 54.1617 386.116 52.0392 387.236 50.4824C388.822 48.2775 389.901 45.7447 391.537 43.5548C391.968 42.9778 392.487 42.5057 392.954 41.9755" stroke="#C0CCD8" stroke-linecap="round" stroke-linejoin="round"/>
<path d="M388.472 38.3216C388.19 37.9245 388.18 37.4674 388.194 37.0103C388.285 33.6701 388.377 30.328 388.475 26.9878C388.49 26.4876 388.569 25.9874 388.558 25.4891C388.545 24.9384 388.931 24.7604 389.316 24.6555C392.335 23.8349 393.982 21.733 394.828 18.8406C395.061 18.0407 395.25 17.2445 395.198 16.4033C395.114 15.0751 395.848 13.9268 396.036 12.6566C396.576 9.00546 396.705 5.41423 395.614 1.77804C394.311 -2.56814 391.992 -6.13689 388.362 -8.76521C385.818 -10.6067 382.915 -11.7026 379.798 -12.2871C377.255 -12.763 374.704 -13.0889 372.138 -12.9784C367.76 -12.7911 363.601 -11.8188 360.186 -8.79143C357.687 -6.57713 356.795 -3.8083 357.405 -0.55241C357.489 -0.108425 357.557 0.393634 357.938 0.770179C358.696 1.51765 358.628 2.48617 358.395 3.38164C357.344 7.40936 357.23 11.542 356.897 15.654C356.709 17.9976 356.638 20.3449 356.759 22.6791C356.94 26.1504 357.467 29.5581 359.142 32.7109C361.202 36.5888 364.341 38.7787 368.682 39.2583C369.681 39.3688 370.088 39.8259 369.771 40.9349C369.365 42.3531 369.956 43.4246 370.65 44.4981C371.5 45.8113 372.669 46.8379 373.817 47.8739C374.095 48.1249 374.377 48.3741 374.657 48.6232" stroke="#C0CCD8" stroke-linecap="round" stroke-linejoin="round"/>
<path d="M361.211 46.2815C360.85 46.0923 360.43 46.0942 360.096 46.2047C355.883 47.5928 351.573 48.7731 347.867 51.3508C345.783 52.7989 344.405 54.8259 343.361 57.1395C341.723 60.77 340.56 64.5729 339.189 68.2991C338.121 71.2065 337.216 74.1758 336.179 77.0963C334.559 81.6654 332.887 86.2158 331.238 90.7737C330.708 92.2405 330.182 93.7093 329.649 95.1761C329.511 95.5564 329.433 95.9423 329.465 96.3469" stroke="#C0CCD8" stroke-linecap="round" stroke-linejoin="round"/>
<path d="M384.459 54.4336C384.455 54.9094 384.508 55.3778 384.28 55.8424C382.06 60.3347 379.759 64.7895 377.83 69.4204C376.142 71.2451 376.081 73.7741 375.059 75.8985C373.752 78.6168 372.858 81.5486 371.41 84.1806C370.518 85.803 370.359 87.6463 369.411 89.1731C368.273 91.0015 368.41 92.9985 368.404 94.9918C368.395 97.5826 368.453 100.175 368.393 102.766C368.206 110.883 368.309 119.003 368.329 127.12C368.342 132.365 368.557 137.611 368.682 142.856C368.712 144.136 369.015 145.409 368.776 146.696" stroke="#C0CCD8" stroke-linecap="round" stroke-linejoin="round"/>
<path d="M211.919 51.4375C213.625 54.4742 215.407 57.4678 217.239 60.4315C218.68 62.7619 220.045 65.1374 221.354 67.5465C223.489 71.473 225.481 75.4708 227.303 79.5472C228.708 82.6888 230.035 85.8717 231.219 89.1013C232.614 92.908 234.147 96.6566 235.63 100.428C235.749 100.729 235.82 101.051 235.914 101.362" stroke="#C0CCD8" stroke-linecap="round" stroke-linejoin="round"/>
<path d="M256.267 86.5617C257.653 86.6497 258.902 86.0821 260.183 85.6999C260.526 85.5969 260.878 85.6924 261.229 85.4582C262.164 84.8325 262.573 84.1656 262.474 82.9067C262.035 77.2567 261.41 71.6441 259.613 66.2432C258.243 62.1237 256.118 58.4613 252.624 55.7506C250.52 54.117 248.081 53.1991 245.528 52.5734C244.645 52.3579 243.797 52.0188 242.817 52.1275C242.399 52.1743 241.915 51.603 241.332 51.513C240.388 51.365 239.46 51.1028 238.53 50.8742C237.898 50.7187 237.46 50.3703 237.407 49.6603C237.323 48.5513 237.172 47.4535 236.864 46.3782C236.771 46.0541 236.791 45.6625 237.036 45.3516" stroke="#C0CCD8" stroke-linecap="round" stroke-linejoin="round"/>
<path d="M387.634 14.9058C386.378 13.5139 385.829 11.7436 385.341 10.0238C384.602 7.41237 384.324 4.71099 384.641 1.97963C384.729 1.22092 384.148 0.685144 383.246 0.67203C380.57 0.63269 377.893 0.647675 375.217 0.565247C371.762 0.458466 368.302 0.331079 364.947 -0.64494C363.843 -0.965284 362.767 -1.36618 361.774 -1.95629C361.359 -2.2017 360.99 -2.53703 360.465 -2.51455" stroke="#C0CCD8" stroke-linecap="round" stroke-linejoin="round"/>
<path d="M347.487 67.0781C347.235 68.2546 347.201 69.4311 347.276 70.6394C347.373 72.2261 347.291 73.8222 347.302 75.4146C347.326 78.9739 347.293 82.5352 347.412 86.0927C347.537 89.8413 347.716 93.5899 347.905 97.3366C348.021 99.6333 348.409 101.939 348.013 104.275C347.898 104.965 348.247 105.819 348.37 106.6C348.59 108.015 348.469 109.416 348.508 110.823C348.6 114.197 348.443 117.569 348.323 120.939C348.222 123.813 348.142 126.688 347.935 129.555C347.752 132.084 347.56 134.613 347.378 137.142C347.164 140.145 346.833 143.138 346.553 146.136" stroke="#C0CCD8" stroke-linecap="round" stroke-linejoin="round"/>
<path d="M219.762 22.6815C219.731 22.245 219.688 21.8085 219.675 21.3701C219.669 21.179 219.671 20.9636 219.48 20.9112C218.747 20.7126 218.31 20.0344 217.615 19.7778C215.96 19.1671 215.281 19.4218 214.181 21.0104C212.273 23.7643 213.369 29.6241 217.617 30.8774C218.319 31.0835 219.045 31.0104 219.779 31.0217C220.614 32.6327 220.679 34.4405 220.946 36.1771C221.29 38.4008 221.525 40.6526 221.441 42.9156C221.411 43.7324 221.37 44.5454 221.187 45.3566C221.079 45.8418 220.89 46.2595 220.5 46.4544C219.83 46.7897 219.82 47.5784 219.228 48.0074C218.289 48.6874 217.228 49.152 216.31 49.847C215.286 50.6226 214.093 50.8137 212.859 50.9954C211.335 51.2183 209.873 51.6979 208.46 52.3611C205.49 53.7548 202.533 55.1917 200.365 57.7339C198.35 60.098 196.959 62.8631 195.861 65.7706C194.132 70.3434 193.037 75.0718 192.406 79.9144C192.358 80.2909 192.343 80.6862 192.212 81.0347C191.523 82.8481 192.63 83.8035 193.902 84.6915C195.022 85.4726 196.184 86.1995 197.254 87.0444C199.556 88.8597 201.356 91.1002 202.572 93.7829C202.775 94.2343 202.932 94.5921 203.519 94.5416C203.705 94.5247 203.862 94.6858 203.999 94.8938C204.904 96.2613 205.991 97.509 206.532 99.1088C206.628 99.3898 206.816 99.7364 207.238 99.9031C207.587 100.04 207.853 100.463 208.086 100.808C210.626 104.562 213.272 108.24 216.13 111.756C216.978 112.799 217.908 113.779 218.834 114.757C220.606 116.625 222.883 117.367 225.366 117.456C227.17 117.522 228.974 117.43 230.785 117.243C232.833 117.029 234.884 116.773 236.942 116.621C239.162 116.458 241.369 116.138 243.578 115.843C245.875 115.538 248.164 115.122 250.481 114.956C251.413 114.888 252.334 114.453 253.282 114.856C254.173 114.041 255.338 114.283 256.369 114.148C258.165 113.91 259.965 113.67 261.775 113.498C263.237 113.359 264.699 113.069 266.169 112.893C268.127 112.659 270.09 112.447 272.051 112.235C273.014 112.131 273.98 111.983 274.945 111.968C276.497 111.945 278.073 111.904 279.427 112.889" stroke="#C0CCD8" stroke-linecap="round" stroke-linejoin="round"/>
<path d="M215.467 50.6875C217.984 55.7175 222.204 58.6493 227.429 60.2023C229.152 60.7137 230.997 60.8317 232.833 60.8224C234.612 60.813 236.341 60.7006 238.068 60.1723C240.86 59.3181 242.242 57.3979 242.628 54.6215C242.737 53.8479 242.759 53.061 242.823 52.2817" stroke="#C0CCD8" stroke-linecap="round" stroke-linejoin="round"/>
<path d="M240.537 2.72656C240.68 3.53585 241.326 3.91427 241.868 4.43694C243.119 5.64151 244.21 7.02217 245.046 8.54521C246.506 11.1979 247.433 14.0323 247.892 17.054C248.536 21.2878 248.743 25.5366 248.581 29.7966C248.473 32.6403 248.159 35.5215 246.9 38.1199C245.649 40.7051 243.582 42.5579 240.957 43.7568C240.032 44.1783 238.957 44.2664 238.217 45.1319C238.018 45.366 237.282 45.3192 237.058 45.2049C235.687 44.508 234.126 44.7104 232.731 44.1465C231.43 43.6201 230.164 43.0618 228.995 42.2694C228.588 41.994 228.24 41.7617 228.257 41.224" stroke="#C0CCD8" stroke-linecap="round" stroke-linejoin="round"/>
<path d="M366.906 54.6211C366.262 55.4753 366.535 56.5001 366.475 57.433C366.378 58.9542 366.423 60.4978 366.553 62.019C366.721 63.9935 367.095 65.9493 367.255 67.9238C367.34 68.9616 367.27 69.9658 368.152 70.7488C368.421 70.9867 368.133 71.427 368.098 71.7586C367.887 73.7537 368.579 75.6308 368.8 77.566C369.029 79.578 369.461 81.5656 369.801 83.5645C369.916 84.2445 369.987 84.9395 370.549 85.4378" stroke="#C0CCD8" stroke-linecap="round" stroke-linejoin="round"/>
<path d="M389.501 59.2109C389.534 59.653 389.868 59.9041 390.16 60.1401C391.491 61.2098 392.845 62.2514 394.163 63.278C394.24 64.0929 393.667 64.5538 393.319 65.1064C391.848 67.4518 390.009 69.5163 388.279 71.6631C385.443 75.1813 382.592 78.6901 379.688 82.1521C376.924 85.4473 374.174 88.7538 371.554 92.167C371.421 92.3394 371.195 92.6728 370.826 92.5567" stroke="#C0CCD8" stroke-linecap="round" stroke-linejoin="round"/>
<path d="M356.729 62.582C357.35 64.6109 357.912 66.6622 358.609 68.6667C359.879 72.3197 361.326 75.9053 362.883 79.446C364.149 82.3235 365.468 85.1747 366.924 87.9567C367.374 88.8146 367.699 89.8225 368.677 90.3096" stroke="#C0CCD8" stroke-linecap="round" stroke-linejoin="round"/>
<path d="M240.956 4.13281C239.638 5.66709 238.523 7.35686 237.249 8.93235C233.952 13.0144 229.844 15.7589 224.807 17.162C223.256 17.5948 221.655 17.9713 220.591 19.3913C220.225 19.8802 220.111 20.5322 219.577 20.8994" stroke="#C0CCD8" stroke-linecap="round" stroke-linejoin="round"/>
<path d="M397.715 44.9727C397.653 46.1903 397.582 47.408 397.53 48.6257C397.431 50.9056 397.334 53.1836 397.256 55.4635C397.239 55.9355 396.987 56.1397 396.598 56.3121C394.92 57.0577 393.196 57.6853 391.458 58.2623C390.789 58.4833 390.089 58.6369 389.514 59.0416C389.245 59.2326 389.008 59.1671 388.754 59.2083" stroke="#C0CCD8" stroke-linecap="round" stroke-linejoin="round"/>
<path d="M254.308 68.3867C254.071 69.1773 254.435 69.9229 254.628 70.6235C255.128 72.4482 255.423 74.299 255.722 76.1593C256.239 79.3683 256.026 82.5868 256.032 85.8089C256.034 87.184 255.423 88.3923 255.401 89.743C255.384 90.8071 255.121 91.8674 254.96 92.9277C254.727 94.4919 254.562 96.0637 254.234 97.6148C254.002 98.7164 253.965 99.8591 253.84 100.983" stroke="#C0CCD8" stroke-linecap="round" stroke-linejoin="round"/>
<path d="M371.295 52.4648C371.637 52.8751 371.672 53.3566 371.676 53.8699C371.683 54.9676 371.521 56.0879 371.958 57.1445C372.042 57.3487 371.887 57.3993 371.855 57.5248C370.92 61.3951 369.982 65.2674 369.056 69.1396C368.927 69.6791 368.769 70.1905 368.305 70.5446" stroke="#C0CCD8" stroke-linecap="round" stroke-linejoin="round"/>
<path d="M377.737 52.3711C376.91 53.1617 376.929 54.3081 376.531 55.2785C376.213 56.056 376.105 56.9196 375.629 57.6727C375.931 58.0961 375.976 58.6375 375.969 59.2088C375.916 62.5865 376.019 65.9586 376.324 69.3268C376.363 69.754 376.477 70.1118 376.71 70.449" stroke="#C0CCD8" stroke-linecap="round" stroke-linejoin="round"/>
<path d="M382.407 36.0727C382.024 36.0165 381.703 36.1326 381.376 36.3462C378.231 38.4069 374.743 39.3305 371.016 39.441C370.616 39.4522 370.213 39.4091 369.896 39.7257" stroke="#C0CCD8" stroke-linecap="round" stroke-linejoin="round"/>
<path d="M369.428 42.1629C368.037 42.0167 366.627 42.7567 366.379 43.95C366.211 44.7575 366.282 45.6361 366.36 46.4716C366.504 48.0002 366.599 49.5289 366.624 51.0632C366.639 51.9718 366.631 52.8766 366.799 53.7814C366.954 54.6188 367.212 54.8043 368.03 54.6413C368.414 54.5645 368.754 54.3397 368.933 54.1299C369.832 53.0752 371.159 52.5338 371.977 51.3629C372.575 50.5068 373.432 49.8268 374.47 49.4689" stroke="#C0CCD8" stroke-linecap="round" stroke-linejoin="round"/>
<path d="M242.263 34.4805C240.589 36.5599 236.521 36.5018 234.521 35.0312C234.076 34.7034 233.714 34.4018 233.206 34.8551" stroke="#C0CCD8" stroke-linecap="round" stroke-linejoin="round"/>
<path d="M373.256 28.8594C372.163 29.6556 370.998 30.2475 369.614 30.3674C368.012 30.5061 366.425 30.6297 364.946 29.7961" stroke="#C0CCD8" stroke-linecap="round" stroke-linejoin="round"/>
<path d="M395.198 14.6257C394.715 14.3616 394.399 13.9307 394.076 13.5036C393.085 12.196 391.348 11.8119 389.893 12.7786C388.543 13.6759 387.283 14.7569 387.542 16.6864" stroke="#C0CCD8" stroke-linecap="round" stroke-linejoin="round"/>
<path d="M366.159 44.0352C364.305 44.1607 362.813 45.0917 361.397 46.1895C361.143 47.4671 360.206 48.3701 359.623 49.4679C358.781 51.0584 357.943 52.6526 357.102 54.2449" stroke="#C0CCD8" stroke-linecap="round" stroke-linejoin="round"/>
<path d="M356.637 54.1992C358.4 55.2858 360.017 56.5784 361.662 57.8279C361.941 58.0396 361.778 58.3955 361.41 58.6653C360.114 59.617 358.705 60.4019 357.446 61.421C357.056 61.7376 357.091 62.4289 356.449 62.442" stroke="#C0CCD8" stroke-linecap="round" stroke-linejoin="round"/>
<path d="M360.185 -3.73438C360.431 -1.77672 359.464 -0.195603 358.594 1.41548C358.586 1.4286 358.534 1.41548 358.504 1.41548" stroke="#C0CCD8" stroke-linecap="round" stroke-linejoin="round"/>
<path d="M372.136 57.2422C373.257 57.3677 374.377 57.4913 375.497 57.6169" stroke="#C0CCD8" stroke-linecap="round" stroke-linejoin="round"/>
<path d="M262.999 45.7717C263.89 44.9568 265.055 45.1984 266.086 45.0635C267.882 44.8256 269.682 44.5859 271.492 44.4135C272.954 44.2749 274.416 43.9845 275.886 43.8084C277.844 43.5742 279.807 43.3625 281.768 43.1509C282.731 43.046 283.697 42.8979 284.662 42.883C286.214 42.8605 287.79 42.8193 289.143 43.8047" stroke="#C0CCD8" stroke-linecap="round" stroke-linejoin="round"/>
<path d="M345.907 46.0843C343.752 46.2885 341.596 46.5638 339.458 46.9591C337.77 47.272 336.037 47.3432 334.328 47.5511C332.147 47.8152 329.972 48.1244 327.791 48.3848C326.582 48.529 325.363 48.7407 324.157 48.4578C323.897 48.3979 323.688 48.4615 323.501 48.5028C322.135 48.8119 321.543 48.4053 321.455 46.9835C321.434 46.6444 321.208 46.2978 321.444 45.9531" stroke="#C0CCD8" stroke-linecap="round" stroke-linejoin="round"/>
<path d="M303.05 27.9694C301.775 26.8136 300.33 27.3194 298.946 27.6116C297.293 27.9601 295.811 28.7712 294.476 29.7697C293.008 30.8656 291.467 31.3789 289.609 31.4951C287.019 31.6562 284.431 31.437 281.858 31.6487C278.964 31.8866 276.066 31.7293 273.173 31.8922" stroke="#C0CCD8" stroke-linecap="round" stroke-linejoin="round"/>
<path d="M323.964 48.2949C324.1 47.583 324.442 46.9254 324.19 46.1274C324.074 45.7621 324.485 45.3162 324.562 44.8348C324.78 43.4316 325.01 42.0116 324.956 40.616C324.825 37.1784 324.636 33.7201 322.298 30.8614C322.045 30.5504 321.839 30.35 321.443 30.4062C319.044 30.749 316.908 30.0428 314.798 28.9375C313.356 28.1825 311.797 27.6074 310.23 27.1578C308.592 26.6876 306.988 27.3882 305.386 27.701C305.269 27.7235 305.188 27.8809 305.011 27.8828C302.83 27.9015 301.118 29.1698 299.336 30.1608C298.274 30.7527 297.575 31.7887 297.133 33.0139C296.825 33.8644 296.223 34.6268 295.659 35.3575C295.206 35.9476 294.989 36.6295 295.247 37.2271C295.587 38.0195 296.352 38.3267 297.262 38.3867C299.295 38.5197 300.895 37.909 302.042 36.1312C302.639 35.2057 304.744 35.0746 305.668 35.7396C307.627 37.1465 309.746 38.278 311.927 39.2896C312.51 39.5594 313.065 39.8235 313.311 40.4324C313.636 41.2342 314.157 41.8618 314.814 42.3957C316.202 43.5215 317.311 44.9022 318.357 46.3335C318.838 46.9929 319.019 47.8228 318.883 48.5702C318.728 49.4133 317.15 49.6961 316.308 49.1397C314.822 48.1581 313.653 46.8018 312.286 45.6815C311.517 45.0521 310.856 44.2222 309.773 44.0798" stroke="#C0CCD8" stroke-linecap="round" stroke-linejoin="round"/>
<path d="M340.304 27.5025C339.279 27.0866 338.308 27.6299 337.32 27.7217C334.231 28.0102 331.15 28.4036 328.075 28.827C326.362 29.063 324.637 29.211 322.932 29.5332C322.337 29.6456 322.105 29.8911 322.004 30.4062" stroke="#C0CCD8" stroke-linecap="round" stroke-linejoin="round"/>
<path d="M312.109 51.1974C311.102 52.7523 309.286 53.3743 307.84 52.4657C307.302 52.1285 306.823 51.5665 306.324 51.1C305.517 50.3469 304.567 49.7625 303.883 48.8632C303.213 47.9772 301.687 48.2619 301.006 48.867C300.067 49.7006 299.099 50.5305 298.323 51.5066C297.807 52.1547 297.129 52.3065 296.511 52.3758C295.202 52.5238 294.855 51.7576 294.924 50.8246C294.954 50.4106 294.978 49.9873 294.743 49.607" stroke="#C0CCD8" stroke-linecap="round" stroke-linejoin="round"/>
<path d="M298.008 52.041C298.133 52.4007 298.204 52.7903 298.391 53.1126C298.943 54.0698 299.494 54.0511 300.245 53.7214C301.728 53.0732 302.883 52.026 303.681 50.6247C303.854 50.3213 304.024 50.0403 304.262 49.793" stroke="#C0CCD8" stroke-linecap="round" stroke-linejoin="round"/>
<path d="M302.772 52.1328C303.364 52.6012 303.676 53.3561 304.361 53.7214C305.666 54.4164 306.901 54.2029 307.72 52.6012" stroke="#C0CCD8" stroke-linecap="round" stroke-linejoin="round"/>
<path d="M293.341 45.577C292.986 45.3053 293.133 44.8726 293.089 44.5429C292.93 43.3346 292.635 42.988 291.473 42.9543C289.371 42.8962 287.653 45.073 287.939 46.9801C288.116 48.1528 289.199 48.5219 290.254 48.0011C291.176 47.544 292.004 46.9801 292.721 46.1689C293.526 45.2566 294.724 44.9812 295.955 45.0112C296.332 45.0206 296.569 45.2285 296.795 45.4833C297.103 45.8299 297.417 46.1708 297.729 46.5136" stroke="#C0CCD8" stroke-linecap="round" stroke-linejoin="round"/>
<path d="M301.369 48.4823C301.094 47.7872 301.527 46.9573 300.829 46.3054C300.308 45.8183 299.828 45.7828 299.221 45.9495C297.683 46.3747 296.631 47.48 295.589 48.5834C295.048 49.1567 294.463 49.6231 293.716 49.891C292.663 50.2694 291.675 49.6287 291.562 48.4823C291.533 48.1975 291.442 47.9202 291.38 47.6392" stroke="#C0CCD8" stroke-linecap="round" stroke-linejoin="round"/>
<path d="M316.498 49.4197C315.706 51.7427 313.193 51.8363 311.548 50.6411C310.073 49.5696 308.782 48.3032 307.582 46.9375" stroke="#C0CCD8" stroke-linecap="round" stroke-linejoin="round"/>
<path d="M318.642 46.3257C319.318 45.8573 320.184 45.3197 320.858 45.552C321.928 45.921 323.026 45.7018 324.057 46.0447" stroke="#C0CCD8" stroke-linecap="round" stroke-linejoin="round"/>
<path d="M316.029 40.7996C314.963 40.5335 313.907 40.3294 312.845 40.8764C312.623 40.9907 312.294 40.8932 312.014 40.8932" stroke="#C0CCD8" stroke-linecap="round" stroke-linejoin="round"/>
<path d="M305.385 34.1523C305.377 34.5064 305.443 34.8717 305.198 35.1827" stroke="#C0CCD8" stroke-linecap="round" stroke-linejoin="round"/>
<line x1="463.5" y1="20" x2="463.5" y2="56" stroke="#C0CCD8"/>
<path d="M594.259 81.2865C596.285 78.8944 597.956 76.4052 600.242 74.0807C608.317 65.8727 620.714 61.2177 636.038 58.9637C639.885 58.3965 643.947 58.3407 647.494 59.3017C653.988 61.0649 656.639 63.7098 653.973 68.3413C649.52 76.0732 640.585 81.5245 628.033 84.9658C627.663 85.0658 627.363 85.2538 627.027 85.4008" stroke="#C0CCD8" stroke-linecap="round" stroke-linejoin="round"/>
<path d="M613.27 32.9426C616.717 30.8032 618.573 28.1612 620.299 25.4546C622.6 21.8517 624.802 18.1959 629.769 15.454C630.865 14.8487 632.081 14.3902 633.527 14.1316C635.478 13.7878 636.138 14.0963 636.298 15.31C636.523 17.0645 635.643 18.7073 634.217 20.1384C630.835 23.5298 626.352 26.3715 620.489 28.3552C620.039 28.508 619.308 29.0458 618.518 28.5345" stroke="#C0CCD8" stroke-linecap="round" stroke-linejoin="round"/>
<path d="M601.763 47.0469C600.848 48.9071 599.802 50.7527 599.041 52.6335C598.001 55.2107 597.08 57.8115 596.285 60.4182C595.494 63.0014 594.849 65.6022 594.294 68.2059C594.054 69.3227 593.944 70.4717 593.864 71.5855C593.653 74.4714 592.648 77.3719 593.343 80.246C593.788 82.0828 592.658 83.8901 593.508 85.6886" stroke="#C0CCD8" stroke-linecap="round" stroke-linejoin="round"/>
<path d="M601.762 46.903C599.141 46.2858 597.64 44.8987 596.364 43.6351C593.723 41.0196 591.837 38.1807 592.232 35.001C592.372 33.8637 592.732 32.8557 594.498 32.1445C598.676 33.4787 599.956 35.8914 601.227 38.2425C602.723 41.0196 602.323 43.8996 602.017 46.759" stroke="#C0CCD8" stroke-linecap="round" stroke-linejoin="round"/>
<path d="M609.767 39.5559C613.91 36.9992 619.108 35.4886 624.796 34.607C626.747 34.3043 628.948 34.5042 631.024 34.5864C631.88 34.6188 632.305 35.1801 632.901 35.5915C630.864 38.1629 626.867 39.168 622.75 39.7998C617.802 40.5609 612.734 40.1789 607.761 39.5559" stroke="#C0CCD8" stroke-linecap="round" stroke-linejoin="round"/>
<path d="M599.512 54.3943C602.834 51.0412 608.092 49.1193 614.056 47.835C615.672 47.4883 617.703 47.7145 619.524 47.8027C621.12 47.8791 621.695 48.7284 620.765 49.5424C618.258 51.7318 614.611 53.0425 610.514 53.9447C606.737 54.7764 602.824 55.2231 598.762 55.129" stroke="#C0CCD8" stroke-linecap="round" stroke-linejoin="round"/>
<path d="M611.519 34.7051C609.262 33.9028 608.827 32.4511 608.057 31.1698C606.306 28.2663 605.6 25.2835 606.736 22.2095C606.951 21.6247 607.191 21.0017 608.047 20.7813C609.057 20.5197 609.883 21.0399 610.508 21.4836C613.595 23.6642 614.761 26.1651 614.025 28.9745C613.665 30.344 613.59 31.7575 612.95 33.077C612.354 34.3054 611.389 35.5133 610.228 36.6006C607.121 39.51 604.9 42.6427 603.004 45.8695C602.909 46.0311 602.679 46.1663 602.514 46.3132" stroke="#C0CCD8" stroke-linecap="round" stroke-linejoin="round"/>
<path d="M635.282 67.7656C624.816 70.5163 615.691 74.3808 607.787 79.2385C604.835 81.0518 602.198 83.0354 599.742 85.0955C599.487 85.3071 599.562 85.4922 599.512 85.692" stroke="#C0CCD8" stroke-linecap="round" stroke-linejoin="round"/>
<path d="M136.216 51.194C136.194 47.6029 136.246 44.0142 136.126 40.4231C136.094 39.4587 135.709 38.9789 134.874 38.9789C133.071 38.9789 131.297 38.7023 129.506 38.5799C128.555 38.5138 128.406 39.0352 128.401 39.8136C128.377 43.6079 128.328 47.4021 128.286 51.1964" stroke="#C0CCD8" stroke-linecap="round" stroke-linejoin="round"/>
<path d="M148.296 35.1601C146.824 35.4025 145.843 34.2128 145.343 33.3878C144.333 31.7159 142.952 30.4406 141.681 29.0648C138.611 25.7455 135.41 22.5485 132.345 19.3882C131.682 19.3172 131.394 19.6648 131.093 19.9831C127.555 23.7357 123.993 27.4663 120.499 31.2631C119.826 31.995 119.103 32.8885 119.847 34.0708C119.994 34.3034 119.869 34.7097 119.869 35.0377C119.869 40.0144 119.869 44.9934 119.872 49.97C119.872 50.4204 119.911 50.8684 119.928 51.2576C120.45 51.5636 120.95 51.5881 121.455 51.5587C123.732 51.4265 126.008 51.7154 128.297 51.3898C129.012 51.287 129.964 51.3506 130.715 51.593C132.418 52.1438 134.061 51.473 135.729 51.5C136.13 51.5073 136.542 51.5612 136.95 51.5563C139.065 51.522 141.18 51.4951 143.294 51.4265C143.928 51.4045 144.348 51.1328 144.287 50.3348C144.189 49.0349 144.321 47.7277 144.301 46.4181C144.25 42.8711 144.36 39.3191 144.387 35.7697C144.394 34.9447 144.687 34.2691 145.246 33.6889" stroke="#C0CCD8" stroke-linecap="round" stroke-linejoin="round"/>
<path d="M129.751 12.0272C129.048 12.5291 128.199 12.3063 127.423 12.4777C119.083 14.3356 113.24 19.087 109.958 27.0697C108.46 30.7146 107.759 34.4697 108.074 38.3374C108.55 44.1634 110.57 49.3922 114.603 53.7789C117.724 57.1741 121.46 59.4874 125.852 60.7162C128.268 61.3919 130.781 61.6881 133.287 61.4531C138.969 60.9219 144.059 58.9366 148.295 54.9857C152.641 50.9319 155.322 45.9382 155.937 40.0485C156.872 31.072 154.156 23.4223 147.082 17.5228C142.068 13.3442 136.273 11.7678 129.873 12.0272" stroke="#C0CCD8" stroke-linecap="round" stroke-linejoin="round"/>
<path d="M469.359 28.4031C469.485 27.6308 469.158 27.1614 468.489 26.745C466.811 25.7002 464.889 25.3469 463.055 24.7866C461.433 24.292 457.783 26.0964 457.035 27.5198C455.883 29.7154 456.495 33.1955 459.154 34.6138C460.768 35.4744 462.517 35.8706 464.207 36.4561C465.681 36.9684 467.108 37.5312 468.35 38.4952C470.187 39.9186 470.725 41.9224 470.312 44.0372C469.867 46.3135 468.348 47.8833 466.084 48.5798C465.055 48.8953 463.827 49.3747 462.967 49.2183C461.722 48.9912 460.379 48.9028 459.161 48.3577C457.996 47.8378 456.761 47.4719 455.898 46.4473" stroke="#C0CCD8" stroke-linecap="round" stroke-linejoin="round"/>
<path d="M460.174 12C458.947 12.424 457.646 12.4946 456.393 12.8555C450.716 14.4909 446.299 17.8019 443.076 22.7281C441.021 25.8676 439.959 29.3376 439.381 33.0651C437.575 44.6689 444.135 56.7093 455.146 60.5756C462.71 63.2305 469.829 62.1276 476.384 57.6557C482.006 53.8197 484.985 48.202 486.316 41.6506C486.836 39.079 486.861 36.4014 486.532 33.8398C485.44 25.325 481.531 18.5363 473.75 14.4152C470.742 12.8227 467.492 12.0252 464.073 12.005C462.816 11.9975 461.558 12.005 460.3 12.005" stroke="#C0CCD8" stroke-linecap="round" stroke-linejoin="round"/>
<path d="M84.5632 20.1454C83.9639 18.4285 82.6418 18.0611 81.643 17.2139C77.6819 13.8588 73.5999 10.7998 69.5942 7.54958C69.1 7.14847 68.6558 7.02101 68.1354 7.02101C54.9063 7.02476 41.6747 7.02101 28.4457 7.03225C28.0093 7.03225 27.5467 6.81108 27 7.52709V82" stroke="#C0CCD8" stroke-linecap="round" stroke-linejoin="round"/>
<path d="M45.1364 55.0108C45.9302 55.0783 45.6411 54.2161 45.649 53.6987C45.6569 53.024 45.3362 52.7578 44.8736 52.7578C42.508 52.7653 40.1423 52.7653 37.7767 52.7578C37.138 52.7578 36.9803 53.2676 36.9829 54.0736C36.9935 59.8205 36.9961 65.5711 36.9829 71.3179C36.9829 72.2701 37.2432 72.6487 37.9108 72.6412C40.1897 72.615 42.4659 72.615 44.7448 72.6412C45.4124 72.6487 45.691 72.2701 45.67 71.3179C45.5806 67.1943 45.8461 63.0632 45.5202 58.9508C45.415 57.6237 45.9092 56.3229 45.5333 55.0108" stroke="#C0CCD8" stroke-linecap="round" stroke-linejoin="round"/>
<path d="M61.5642 68.8797C61.5642 64.13 61.5379 59.3841 61.58 54.6344C61.5931 53.2174 61.2357 52.6963 60.25 52.7413C58.5862 52.8163 56.9197 52.82 55.2559 52.7413C54.3412 52.6963 54.0442 53.1499 54.0547 54.4507C54.0994 59.1367 54.0705 63.8226 54.0705 68.5086" stroke="#C0CCD8" stroke-linecap="round" stroke-linejoin="round"/>
<path d="M37.5134 22.0195C36.9194 22.2182 36.9877 22.893 36.9877 23.519C36.9877 28.1412 37.0008 32.7672 36.9798 37.3894C36.9746 38.6003 37.2111 39.1289 38.1705 39.1176C40.2707 39.0914 42.3787 38.8889 44.4788 39.2526C45.3015 39.395 45.7405 38.7577 45.6537 37.5806C45.4093 34.2667 45.5512 30.9566 45.6721 27.6464C45.7273 26.1431 45.3883 24.6699 45.6353 23.1366C45.8062 22.0795 45.1806 22.012 44.6102 22.0158C42.2893 22.0308 39.9657 22.0233 37.6448 22.0233" stroke="#C0CCD8" stroke-linecap="round" stroke-linejoin="round"/>
<path d="M54.5988 22.0196C54.0048 22.2183 54.0732 22.8931 54.0732 23.5191C54.0732 28.1413 54.0863 32.7673 54.0653 37.3895C54.06 38.6004 54.2939 39.1402 55.256 39.1177C57.0065 39.0765 58.7623 38.904 60.5155 39.2452C61.2252 39.3839 61.5748 38.8403 61.5721 37.7644C61.5564 32.9547 61.5432 28.1413 61.5774 23.3317C61.5879 21.9859 61.0123 22.0196 60.3815 22.0196C58.4969 22.0196 56.6149 22.0196 54.7303 22.0196" stroke="#C0CCD8" stroke-linecap="round" stroke-linejoin="round"/>
<path d="M69.5813 52.7577C68.9663 53.0426 69.053 53.7662 69.0556 54.4447C69.0556 58.0697 69.0898 61.6948 69.0398 65.3161C69.0214 66.6207 69.3237 67.0705 70.2411 67.0255C71.9469 66.9431 73.6581 66.9618 75.3665 67.018C76.1603 67.0443 76.4416 66.6319 76.4311 65.4998C76.3969 61.751 76.3969 58.0023 76.4311 54.2535C76.4416 53.1214 76.1603 52.7128 75.3665 52.7353C73.4846 52.7915 71.6 52.754 69.7154 52.754" stroke="#C0CCD8" stroke-linecap="round" stroke-linejoin="round"/>
<path d="M69.5803 22.0195C68.9863 22.2182 69.0546 22.893 69.0546 23.519C69.0546 28.1413 69.0677 32.7672 69.0467 37.3895C69.0415 38.6003 69.2754 39.1401 70.2374 39.1176C71.8986 39.0801 73.5703 38.8927 75.2341 39.2488C75.8728 39.3875 76.3933 38.889 76.3985 37.9555C76.4327 32.7073 76.4143 27.459 76.4143 22.0233H69.7117" stroke="#C0CCD8" stroke-linecap="round" stroke-linejoin="round"/>
<path d="M572.379 109C572.151 108.711 572.087 108.377 572.11 108.018C572.117 107.9 572.11 107.78 572.11 107.661C572.08 89.0274 572.119 70.3926 571.998 51.7595C571.914 38.8701 571.989 25.9825 571.93 13.0931C571.93 12.7645 571.976 12.4287 571.816 12.068C570.89 12.0501 569.938 11.8822 568.987 12.1519C568.846 12.193 568.689 12.2055 568.543 12.1966C566.129 12.0733 563.727 12.3412 561.321 12.4127C558.438 12.4984 555.554 12.652 552.67 12.7627C550.084 12.8609 547.499 13.0092 544.911 13.1181C542.235 13.2306 539.56 13.3539 536.884 13.4753C534.179 13.5985 531.475 13.7271 528.769 13.8307C525.826 13.9432 522.881 14.0629 519.94 14.1986C517.532 14.3112 515.122 14.3933 512.714 14.5219C512.505 14.5326 512.297 14.563 512 14.5951V61.6716" stroke="#C0CCD8" stroke-linecap="round" stroke-linejoin="round"/>
<path d="M546.427 35.5946C543.543 35.5946 540.659 35.6196 537.776 35.5785C536.991 35.5678 536.77 35.7928 536.779 36.5768C536.817 40.0595 536.793 43.5421 536.797 47.0248C536.797 48.0053 536.804 48.0071 537.776 48.0071C540.808 48.0071 543.841 48.0071 546.873 48.0071C547.993 48.0071 548.032 47.9642 548.032 46.8462C548.032 43.5725 548.032 40.297 548.032 37.0233C548.032 36.0339 547.527 35.5725 546.516 35.6392" stroke="#C0CCD8" stroke-linecap="round" stroke-linejoin="round"/>
<path d="M543.752 42.2062C543.557 41.4472 543.029 41.0239 542.414 41.1346C541.824 41.24 541.322 41.8794 541.444 42.4723C541.556 43.0206 541.847 43.4403 542.503 43.4618C543.26 43.4868 543.584 43.2099 543.796 42.2955" stroke="#C0CCD8" stroke-linecap="round" stroke-linejoin="round"/>
</g>
<defs>
<clipPath id="clip0_1019_62195">
<rect width="661" height="72" fill="white"/>
</clipPath>
</defs>
</svg>
