<svg width="16" height="16" viewBox="0 0 16 16" fill="none" xmlns="http://www.w3.org/2000/svg">
<mask id="mask0_2339_17339" style="mask-type:alpha" maskUnits="userSpaceOnUse" x="0" y="0" width="16" height="16">
<rect width="16" height="16" fill="#D9D9D9"/>
</mask>
<g mask="url(#mask0_2339_17339)">
<path d="M12.6924 13.668L11.9899 12.9718L13.2066 11.7385H10.1924V10.7385H13.2066L11.9899 9.50514L12.6924 8.80897L15.1219 11.2385L12.6924 13.668ZM6.69875 9.83464C7.26119 9.83464 7.77208 9.70108 8.23141 9.43397C8.69086 9.16686 9.06075 8.81325 9.34108 8.37314C8.97353 8.08936 8.56603 7.87314 8.11858 7.72447C7.67125 7.57569 7.19841 7.5013 6.70008 7.5013C6.20175 7.5013 5.72847 7.57569 5.28025 7.72447C4.83191 7.87314 4.42403 8.08936 4.05658 8.37314C4.33691 8.81325 4.70675 9.16686 5.16608 9.43397C5.62553 9.70108 6.13641 9.83464 6.69875 9.83464ZM6.69875 6.5013C7.02275 6.5013 7.29819 6.38786 7.52508 6.16097C7.75197 5.93397 7.86541 5.65852 7.86541 5.33464C7.86541 5.01075 7.75197 4.7353 7.52508 4.5083C7.29819 4.28141 7.02275 4.16797 6.69875 4.16797C6.37486 4.16797 6.09947 4.28141 5.87258 4.5083C5.64558 4.7353 5.53208 5.01075 5.53208 5.33464C5.53208 5.65852 5.64558 5.93397 5.87258 6.16097C6.09947 6.38786 6.37486 6.5013 6.69875 6.5013ZM6.69875 14.341C5.02097 12.8872 3.76286 11.5342 2.92441 10.2821C2.08597 9.02991 1.66675 7.8803 1.66675 6.8333C1.66675 5.29486 2.16441 4.04936 3.15975 3.0968C4.15497 2.14425 5.33464 1.66797 6.69875 1.66797C8.06286 1.66797 9.24258 2.14425 10.2379 3.0968C11.2331 4.04936 11.7307 5.29486 11.7307 6.8333C11.7307 6.92919 11.7291 7.02775 11.7257 7.12897C11.7223 7.23019 11.7095 7.33208 11.6872 7.43464H10.6706C10.6928 7.33208 10.7084 7.23019 10.7174 7.12897C10.7264 7.02775 10.7309 6.92919 10.7309 6.8333C10.7309 5.61797 10.3448 4.61886 9.57258 3.83597C8.80036 3.05308 7.84241 2.66164 6.69875 2.66164C5.55519 2.66164 4.5973 3.05308 3.82508 3.83597C3.05286 4.61886 2.66675 5.61797 2.66675 6.8333C2.66675 7.6393 3.01269 8.57841 3.70458 9.65064C4.39647 10.7229 5.39453 11.8427 6.69875 13.0103C6.96719 12.7795 7.2183 12.5455 7.45208 12.3083C7.68575 12.0712 7.90903 11.8385 8.12191 11.6103L8.23658 11.7186C8.31314 11.7909 8.39497 11.8704 8.48208 11.9571C8.56919 12.0438 8.64803 12.1244 8.71858 12.1988L8.82441 12.3103C8.52141 12.638 8.19225 12.971 7.83691 13.3093C7.48158 13.6475 7.10219 13.9914 6.69875 14.341Z" fill="#07192C"/>
</g>
</svg>
