<svg width="661" height="72" viewBox="0 0 661 72" fill="none" xmlns="http://www.w3.org/2000/svg">
<g clip-path="url(#clip0_1019_62092)">
<path d="M238.435 45.2531C238.652 45.5247 238.943 45.6952 239.276 45.7158C242.166 45.8806 245.06 45.9799 247.863 45.0601C251.971 43.7113 254.728 40.9818 255.659 36.7199C256.048 34.9421 256.025 33.0687 255.835 31.201C255.491 27.8346 254.078 24.7848 253.236 21.5682C252.569 19.0223 252.076 16.4539 251.6 13.8762C251.056 10.9332 250.451 8.00135 248.974 5.35805C247.798 3.25239 246.328 1.40339 244.041 0.376792C243.727 0.23629 243.453 -0.0259786 243.199 -0.271388C240.695 -2.7105 237.647 -3.98626 234.23 -4.37966C226.936 -5.22267 220.662 -2.9428 215.381 2.08529C211.441 5.83575 208.977 10.4667 207.718 15.7514C206.805 19.5806 205.444 23.258 203.969 26.8923C202.768 29.8466 202.04 32.8739 202.31 36.0755C202.523 38.6026 203.494 40.8413 205.199 42.7222C207.132 44.8559 209.617 45.9593 212.381 46.5813C214.474 47.0515 216.556 46.9578 218.634 46.6337C219.148 46.5532 219.572 46.7311 220.039 46.7536" stroke="#C0CCD8" stroke-linecap="round" stroke-linejoin="round"/>
<path d="M422.178 146.883C422.025 145.281 422.499 143.754 422.742 142.199C423.071 140.105 423.394 138.01 423.773 135.923C424.402 132.454 425.082 128.992 425.724 125.524C426.204 122.935 426.677 120.345 427.123 117.75C427.461 115.787 427.851 113.825 428.032 111.847C428.206 109.955 428.183 108.046 428.098 106.135C428.03 104.655 427.887 103.185 427.653 101.74C427.3 99.5578 427.226 97.3454 426.779 95.1723C426.464 93.638 426.445 92.0438 426.176 90.4964C425.926 89.0595 425.717 87.6133 425.493 86.1764C425.27 84.7508 425.108 83.3045 424.876 81.8771C424.574 80.0018 424.277 78.1228 423.999 76.2476C423.749 74.5616 423.446 72.8831 423.196 71.197C422.46 66.2045 421.631 61.2383 419.291 56.6729C418.143 54.4286 416.365 52.8588 414.24 51.6205C410.93 49.689 407.339 48.4039 403.785 47.027C402.314 46.4575 400.902 45.6707 399.386 45.2904C396.956 44.6834 395.046 43.1979 393.072 41.8415C392.115 41.184 391.401 40.1537 390.626 39.2507C389.532 37.9749 389.062 37.9412 387.81 38.9641C386.862 39.7396 385.811 40.3878 384.836 41.1334C381.87 43.4002 378.916 45.6838 375.968 47.973C375.665 48.2091 375.387 48.4564 375.034 48.6325C374.448 48.9247 374.409 49.4343 374.939 49.837C377.077 51.4631 379.094 53.2465 381.273 54.822C381.941 55.3054 382.466 55.6182 383.06 54.807C383.112 54.7359 383.174 54.6403 383.247 54.6253C385.519 54.1607 386.117 52.0382 387.237 50.4815C388.822 48.2765 389.902 45.7437 391.538 43.5538C391.969 42.9768 392.488 42.5047 392.955 41.9746" stroke="#C0CCD8" stroke-linecap="round" stroke-linejoin="round"/>
<path d="M388.472 38.3216C388.19 37.9245 388.18 37.4674 388.194 37.0103C388.285 33.6701 388.377 30.328 388.475 26.9878C388.49 26.4876 388.569 25.9874 388.558 25.4891C388.545 24.9384 388.931 24.7604 389.316 24.6555C392.335 23.8349 393.982 21.733 394.828 18.8406C395.061 18.0407 395.25 17.2445 395.198 16.4033C395.114 15.0751 395.848 13.9268 396.036 12.6566C396.576 9.00546 396.705 5.41423 395.614 1.77804C394.311 -2.56814 391.992 -6.13689 388.362 -8.76521C385.818 -10.6067 382.915 -11.7026 379.798 -12.2871C377.255 -12.763 374.704 -13.0889 372.138 -12.9784C367.76 -12.7911 363.601 -11.8188 360.186 -8.79143C357.687 -6.57713 356.795 -3.8083 357.405 -0.55241C357.489 -0.108425 357.557 0.393634 357.938 0.770179C358.696 1.51765 358.628 2.48617 358.395 3.38164C357.344 7.40936 357.23 11.542 356.897 15.654C356.709 17.9976 356.638 20.3449 356.759 22.6791C356.94 26.1504 357.467 29.5581 359.142 32.7109C361.202 36.5888 364.341 38.7787 368.682 39.2583C369.681 39.3688 370.088 39.8259 369.771 40.9349C369.365 42.3531 369.956 43.4246 370.65 44.4981C371.5 45.8113 372.669 46.8379 373.817 47.8739C374.095 48.1249 374.377 48.3741 374.657 48.6232" stroke="#C0CCD8" stroke-linecap="round" stroke-linejoin="round"/>
<path d="M361.21 46.283C360.85 46.0937 360.43 46.0956 360.095 46.2061C355.883 47.5943 351.573 48.7745 347.866 51.3523C345.782 52.8004 344.404 54.8273 343.361 57.1409C341.723 60.7715 340.56 64.5744 339.189 68.3005C338.121 71.208 337.215 74.1772 336.179 77.0978C334.558 81.6669 332.887 86.2173 331.238 90.7752C330.708 92.242 330.181 93.7107 329.649 95.1776C329.511 95.5579 329.432 95.9438 329.464 96.3484" stroke="#C0CCD8" stroke-linecap="round" stroke-linejoin="round"/>
<path d="M384.46 54.4326C384.456 54.9084 384.508 55.3768 384.28 55.8414C382.06 60.3337 379.76 64.7885 377.831 69.4195C376.143 71.2441 376.081 73.7732 375.06 75.8975C373.753 78.6158 372.858 81.5476 371.411 84.1797C370.518 85.802 370.36 87.6454 369.411 89.1721C368.274 91.0005 368.41 92.9975 368.405 94.9908C368.395 97.5816 368.453 100.174 368.393 102.765C368.207 110.882 368.309 119.002 368.33 127.119C368.343 132.364 368.558 137.61 368.683 142.855C368.713 144.135 369.015 145.408 368.776 146.695" stroke="#C0CCD8" stroke-linecap="round" stroke-linejoin="round"/>
<path d="M211.918 51.436C213.625 54.4727 215.406 57.4664 217.238 60.43C218.679 62.7605 220.044 65.1359 221.353 67.545C223.488 71.4716 225.48 75.4693 227.303 79.5458C228.707 82.6874 230.035 85.8702 231.218 89.0999C232.613 92.9065 234.146 96.6551 235.629 100.426C235.749 100.728 235.82 101.05 235.913 101.361" stroke="#C0CCD8" stroke-linecap="round" stroke-linejoin="round"/>
<path d="M256.267 86.5602C257.653 86.6482 258.902 86.0806 260.183 85.6985C260.526 85.5954 260.878 85.691 261.229 85.4568C262.164 84.8311 262.573 84.1642 262.474 82.9053C262.035 77.2552 261.41 71.6427 259.613 66.2418C258.243 62.1223 256.118 58.4598 252.624 55.7491C250.52 54.1155 248.081 53.1976 245.528 52.5719C244.645 52.3564 243.797 52.0174 242.817 52.126C242.399 52.1729 241.915 51.6015 241.332 51.5116C240.388 51.3636 239.46 51.1013 238.53 50.8727C237.898 50.7173 237.46 50.3688 237.407 49.6588C237.323 48.5498 237.172 47.452 236.864 46.3767C236.771 46.0526 236.791 45.6611 237.036 45.3501" stroke="#C0CCD8" stroke-linecap="round" stroke-linejoin="round"/>
<path d="M387.634 14.9041C386.377 13.5122 385.829 11.7419 385.341 10.0221C384.602 7.41066 384.323 4.70928 384.641 1.97792C384.729 1.21921 384.148 0.683435 383.246 0.670321C380.57 0.630981 377.892 0.645966 375.217 0.563538C371.762 0.456757 368.302 0.32937 364.946 -0.646649C363.843 -0.966993 362.767 -1.36789 361.774 -1.958C361.359 -2.20341 360.99 -2.53874 360.465 -2.51626" stroke="#C0CCD8" stroke-linecap="round" stroke-linejoin="round"/>
<path d="M347.486 67.0779C347.234 68.2543 347.201 69.4308 347.275 70.6391C347.372 72.2259 347.29 73.822 347.302 75.4143C347.326 78.9737 347.292 82.5349 347.412 86.0925C347.537 89.841 347.716 93.5896 347.905 97.3363C348.02 99.6331 348.409 101.939 348.013 104.275C347.897 104.965 348.246 105.819 348.37 106.6C348.59 108.014 348.469 109.416 348.508 110.823C348.599 114.197 348.442 117.569 348.323 120.939C348.222 123.812 348.142 126.688 347.935 129.554C347.752 132.083 347.559 134.612 347.378 137.141C347.163 140.144 346.833 143.138 346.553 146.135" stroke="#C0CCD8" stroke-linecap="round" stroke-linejoin="round"/>
<path d="M219.762 22.6798C219.73 22.2433 219.687 21.8068 219.674 21.3684C219.668 21.1773 219.67 20.9619 219.48 20.9094C218.746 20.7109 218.309 20.0327 217.614 19.7761C215.96 19.1654 215.28 19.4201 214.18 21.0087C212.272 23.7626 213.368 29.6224 217.616 30.8757C218.318 31.0818 219.045 31.0087 219.779 31.02C220.613 32.631 220.679 34.4388 220.946 36.1754C221.289 38.3991 221.525 40.6509 221.441 42.9139C221.411 43.7307 221.37 44.5437 221.187 45.3549C221.078 45.8401 220.89 46.2578 220.499 46.4527C219.829 46.788 219.82 47.5767 219.228 48.0057C218.289 48.6857 217.228 49.1503 216.309 49.8453C215.286 50.6209 214.093 50.812 212.858 50.9937C211.335 51.2166 209.873 51.6962 208.459 52.3594C205.49 53.7531 202.532 55.19 200.364 57.7321C198.349 60.0963 196.958 62.8614 195.86 65.7688C194.131 70.3417 193.037 75.0701 192.406 79.9127C192.357 80.2892 192.342 80.6845 192.212 81.0329C191.523 82.8464 192.63 83.8018 193.901 84.6897C195.022 85.4709 196.183 86.1978 197.253 87.0427C199.556 88.858 201.356 91.0985 202.571 93.7811C202.775 94.2326 202.932 94.5904 203.518 94.5399C203.705 94.523 203.862 94.6841 203.998 94.892C204.904 96.2596 205.99 97.5073 206.532 99.1071C206.627 99.3881 206.816 99.7347 207.238 99.9014C207.587 100.038 207.852 100.462 208.086 100.806C210.625 104.56 213.271 108.238 216.13 111.754C216.978 112.798 217.908 113.777 218.834 114.755C220.606 116.623 222.882 117.365 225.366 117.455C227.169 117.52 228.973 117.429 230.785 117.241C232.833 117.028 234.883 116.771 236.941 116.619C239.161 116.456 241.368 116.136 243.577 115.842C245.874 115.536 248.164 115.121 250.481 114.954C251.413 114.886 252.333 114.452 253.282 114.855C254.173 114.04 255.338 114.281 256.369 114.146C258.165 113.908 259.965 113.669 261.774 113.496C263.237 113.358 264.699 113.067 266.168 112.891C268.127 112.657 270.09 112.445 272.05 112.234C273.014 112.129 273.979 111.981 274.945 111.966C276.496 111.943 278.072 111.902 279.426 112.888" stroke="#C0CCD8" stroke-linecap="round" stroke-linejoin="round"/>
<path d="M215.467 50.6865C217.984 55.7165 222.204 58.6483 227.429 60.2013C229.152 60.7127 230.997 60.8308 232.833 60.8214C234.612 60.812 236.341 60.6996 238.069 60.1713C240.86 59.3171 242.242 57.3969 242.629 54.6206C242.737 53.8469 242.759 53.0601 242.823 52.2808" stroke="#C0CCD8" stroke-linecap="round" stroke-linejoin="round"/>
<path d="M240.536 2.72656C240.68 3.53585 241.326 3.91427 241.867 4.43694C243.118 5.64151 244.209 7.02217 245.045 8.54521C246.506 11.1979 247.432 14.0323 247.891 17.054C248.535 21.2878 248.743 25.5366 248.58 29.7966C248.472 32.6403 248.158 35.5215 246.9 38.1199C245.649 40.7051 243.581 42.5579 240.956 43.7568C240.032 44.1783 238.956 44.2664 238.217 45.1319C238.017 45.366 237.281 45.3192 237.057 45.2049C235.686 44.508 234.125 44.7104 232.731 44.1465C231.429 43.6201 230.163 43.0618 228.994 42.2694C228.587 41.994 228.24 41.7617 228.256 41.224" stroke="#C0CCD8" stroke-linecap="round" stroke-linejoin="round"/>
<path d="M366.906 54.6196C366.261 55.4739 366.534 56.4986 366.474 57.4315C366.377 58.9527 366.422 60.4964 366.553 62.0175C366.721 63.992 367.094 65.9478 367.255 67.9223C367.339 68.9602 367.27 69.9643 368.151 70.7474C368.42 70.9853 368.132 71.4255 368.097 71.7571C367.886 73.7522 368.579 75.6293 368.799 77.5645C369.029 79.5765 369.46 81.5641 369.8 83.563C369.916 84.243 369.987 84.938 370.549 85.4363" stroke="#C0CCD8" stroke-linecap="round" stroke-linejoin="round"/>
<path d="M389.501 59.21C389.535 59.6521 389.869 59.9031 390.16 60.1391C391.492 61.2088 392.845 62.2504 394.164 63.277C394.24 64.0919 393.667 64.5528 393.32 65.1054C391.848 67.4509 390.009 69.5153 388.28 71.6622C385.443 75.1803 382.592 78.6891 379.688 82.1511C376.925 85.4463 374.174 88.7528 371.554 92.1661C371.422 92.3384 371.196 92.6719 370.826 92.5557" stroke="#C0CCD8" stroke-linecap="round" stroke-linejoin="round"/>
<path d="M356.729 62.582C357.35 64.6109 357.912 66.6622 358.609 68.6667C359.879 72.3197 361.326 75.9053 362.883 79.446C364.149 82.3235 365.468 85.1747 366.924 87.9567C367.374 88.8146 367.699 89.8225 368.677 90.3096" stroke="#C0CCD8" stroke-linecap="round" stroke-linejoin="round"/>
<path d="M240.957 4.13306C239.639 5.66734 238.524 7.3571 237.25 8.9326C233.953 13.0146 229.845 15.7591 224.808 17.1623C223.257 17.595 221.656 17.9715 220.592 19.3915C220.226 19.8805 220.112 20.5324 219.578 20.8996" stroke="#C0CCD8" stroke-linecap="round" stroke-linejoin="round"/>
<path d="M397.715 44.9727C397.653 46.1903 397.583 47.408 397.53 48.6257C397.431 50.9056 397.334 53.1836 397.256 55.4635C397.239 55.9355 396.987 56.1397 396.598 56.3121C394.92 57.0577 393.196 57.6853 391.458 58.2623C390.789 58.4833 390.089 58.6369 389.514 59.0416C389.245 59.2326 389.008 59.1671 388.754 59.2083" stroke="#C0CCD8" stroke-linecap="round" stroke-linejoin="round"/>
<path d="M254.309 68.3884C254.071 69.179 254.436 69.9246 254.628 70.6252C255.128 72.4499 255.423 74.3007 255.722 76.161C256.239 79.37 256.026 82.5885 256.032 85.8106C256.034 87.1857 255.423 88.394 255.401 89.7447C255.384 90.8088 255.121 91.8691 254.96 92.9294C254.727 94.4937 254.562 96.0654 254.234 97.6165C254.002 98.7181 253.965 99.8608 253.84 100.985" stroke="#C0CCD8" stroke-linecap="round" stroke-linejoin="round"/>
<path d="M371.294 52.4653C371.636 52.8756 371.671 53.357 371.675 53.8703C371.683 54.9681 371.52 56.0884 371.957 57.145C372.041 57.3492 371.886 57.3998 371.854 57.5253C370.919 61.3956 369.982 65.2679 369.055 69.1401C368.927 69.6796 368.768 70.191 368.305 70.5451" stroke="#C0CCD8" stroke-linecap="round" stroke-linejoin="round"/>
<path d="M377.737 52.3711C376.91 53.1617 376.929 54.3081 376.531 55.2785C376.213 56.056 376.105 56.9196 375.629 57.6727C375.931 58.0961 375.976 58.6375 375.969 59.2088C375.916 62.5865 376.019 65.9586 376.324 69.3268C376.363 69.754 376.477 70.1118 376.71 70.449" stroke="#C0CCD8" stroke-linecap="round" stroke-linejoin="round"/>
<path d="M382.407 36.0732C382.025 36.017 381.703 36.1331 381.377 36.3467C378.232 38.4074 374.744 39.3309 371.017 39.4415C370.617 39.4527 370.214 39.4096 369.896 39.7262" stroke="#C0CCD8" stroke-linecap="round" stroke-linejoin="round"/>
<path d="M369.427 42.1619C368.036 42.0158 366.627 42.7557 366.378 43.9491C366.21 44.7565 366.281 45.6351 366.359 46.4706C366.503 47.9993 366.599 49.5279 366.623 51.0622C366.638 51.9708 366.63 52.8756 366.798 53.7804C366.953 54.6178 367.211 54.8033 368.029 54.6403C368.414 54.5635 368.753 54.3387 368.933 54.1289C369.831 53.0742 371.158 52.5328 371.976 51.3619C372.574 50.5058 373.431 49.8258 374.469 49.468" stroke="#C0CCD8" stroke-linecap="round" stroke-linejoin="round"/>
<path d="M242.263 34.4819C240.59 36.5614 236.522 36.5033 234.522 35.0327C234.077 34.7049 233.715 34.4033 233.207 34.8566" stroke="#C0CCD8" stroke-linecap="round" stroke-linejoin="round"/>
<path d="M373.257 28.8608C372.164 29.657 370.999 30.249 369.616 30.3689C368.013 30.5075 366.426 30.6312 364.947 29.7975" stroke="#C0CCD8" stroke-linecap="round" stroke-linejoin="round"/>
<path d="M395.198 14.6243C394.714 14.3601 394.399 13.9292 394.076 13.5021C393.084 12.1945 391.348 11.8105 389.893 12.7771C388.543 13.6745 387.282 14.7554 387.542 16.6849" stroke="#C0CCD8" stroke-linecap="round" stroke-linejoin="round"/>
<path d="M366.16 44.0361C364.306 44.1616 362.814 45.0927 361.398 46.1905C361.144 47.4681 360.207 48.3711 359.624 49.4689C358.782 51.0593 357.944 52.6536 357.104 54.2459" stroke="#C0CCD8" stroke-linecap="round" stroke-linejoin="round"/>
<path d="M356.638 54.1985C358.401 55.285 360.018 56.5777 361.663 57.8272C361.941 58.0389 361.779 58.3948 361.411 58.6646C360.115 59.6162 358.705 60.4012 357.446 61.4203C357.056 61.7369 357.092 62.4281 356.449 62.4413" stroke="#C0CCD8" stroke-linecap="round" stroke-linejoin="round"/>
<path d="M360.184 -3.73511C360.431 -1.77745 359.464 -0.196335 358.594 1.41475C358.586 1.42787 358.534 1.41475 358.504 1.41475" stroke="#C0CCD8" stroke-linecap="round" stroke-linejoin="round"/>
<path d="M372.137 57.2424C373.257 57.3679 374.377 57.4916 375.498 57.6171" stroke="#C0CCD8" stroke-linecap="round" stroke-linejoin="round"/>
<path d="M263 45.7724C263.891 44.9575 265.056 45.1992 266.087 45.0643C267.883 44.8264 269.683 44.5866 271.493 44.4142C272.955 44.2756 274.417 43.9852 275.886 43.8091C277.845 43.575 279.808 43.3633 281.768 43.1516C282.732 43.0467 283.697 42.8987 284.663 42.8837C286.214 42.8612 287.79 42.82 289.144 43.8054" stroke="#C0CCD8" stroke-linecap="round" stroke-linejoin="round"/>
<path d="M345.908 46.0848C343.753 46.2889 341.596 46.5643 339.458 46.9596C337.77 47.2725 336.037 47.3437 334.329 47.5516C332.148 47.8157 329.972 48.1248 327.791 48.3852C326.583 48.5295 325.364 48.7412 324.157 48.4583C323.898 48.3983 323.689 48.462 323.502 48.5032C322.135 48.8124 321.543 48.4058 321.455 46.984C321.435 46.6449 321.209 46.2983 321.444 45.9536" stroke="#C0CCD8" stroke-linecap="round" stroke-linejoin="round"/>
<path d="M303.051 27.9699C301.775 26.8141 300.33 27.3199 298.946 27.6121C297.294 27.9606 295.811 28.7717 294.476 29.7702C293.008 30.8661 291.468 31.3794 289.61 31.4956C287.02 31.6567 284.432 31.4375 281.859 31.6492C278.964 31.8871 276.066 31.7297 273.174 31.8927" stroke="#C0CCD8" stroke-linecap="round" stroke-linejoin="round"/>
<path d="M323.964 48.2951C324.101 47.5832 324.442 46.9257 324.19 46.1276C324.075 45.7623 324.485 45.3165 324.562 44.835C324.78 43.4319 325.01 42.0119 324.956 40.6162C324.825 37.1786 324.637 33.7204 322.299 30.8616C322.045 30.5507 321.839 30.3502 321.444 30.4064C319.044 30.7492 316.908 30.043 314.798 28.9377C313.356 28.1828 311.797 27.6076 310.23 27.158C308.593 26.6878 306.989 27.3884 305.387 27.7013C305.269 27.7238 305.189 27.8811 305.011 27.883C302.83 27.9017 301.118 29.17 299.336 30.161C298.274 30.753 297.576 31.789 297.133 33.0141C296.825 33.8646 296.224 34.6271 295.66 35.3577C295.206 35.9478 294.989 36.6297 295.247 37.2273C295.587 38.0197 296.352 38.327 297.262 38.3869C299.295 38.5199 300.896 37.9092 302.042 36.1314C302.64 35.206 304.744 35.0748 305.668 35.7399C307.627 37.1468 309.747 38.2783 311.928 39.2899C312.51 39.5596 313.065 39.8238 313.311 40.4326C313.636 41.2344 314.157 41.862 314.815 42.3959C316.202 43.5218 317.311 44.9025 318.357 46.3337C318.839 46.9931 319.02 47.823 318.883 48.5705C318.728 49.4135 317.151 49.6964 316.308 49.14C314.822 48.1583 313.653 46.802 312.286 45.6818C311.517 45.0523 310.856 44.2224 309.773 44.08" stroke="#C0CCD8" stroke-linecap="round" stroke-linejoin="round"/>
<path d="M340.304 27.5013C339.278 27.0854 338.307 27.6287 337.32 27.7205C334.231 28.009 331.15 28.4024 328.075 28.8258C326.362 29.0618 324.637 29.2098 322.932 29.532C322.336 29.6444 322.105 29.8898 322.004 30.405" stroke="#C0CCD8" stroke-linecap="round" stroke-linejoin="round"/>
<path d="M312.108 51.1989C311.102 52.7538 309.285 53.3758 307.839 52.4672C307.302 52.13 306.822 51.568 306.323 51.1015C305.517 50.3484 304.566 49.7639 303.883 48.8647C303.212 47.9786 301.687 48.2634 301.005 48.8685C300.066 49.7021 299.099 50.532 298.322 51.508C297.806 52.1562 297.129 52.3079 296.511 52.3773C295.202 52.5253 294.854 51.759 294.923 50.8261C294.953 50.4121 294.977 49.9887 294.742 49.6084" stroke="#C0CCD8" stroke-linecap="round" stroke-linejoin="round"/>
<path d="M298.008 52.0412C298.133 52.4009 298.204 52.7906 298.391 53.1128C298.943 54.0701 299.494 54.0514 300.245 53.7216C301.727 53.0735 302.883 52.0263 303.681 50.625C303.854 50.3215 304.024 50.0405 304.261 49.7932" stroke="#C0CCD8" stroke-linecap="round" stroke-linejoin="round"/>
<path d="M302.771 52.1345C303.363 52.6029 303.675 53.3578 304.361 53.7231C305.666 54.4182 306.9 54.2046 307.72 52.6029" stroke="#C0CCD8" stroke-linecap="round" stroke-linejoin="round"/>
<path d="M293.341 45.5782C292.987 45.3065 293.134 44.8738 293.089 44.5441C292.931 43.3358 292.636 42.9892 291.474 42.9555C289.372 42.8974 287.654 45.0742 287.939 46.9813C288.117 48.154 289.2 48.5231 290.255 48.0023C291.177 47.5452 292.004 46.9813 292.722 46.1702C293.526 45.2578 294.725 44.9825 295.956 45.0124C296.333 45.0218 296.57 45.2297 296.796 45.4845C297.104 45.8311 297.418 46.172 297.73 46.5149" stroke="#C0CCD8" stroke-linecap="round" stroke-linejoin="round"/>
<path d="M301.369 48.4827C301.095 47.7877 301.528 46.9578 300.829 46.3059C300.308 45.8188 299.829 45.7832 299.222 45.95C297.683 46.3752 296.632 47.4805 295.59 48.5839C295.048 49.1572 294.464 49.6236 293.717 49.8915C292.664 50.2699 291.676 49.6292 291.562 48.4827C291.534 48.198 291.442 47.9207 291.381 47.6397" stroke="#C0CCD8" stroke-linecap="round" stroke-linejoin="round"/>
<path d="M316.498 49.4185C315.707 51.7414 313.193 51.8351 311.548 50.6399C310.073 49.5683 308.783 48.302 307.582 46.9363" stroke="#C0CCD8" stroke-linecap="round" stroke-linejoin="round"/>
<path d="M318.641 46.3269C319.317 45.8585 320.183 45.3209 320.857 45.5532C321.927 45.9222 323.025 45.7031 324.056 46.0459" stroke="#C0CCD8" stroke-linecap="round" stroke-linejoin="round"/>
<path d="M316.028 40.8015C314.962 40.5355 313.907 40.3313 312.845 40.8783C312.622 40.9926 312.294 40.8952 312.014 40.8952" stroke="#C0CCD8" stroke-linecap="round" stroke-linejoin="round"/>
<path d="M305.384 34.1511C305.377 34.5052 305.442 34.8705 305.197 35.1815" stroke="#C0CCD8" stroke-linecap="round" stroke-linejoin="round"/>
<line x1="463.5" y1="20" x2="463.5" y2="56" stroke="#C0CCD8"/>
<path d="M594.258 81.285C596.284 78.8929 597.955 76.4038 600.242 74.0792C608.316 65.8712 620.714 61.2163 636.037 58.9622C639.885 58.3951 643.947 58.3392 647.494 59.3002C653.988 61.0634 656.639 63.7083 653.973 68.3398C649.52 76.0717 640.585 81.5231 628.033 84.9644C627.663 85.0643 627.362 85.2524 627.027 85.3993" stroke="#C0CCD8" stroke-linecap="round" stroke-linejoin="round"/>
<path d="M613.269 32.9426C616.716 30.8032 618.572 28.1612 620.298 25.4546C622.599 21.8517 624.8 18.1959 629.768 15.454C630.864 14.8487 632.08 14.3902 633.525 14.1316C635.477 13.7878 636.137 14.0963 636.297 15.31C636.522 17.0645 635.642 18.7073 634.216 20.1384C630.834 23.5298 626.351 26.3715 620.488 28.3552C620.038 28.508 619.307 29.0458 618.517 28.5345" stroke="#C0CCD8" stroke-linecap="round" stroke-linejoin="round"/>
<path d="M601.764 47.0486C600.848 48.9088 599.803 50.7544 599.042 52.6352C598.002 55.2125 597.081 57.8133 596.286 60.4199C595.495 63.0031 594.85 65.6039 594.294 68.2076C594.054 69.3244 593.944 70.4734 593.864 71.5872C593.654 74.4731 592.648 77.3736 593.344 80.2477C593.789 82.0845 592.658 83.8918 593.509 85.6903" stroke="#C0CCD8" stroke-linecap="round" stroke-linejoin="round"/>
<path d="M601.761 46.9018C599.14 46.2846 597.639 44.8975 596.363 43.6339C593.721 41.0184 591.835 38.1795 592.231 34.9998C592.371 33.8625 592.731 32.8545 594.497 32.1433C598.674 33.4775 599.955 35.8902 601.226 38.2412C602.722 41.0184 602.321 43.8983 602.016 46.7578" stroke="#C0CCD8" stroke-linecap="round" stroke-linejoin="round"/>
<path d="M609.767 39.5549C613.909 36.9982 619.107 35.4877 624.796 34.606C626.747 34.3033 628.948 34.5032 631.024 34.5855C631.88 34.6178 632.305 35.1791 632.9 35.5905C630.864 38.1619 626.867 39.167 622.75 39.7988C617.802 40.56 612.734 40.1779 607.761 39.5549" stroke="#C0CCD8" stroke-linecap="round" stroke-linejoin="round"/>
<path d="M599.512 54.3955C602.834 51.0424 608.092 49.1205 614.055 47.8362C615.671 47.4895 617.702 47.7158 619.523 47.8039C621.119 47.8803 621.695 48.7296 620.764 49.5437C618.258 51.733 614.611 53.0437 610.513 53.9459C606.736 54.7776 602.824 55.2243 598.761 55.1302" stroke="#C0CCD8" stroke-linecap="round" stroke-linejoin="round"/>
<path d="M611.519 34.7058C609.262 33.9036 608.827 32.4518 608.057 31.1705C606.306 28.267 605.6 25.2842 606.736 22.2102C606.951 21.6254 607.191 21.0024 608.047 20.782C609.057 20.5205 609.883 21.0406 610.508 21.4844C613.595 23.6649 614.76 26.1658 614.025 28.9753C613.665 30.3447 613.59 31.7583 612.949 33.0778C612.354 34.3062 611.389 35.514 610.228 36.6013C607.121 39.5107 604.9 42.6434 603.004 45.8702C602.909 46.0318 602.679 46.167 602.513 46.3139" stroke="#C0CCD8" stroke-linecap="round" stroke-linejoin="round"/>
<path d="M635.281 67.7668C624.815 70.5175 615.69 74.382 607.785 79.2398C604.834 81.053 602.197 83.0366 599.741 85.0967C599.486 85.3083 599.561 85.4934 599.511 85.6933" stroke="#C0CCD8" stroke-linecap="round" stroke-linejoin="round"/>
<path d="M136.217 51.1925C136.195 47.6014 136.246 44.0128 136.127 40.4217C136.095 39.4572 135.71 38.9774 134.875 38.9774C133.072 38.9774 131.298 38.7008 129.507 38.5784C128.556 38.5123 128.407 39.0337 128.402 39.8121C128.377 43.6064 128.329 47.4007 128.287 51.1949" stroke="#C0CCD8" stroke-linecap="round" stroke-linejoin="round"/>
<path d="M148.296 35.1597C146.825 35.402 145.844 34.2123 145.344 33.3874C144.333 31.7154 142.952 30.4401 141.681 29.0643C138.612 25.745 135.41 22.548 132.346 19.3877C131.682 19.3168 131.394 19.6644 131.094 19.9826C127.556 23.7352 123.994 27.4659 120.499 31.2626C119.826 31.9945 119.104 32.888 119.848 34.0703C119.994 34.3029 119.87 34.7092 119.87 35.0373C119.87 40.0139 119.87 44.9929 119.872 49.9695C119.872 50.4199 119.911 50.8679 119.928 51.2571C120.451 51.5631 120.951 51.5876 121.456 51.5582C123.732 51.426 126.009 51.7149 128.298 51.3893C129.013 51.2865 129.964 51.3502 130.716 51.5925C132.419 52.1433 134.061 51.4725 135.73 51.4995C136.13 51.5068 136.543 51.5607 136.95 51.5558C139.065 51.5215 141.181 51.4946 143.294 51.426C143.928 51.404 144.348 51.1323 144.287 50.3343C144.19 49.0344 144.321 47.7272 144.302 46.4176C144.251 42.8706 144.36 39.3187 144.387 35.7692C144.394 34.9442 144.687 34.2686 145.246 33.6885" stroke="#C0CCD8" stroke-linecap="round" stroke-linejoin="round"/>
<path d="M129.751 12.0268C129.048 12.5286 128.199 12.3058 127.423 12.4772C119.083 14.3351 113.24 19.0865 109.958 27.0692C108.46 30.7141 107.759 34.4692 108.074 38.3369C108.55 44.163 110.57 49.3917 114.603 53.7784C117.724 57.1736 121.46 59.4869 125.852 60.7158C128.268 61.3914 130.781 61.6876 133.287 61.4526C138.969 60.9214 144.059 58.9361 148.295 54.9852C152.641 50.9314 155.322 45.9377 155.937 40.048C156.872 31.0715 154.156 23.4218 147.082 17.5223C142.068 13.3437 136.273 11.7673 129.873 12.0268" stroke="#C0CCD8" stroke-linecap="round" stroke-linejoin="round"/>
<path d="M469.359 28.4023C469.485 27.6301 469.158 27.1607 468.489 26.7443C466.811 25.6995 464.889 25.3462 463.055 24.7859C461.433 24.2913 457.783 26.0957 457.035 27.519C455.883 29.7146 456.495 33.1948 459.154 34.6131C460.768 35.4736 462.517 35.8699 464.207 36.4554C465.681 36.9677 467.108 37.5304 468.35 38.4945C470.187 39.9178 470.725 41.9216 470.312 44.0365C469.867 46.3128 468.348 47.8825 466.084 48.5791C465.055 48.8945 463.827 49.374 462.967 49.2175C461.722 48.9904 460.379 48.9021 459.161 48.357C457.996 47.8371 456.761 47.4712 455.898 46.4466" stroke="#C0CCD8" stroke-linecap="round" stroke-linejoin="round"/>
<path d="M460.175 12C458.947 12.424 457.647 12.4946 456.394 12.8555C450.716 14.4909 446.299 17.8019 443.077 22.7281C441.022 25.8676 439.96 29.3376 439.382 33.0651C437.575 44.6689 444.136 56.7093 455.146 60.5756C462.71 63.2305 469.829 62.1276 476.385 57.6557C482.007 53.8197 484.985 48.202 486.316 41.6506C486.837 39.079 486.862 36.4014 486.532 33.8398C485.441 25.325 481.532 18.5363 473.751 14.4152C470.743 12.8227 467.492 12.0252 464.074 12.005C462.816 11.9975 461.558 12.005 460.301 12.005" stroke="#C0CCD8" stroke-linecap="round" stroke-linejoin="round"/>
<path d="M84.5632 20.1454C83.9639 18.4285 82.6418 18.0611 81.643 17.2139C77.6819 13.8588 73.5999 10.7998 69.5942 7.54958C69.1 7.14847 68.6558 7.02101 68.1354 7.02101C54.9063 7.02476 41.6747 7.02101 28.4457 7.03225C28.0093 7.03225 27.5467 6.81108 27 7.52709V82" stroke="#C0CCD8" stroke-linecap="round" stroke-linejoin="round"/>
<path d="M45.1359 55.0089C45.9297 55.0763 45.6406 54.2141 45.6485 53.6968C45.6564 53.022 45.3357 52.7559 44.8731 52.7559C42.5075 52.7634 40.1419 52.7634 37.7762 52.7559C37.1375 52.7559 36.9798 53.2657 36.9825 54.0717C36.993 59.8185 36.9956 65.5691 36.9825 71.316C36.9825 72.2682 37.2427 72.6468 37.9103 72.6393C40.1892 72.613 42.4654 72.613 44.7443 72.6393C45.4119 72.6468 45.6905 72.2682 45.6695 71.316C45.5801 67.1923 45.8456 63.0612 45.5197 58.9488C45.4145 57.6217 45.9087 56.3209 45.5328 55.0089" stroke="#C0CCD8" stroke-linecap="round" stroke-linejoin="round"/>
<path d="M61.5645 68.8792C61.5645 64.1295 61.5382 59.3836 61.5802 54.6339C61.5934 53.2169 61.2359 52.6958 60.2502 52.7408C58.5864 52.8158 56.92 52.8195 55.2562 52.7408C54.3415 52.6958 54.0444 53.1494 54.055 54.4502C54.0996 59.1362 54.0707 63.8221 54.0707 68.5081" stroke="#C0CCD8" stroke-linecap="round" stroke-linejoin="round"/>
<path d="M37.5141 22.0198C36.9201 22.2184 36.9884 22.8932 36.9884 23.5193C36.9884 28.1415 37.0016 32.7675 36.9806 37.3897C36.9753 38.6005 37.2119 39.1291 38.1712 39.1179C40.2714 39.0916 42.3794 38.8892 44.4795 39.2528C45.3023 39.3953 45.7412 38.758 45.6545 37.5809C45.41 34.267 45.552 30.9568 45.6729 27.6466C45.7281 26.1434 45.389 24.6701 45.6361 23.1369C45.8069 22.0797 45.1813 22.0123 44.611 22.016C42.29 22.031 39.9665 22.0235 37.6456 22.0235" stroke="#C0CCD8" stroke-linecap="round" stroke-linejoin="round"/>
<path d="M54.5981 22.0199C54.0041 22.2185 54.0724 22.8933 54.0724 23.5194C54.0724 28.1416 54.0856 32.7676 54.0645 37.3898C54.0593 38.6006 54.2932 39.1404 55.2552 39.118C57.0058 39.0767 58.7616 38.9043 60.5148 39.2454C61.2245 39.3841 61.574 38.8405 61.5714 37.7647C61.5556 32.955 61.5425 28.1416 61.5767 23.3319C61.5872 21.9861 61.0116 22.0199 60.3807 22.0199C58.4961 22.0199 56.6141 22.0199 54.7295 22.0199" stroke="#C0CCD8" stroke-linecap="round" stroke-linejoin="round"/>
<path d="M69.5813 52.7597C68.9663 53.0446 69.053 53.7681 69.0556 54.4466C69.0556 58.0717 69.0898 61.6967 69.0398 65.318C69.0214 66.6226 69.3237 67.0725 70.2411 67.0275C71.9469 66.945 73.6581 66.9638 75.3665 67.02C76.1603 67.0462 76.4416 66.6339 76.4311 65.5017C76.3969 61.753 76.3969 58.0042 76.4311 54.2555C76.4416 53.1233 76.1603 52.7147 75.3665 52.7372C73.4846 52.7934 71.6 52.756 69.7154 52.756" stroke="#C0CCD8" stroke-linecap="round" stroke-linejoin="round"/>
<path d="M69.5805 22.0198C68.9865 22.2185 69.0548 22.8932 69.0548 23.5193C69.0548 28.1415 69.068 32.7675 69.047 37.3897C69.0417 38.6005 69.2756 39.1404 70.2377 39.1179C71.8988 39.0804 73.5705 38.893 75.2343 39.2491C75.8731 39.3878 76.3935 38.8892 76.3988 37.9558C76.4329 32.7075 76.4145 27.4592 76.4145 22.0235H69.712" stroke="#C0CCD8" stroke-linecap="round" stroke-linejoin="round"/>
<path d="M572.379 109C572.151 108.711 572.086 108.377 572.11 108.018C572.117 107.9 572.11 107.78 572.11 107.661C572.079 89.0274 572.119 70.3926 571.997 51.7595C571.913 38.8701 571.988 25.9825 571.929 13.0931C571.929 12.7645 571.976 12.4287 571.815 12.068C570.89 12.0501 569.937 11.8822 568.986 12.1519C568.846 12.193 568.689 12.2055 568.542 12.1966C566.129 12.0733 563.726 12.3412 561.32 12.4127C558.438 12.4984 555.554 12.652 552.669 12.7627C550.083 12.8609 547.499 13.0092 544.91 13.1181C542.235 13.2306 539.559 13.3539 536.884 13.4753C534.178 13.5985 531.474 13.7271 528.768 13.8307C525.825 13.9432 522.88 14.0629 519.939 14.1986C517.531 14.3112 515.121 14.3933 512.713 14.5219C512.505 14.5326 512.296 14.563 512 14.5951V61.6716" stroke="#C0CCD8" stroke-linecap="round" stroke-linejoin="round"/>
<path d="M546.427 35.5963C543.543 35.5963 540.659 35.6213 537.777 35.5802C536.992 35.5695 536.771 35.7945 536.78 36.5786C536.817 40.0612 536.794 43.5439 536.797 47.0265C536.797 48.007 536.805 48.0088 537.777 48.0088C540.809 48.0088 543.841 48.0088 546.873 48.0088C547.993 48.0088 548.033 47.9659 548.033 46.8479C548.033 43.5742 548.033 40.2987 548.033 37.025C548.033 36.0356 547.527 35.5742 546.517 35.6409" stroke="#C0CCD8" stroke-linecap="round" stroke-linejoin="round"/>
<path d="M543.752 42.2045C543.558 41.4455 543.03 41.0222 542.414 41.1329C541.824 41.2383 541.323 41.8777 541.444 42.4706C541.556 43.0189 541.847 43.4386 542.504 43.4601C543.26 43.4851 543.584 43.2082 543.797 42.2938" stroke="#C0CCD8" stroke-linecap="round" stroke-linejoin="round"/>
</g>
<defs>
<clipPath id="clip0_1019_62092">
<rect width="661" height="72" fill="white"/>
</clipPath>
</defs>
</svg>
