<svg width="65" height="32" viewBox="0 0 65 32" fill="none" xmlns="http://www.w3.org/2000/svg">
<rect y="8.49219" width="4.875" height="23.5102" rx="2.4375" fill="url(#paint0_linear_4002_48858)"/>
<rect x="30.0625" y="6.53125" width="4.875" height="25.4694" rx="2.4375" fill="url(#paint1_linear_4002_48858)"/>
<rect x="10.1562" y="2.60938" width="4.875" height="29.3878" rx="2.4375" fill="url(#paint2_linear_4002_48858)"/>
<rect x="39.8125" width="5.28125" height="32" rx="2.64062" fill="url(#paint3_linear_4002_48858)"/>
<rect x="19.9062" y="13.7109" width="5.28125" height="18.2857" rx="2.64062" fill="url(#paint4_linear_4002_48858)"/>
<rect x="49.9688" y="18.9375" width="4.875" height="13.0612" rx="2.4375" fill="url(#paint5_linear_4002_48858)"/>
<rect x="60.125" y="8.49219" width="4.875" height="23.5102" rx="2.4375" fill="url(#paint6_linear_4002_48858)"/>
<defs>
<linearGradient id="paint0_linear_4002_48858" x1="2.4375" y1="8.49219" x2="2.4375" y2="32.0024" gradientUnits="userSpaceOnUse">
<stop stop-color="#1EBE6E"/>
<stop offset="1" stop-color="#1EBE6E" stop-opacity="0"/>
</linearGradient>
<linearGradient id="paint1_linear_4002_48858" x1="32.5" y1="6.53125" x2="32.5" y2="32.0006" gradientUnits="userSpaceOnUse">
<stop stop-color="#1EBE6E"/>
<stop offset="1" stop-color="#1EBE6E" stop-opacity="0"/>
</linearGradient>
<linearGradient id="paint2_linear_4002_48858" x1="12.5938" y1="2.60937" x2="12.5938" y2="31.9971" gradientUnits="userSpaceOnUse">
<stop stop-color="#1EBE6E"/>
<stop offset="1" stop-color="#1EBE6E" stop-opacity="0"/>
</linearGradient>
<linearGradient id="paint3_linear_4002_48858" x1="42.4531" y1="0" x2="42.4531" y2="32" gradientUnits="userSpaceOnUse">
<stop stop-color="#1EBE6E"/>
<stop offset="1" stop-color="#1EBE6E" stop-opacity="0"/>
</linearGradient>
<linearGradient id="paint4_linear_4002_48858" x1="22.5469" y1="13.7109" x2="22.5469" y2="31.9967" gradientUnits="userSpaceOnUse">
<stop stop-color="#1EBE6E"/>
<stop offset="1" stop-color="#1EBE6E" stop-opacity="0"/>
</linearGradient>
<linearGradient id="paint5_linear_4002_48858" x1="52.4062" y1="18.9375" x2="52.4062" y2="31.9987" gradientUnits="userSpaceOnUse">
<stop stop-color="#1EBE6E"/>
<stop offset="1" stop-color="#1EBE6E" stop-opacity="0"/>
</linearGradient>
<linearGradient id="paint6_linear_4002_48858" x1="62.5625" y1="8.49219" x2="62.5625" y2="32.0024" gradientUnits="userSpaceOnUse">
<stop stop-color="#1EBE6E"/>
<stop offset="1" stop-color="#1EBE6E" stop-opacity="0"/>
</linearGradient>
</defs>
</svg>
