<svg width="65" height="32" viewBox="0 0 65 32" fill="none" xmlns="http://www.w3.org/2000/svg">
<rect y="8.49219" width="4.94668" height="23.5102" rx="2.47334" fill="url(#paint0_linear_4002_43661)"/>
<rect x="9.87158" width="5.3589" height="32" rx="2.67945" fill="url(#paint1_linear_4002_43661)"/>
<rect x="20.1553" y="2.60938" width="4.94668" height="29.3878" rx="2.47334" fill="url(#paint2_linear_4002_43661)"/>
<rect x="30.0266" y="6.53125" width="4.94668" height="25.4694" rx="2.47334" fill="url(#paint3_linear_4002_43661)"/>
<rect x="39.8982" y="8.49219" width="4.94668" height="23.5102" rx="2.47334" fill="url(#paint4_linear_4002_43661)"/>
<rect x="49.7695" y="13.7109" width="5.3589" height="18.2857" rx="2.67945" fill="url(#paint5_linear_4002_43661)"/>
<rect x="60.0532" y="18.9375" width="4.94668" height="13.0612" rx="2.47334" fill="url(#paint6_linear_4002_43661)"/>
<defs>
<linearGradient id="paint0_linear_4002_43661" x1="2.47334" y1="8.49219" x2="2.47334" y2="32.0024" gradientUnits="userSpaceOnUse">
<stop stop-color="#E35B4F"/>
<stop offset="1" stop-color="#E35B4F" stop-opacity="0"/>
</linearGradient>
<linearGradient id="paint1_linear_4002_43661" x1="12.551" y1="0" x2="12.551" y2="32" gradientUnits="userSpaceOnUse">
<stop stop-color="#E35B4F"/>
<stop offset="1" stop-color="#E35B4F" stop-opacity="0"/>
</linearGradient>
<linearGradient id="paint2_linear_4002_43661" x1="22.6286" y1="2.60937" x2="22.6286" y2="31.9971" gradientUnits="userSpaceOnUse">
<stop stop-color="#E35B4F"/>
<stop offset="1" stop-color="#E35B4F" stop-opacity="0"/>
</linearGradient>
<linearGradient id="paint3_linear_4002_43661" x1="32.5" y1="6.53125" x2="32.5" y2="32.0006" gradientUnits="userSpaceOnUse">
<stop stop-color="#E35B4F"/>
<stop offset="1" stop-color="#E35B4F" stop-opacity="0"/>
</linearGradient>
<linearGradient id="paint4_linear_4002_43661" x1="42.3715" y1="8.49219" x2="42.3715" y2="32.0024" gradientUnits="userSpaceOnUse">
<stop stop-color="#E35B4F"/>
<stop offset="1" stop-color="#E35B4F" stop-opacity="0"/>
</linearGradient>
<linearGradient id="paint5_linear_4002_43661" x1="52.449" y1="13.7109" x2="52.449" y2="31.9967" gradientUnits="userSpaceOnUse">
<stop stop-color="#E35B4F"/>
<stop offset="1" stop-color="#E35B4F" stop-opacity="0"/>
</linearGradient>
<linearGradient id="paint6_linear_4002_43661" x1="62.5266" y1="18.9375" x2="62.5266" y2="31.9987" gradientUnits="userSpaceOnUse">
<stop stop-color="#E35B4F"/>
<stop offset="1" stop-color="#E35B4F" stop-opacity="0"/>
</linearGradient>
</defs>
</svg>
